<svg xmlns="http://www.w3.org/2000/svg" xmlns:xlink="http://www.w3.org/1999/xlink" width="330" zoomAndPan="magnify" viewBox="0 0 247.5 236.249991" height="315" preserveAspectRatio="xMidYMid meet" version="1.0"><defs><g/><clipPath id="db5c89240e"><path d="M 217 148 L 246.859375 148 L 246.859375 159 L 217 159 Z M 217 148 " clip-rule="nonzero"/></clipPath><clipPath id="581d254343"><path d="M 125 190 L 131 190 L 131 235.503906 L 125 235.503906 Z M 125 190 " clip-rule="nonzero"/></clipPath><clipPath id="2272b74c59"><path d="M 0.140625 169 L 25 169 L 25 185 L 0.140625 185 Z M 0.140625 169 " clip-rule="nonzero"/></clipPath><clipPath id="77cd2fdf6b"><path d="M 0.140625 87 L 30 87 L 30 98 L 0.140625 98 Z M 0.140625 87 " clip-rule="nonzero"/></clipPath><clipPath id="3aa4385cf2"><path d="M 0.140625 70 L 22 70 L 22 83 L 0.140625 83 Z M 0.140625 70 " clip-rule="nonzero"/></clipPath><clipPath id="110bce5dd7"><path d="M 0.140625 65 L 173 65 L 173 179 L 0.140625 179 Z M 0.140625 65 " clip-rule="nonzero"/></clipPath><clipPath id="851bdd49b7"><path d="M 106 61 L 246.859375 61 L 246.859375 184 L 106 184 Z M 106 61 " clip-rule="nonzero"/></clipPath></defs><path fill="#000000" d="M 235.828125 83.464844 C 214.253906 100.09375 212.484375 109.636719 238.773438 118.601562 C 201.628906 128.589844 192.539062 137.996094 219.46875 163.65625 C 168.902344 154.75 154.359375 162.089844 152.113281 210.546875 C 121.675781 172.773438 105.601562 175.445312 70.066406 212.507812 C 76.636719 175.898438 63.742188 173.671875 27.875 187.5625 C 43.785156 164.800781 36.722656 158.140625 9.492188 157.476562 C 31.066406 140.851562 32.835938 131.308594 6.550781 122.34375 C 43.691406 112.355469 52.785156 102.945312 25.851562 77.285156 C 76.417969 86.195312 90.964844 78.851562 93.207031 30.398438 C 123.648438 68.167969 139.71875 65.5 175.253906 28.433594 C 168.6875 65.046875 181.578125 67.269531 217.449219 53.382812 C 201.535156 76.144531 208.601562 82.800781 235.828125 83.464844 " fill-opacity="1" fill-rule="evenodd"/><path fill="#ff0000" d="M 227 86.355469 C 207.105469 101.683594 205.476562 110.480469 229.714844 118.75 C 195.46875 127.953125 187.085938 136.628906 211.914062 160.289062 C 165.296875 152.074219 151.882812 158.839844 149.816406 203.519531 C 121.75 168.695312 106.929688 171.15625 74.171875 205.328125 C 80.226562 171.574219 68.339844 169.523438 35.269531 182.324219 C 49.941406 161.339844 43.425781 155.203125 18.320312 154.589844 C 38.214844 139.261719 39.84375 130.460938 15.609375 122.195312 C 49.855469 112.988281 58.234375 104.316406 33.40625 80.65625 C 80.023438 88.871094 93.4375 82.101562 95.503906 37.425781 C 123.570312 72.25 138.390625 69.785156 171.152344 35.617188 C 165.09375 69.371094 176.984375 71.421875 210.050781 58.617188 C 195.382812 79.605469 201.894531 85.742188 227 86.355469 " fill-opacity="1" fill-rule="evenodd"/><path fill="#000000" d="M 71.4375 59.625 L 52.164062 39.675781 L 53.542969 38.429688 L 71.4375 59.625 " fill-opacity="1" fill-rule="nonzero"/><path fill="#000000" d="M 73.269531 37.140625 L 58.519531 9.71875 L 60.179688 8.890625 L 73.269531 37.140625 " fill-opacity="1" fill-rule="nonzero"/><path fill="#000000" d="M 139.1875 39.867188 L 147.347656 1.183594 L 149.199219 1.183594 L 139.1875 39.867188 " fill-opacity="1" fill-rule="nonzero"/><path fill="#000000" d="M 136.191406 42.457031 L 142.277344 -1.40625 L 144.109375 -1.113281 L 136.191406 42.457031 " fill-opacity="1" fill-rule="nonzero"/><path fill="#000000" d="M 187.097656 49.296875 L 209.613281 24.808594 L 210.941406 26.097656 L 187.097656 49.296875 " fill-opacity="1" fill-rule="nonzero"/><path fill="#000000" d="M 192.621094 213.542969 L 169.90625 181.074219 L 194.117188 212.445312 L 192.621094 213.542969 " fill-opacity="1" fill-rule="nonzero"/><g clip-path="url(#db5c89240e)"><path fill="#000000" d="M 247.882812 158.390625 L 217.542969 148.527344 L 248.402344 156.609375 L 247.882812 158.390625 " fill-opacity="1" fill-rule="nonzero"/></g><path fill="#000000" d="M 216.777344 209.121094 L 176.191406 169.65625 L 218.050781 207.769531 L 216.777344 209.121094 " fill-opacity="1" fill-rule="nonzero"/><path fill="#000000" d="M 206.886719 189.910156 L 185.527344 171.0625 L 208.066406 188.480469 L 206.886719 189.910156 " fill-opacity="1" fill-rule="nonzero"/><g clip-path="url(#581d254343)"><path fill="#000000" d="M 128.984375 235.5 L 125.441406 190.136719 L 130.832031 235.316406 L 128.984375 235.5 " fill-opacity="1" fill-rule="nonzero"/></g><path fill="#000000" d="M 120.433594 220.75 L 118.582031 220.703125 L 120.175781 191.824219 L 120.433594 220.75 " fill-opacity="1" fill-rule="nonzero"/><path fill="#000000" d="M 39.402344 230.375 L 37.882812 229.3125 L 66.394531 190.152344 L 39.402344 230.375 " fill-opacity="1" fill-rule="nonzero"/><g clip-path="url(#2272b74c59)"><path fill="#000000" d="M -1.160156 184.914062 L -2.054688 183.285156 L 24.65625 169.65625 L -1.160156 184.914062 " fill-opacity="1" fill-rule="nonzero"/></g><g clip-path="url(#77cd2fdf6b)"><path fill="#000000" d="M 29.078125 97.996094 L -4.230469 89.496094 L -3.722656 87.714844 L 29.078125 97.996094 " fill-opacity="1" fill-rule="nonzero"/></g><g clip-path="url(#3aa4385cf2)"><path fill="#000000" d="M 21.117188 82.351562 L -4.355469 72.085938 L -3.601562 70.390625 L 21.117188 82.351562 " fill-opacity="1" fill-rule="nonzero"/></g><path fill="#000000" d="M 78.273438 58.257812 L 36.867188 4.136719 L 38.355469 3.03125 L 78.273438 58.257812 " fill-opacity="1" fill-rule="nonzero"/><path fill="#f4d906" d="M 216.125 52.019531 L 213.6875 45.085938 L 207.140625 45.066406 L 212.179688 40.796875 L 209.742188 33.863281 L 215.292969 38.160156 L 220.332031 33.890625 L 218.722656 40.816406 L 224.273438 45.109375 L 217.730469 45.097656 L 216.125 52.019531 " fill-opacity="1" fill-rule="evenodd"/><path fill="#000000" d="M 216.121094 51.941406 C 216.355469 50.800781 216.601562 49.664062 216.847656 48.53125 C 217.09375 47.367188 217.351562 46.210938 217.605469 45.050781 L 217.625 44.953125 L 217.722656 44.953125 L 220.992188 44.917969 L 224.261719 44.902344 L 224.171875 45.285156 L 221.382812 43.15625 L 218.605469 41.015625 L 218.46875 40.910156 L 218.507812 40.738281 L 219.304688 37.273438 L 220.117188 33.8125 L 220.472656 34.089844 C 219.628906 34.796875 218.789062 35.507812 217.941406 36.210938 C 217.097656 36.914062 216.253906 37.617188 215.40625 38.316406 L 215.304688 38.394531 L 215.199219 38.3125 L 209.664062 33.996094 L 209.878906 33.8125 L 212.292969 40.757812 L 212.324219 40.851562 L 212.257812 40.90625 L 207.199219 45.148438 L 207.136719 44.96875 L 213.683594 45.023438 L 213.722656 45.023438 L 213.738281 45.066406 Z M 216.128906 52.09375 L 213.636719 45.101562 L 213.691406 45.148438 L 207.148438 45.167969 L 206.871094 45.167969 L 207.082031 44.984375 L 212.101562 40.6875 L 212.066406 40.839844 L 209.605469 33.910156 L 209.4375 33.433594 L 209.820312 33.730469 L 215.386719 38.003906 L 215.183594 38.003906 C 216.011719 37.277344 216.847656 36.558594 217.679688 35.839844 C 218.511719 35.117188 219.351562 34.410156 220.1875 33.691406 L 220.710938 33.246094 L 220.542969 33.964844 L 219.75 37.429688 L 218.941406 40.890625 L 218.839844 40.617188 L 221.613281 42.769531 L 224.378906 44.9375 L 224.878906 45.332031 L 224.289062 45.324219 L 221.015625 45.292969 L 217.742188 45.238281 L 217.859375 45.140625 C 217.574219 46.289062 217.296875 47.441406 217.007812 48.585938 C 216.722656 49.734375 216.4375 50.882812 216.144531 52.027344 L 216.128906 52.09375 " fill-opacity="1" fill-rule="nonzero"/><path fill="#f4d906" d="M 52.40625 52.363281 L 45.535156 54.976562 L 45.6875 61.519531 L 41.289062 56.59375 L 34.417969 59.207031 L 38.574219 53.550781 L 34.175781 48.621094 L 41.140625 50.050781 L 45.289062 44.390625 L 45.441406 50.933594 L 52.40625 52.363281 " fill-opacity="1" fill-rule="evenodd"/><path fill="#000000" d="M 52.328125 52.371094 C 51.183594 52.160156 50.039062 51.941406 48.894531 51.730469 C 47.730469 51.511719 46.566406 51.28125 45.402344 51.058594 L 45.300781 51.042969 L 45.296875 50.945312 L 45.179688 47.675781 L 45.078125 44.410156 L 45.464844 44.488281 L 43.410156 47.328125 L 41.339844 50.164062 L 41.238281 50.304688 L 41.066406 50.269531 L 37.582031 49.5625 L 34.101562 48.839844 L 34.367188 48.476562 C 35.097656 49.300781 35.832031 50.121094 36.554688 50.949219 C 37.277344 51.777344 38.003906 52.601562 38.722656 53.433594 L 38.808594 53.53125 L 38.730469 53.636719 L 34.550781 59.285156 L 34.367188 59.074219 L 41.246094 56.480469 L 41.339844 56.445312 L 41.398438 56.511719 L 45.769531 61.460938 L 45.585938 61.527344 L 45.472656 54.980469 L 45.472656 54.941406 L 45.515625 54.925781 Z M 52.480469 52.355469 L 45.554688 55.027344 L 45.597656 54.96875 L 45.789062 61.511719 L 45.796875 61.789062 L 45.605469 61.578125 L 41.183594 56.671875 L 41.332031 56.703125 L 34.472656 59.347656 L 34 59.527344 L 34.285156 59.136719 L 38.414062 53.460938 L 38.421875 53.660156 C 37.671875 52.851562 36.933594 52.035156 36.191406 51.222656 C 35.449219 50.410156 34.714844 49.585938 33.980469 48.769531 L 33.519531 48.257812 L 34.246094 48.40625 L 37.730469 49.113281 L 41.210938 49.832031 L 40.9375 49.9375 L 43.019531 47.109375 L 45.113281 44.292969 L 45.496094 43.78125 L 45.503906 44.371094 L 45.554688 47.644531 L 45.585938 50.921875 L 45.484375 50.804688 C 46.640625 51.058594 47.796875 51.304688 48.953125 51.566406 C 50.105469 51.820312 51.261719 52.074219 52.414062 52.339844 L 52.480469 52.355469 " fill-opacity="1" fill-rule="nonzero"/><path fill="#f4d906" d="M 19.074219 187.523438 L 17.777344 196.726562 L 25.113281 200.550781 L 16.972656 202.414062 L 15.675781 211.621094 L 11.945312 203.566406 L 3.804688 205.429688 L 9.636719 198.589844 L 5.902344 190.535156 L 13.242188 194.363281 L 19.074219 187.523438 " fill-opacity="1" fill-rule="evenodd"/><path fill="#000000" d="M 19.03125 187.613281 C 18.101562 188.753906 17.167969 189.886719 16.230469 191.023438 C 15.277344 192.183594 14.316406 193.332031 13.355469 194.484375 L 13.273438 194.582031 L 13.164062 194.527344 L 9.476562 192.667969 L 5.792969 190.78125 L 6.117188 190.402344 L 8.011719 194.414062 L 9.886719 198.433594 L 9.976562 198.632812 L 9.832031 198.800781 L 6.921875 202.230469 L 4 205.640625 L 3.761719 205.125 C 5.117188 204.824219 6.476562 204.507812 7.835938 204.214844 C 9.191406 203.917969 10.546875 203.613281 11.910156 203.328125 L 12.066406 203.292969 L 12.136719 203.445312 L 15.839844 211.519531 L 15.492188 211.597656 L 16.820312 202.394531 L 16.839844 202.273438 L 16.949219 202.246094 L 25.09375 200.425781 L 25.0625 200.667969 L 17.746094 196.796875 L 17.699219 196.773438 L 17.707031 196.714844 Z M 19.109375 187.4375 L 17.847656 196.734375 L 17.808594 196.652344 L 25.164062 200.433594 L 25.476562 200.59375 L 25.132812 200.679688 L 17 202.582031 L 17.125 202.4375 L 15.859375 211.644531 L 15.773438 212.277344 L 15.511719 211.722656 L 11.75 203.6875 L 11.976562 203.804688 C 10.625 204.140625 9.269531 204.457031 7.914062 204.78125 C 6.558594 205.113281 5.203125 205.417969 3.847656 205.734375 L 3.003906 205.933594 L 3.609375 205.222656 L 6.515625 201.792969 L 9.4375 198.378906 L 9.386719 198.746094 L 7.527344 194.714844 L 5.6875 190.667969 L 5.355469 189.9375 L 6.011719 190.289062 L 9.667969 192.230469 L 13.316406 194.195312 L 13.121094 194.238281 C 14.109375 193.113281 15.089844 191.980469 16.082031 190.863281 C 17.070312 189.738281 18.058594 188.613281 19.054688 187.5 L 19.109375 187.4375 " fill-opacity="1" fill-rule="nonzero"/><path fill="#f4d906" d="M 40.722656 196.796875 L 40.65625 201.058594 L 44.210938 202.378906 L 40.617188 203.691406 L 40.550781 207.949219 L 38.394531 204.5 L 34.800781 205.8125 L 37.0625 202.367188 L 34.90625 198.921875 L 38.460938 200.242188 L 40.722656 196.796875 " fill-opacity="1" fill-rule="evenodd"/><path fill="#000000" d="M 40.710938 196.84375 C 40.351562 197.417969 39.988281 197.984375 39.628906 198.554688 C 39.261719 199.136719 38.890625 199.710938 38.519531 200.292969 L 38.488281 200.339844 L 38.4375 200.320312 L 36.652344 199.6875 L 34.871094 199.039062 L 34.996094 198.847656 L 36.085938 200.5625 L 37.167969 202.285156 L 37.21875 202.367188 L 37.164062 202.457031 L 36.035156 204.175781 L 34.902344 205.894531 L 34.765625 205.675781 C 35.363281 205.460938 35.964844 205.242188 36.5625 205.03125 C 37.164062 204.816406 37.761719 204.601562 38.367188 204.394531 L 38.4375 204.371094 L 38.476562 204.4375 L 40.621094 207.894531 L 40.46875 207.949219 L 40.546875 203.691406 L 40.546875 203.632812 L 40.597656 203.617188 L 44.195312 202.324219 L 44.195312 202.4375 L 40.648438 201.09375 L 40.625 201.085938 L 40.625 201.058594 Z M 40.734375 196.757812 L 40.691406 201.058594 L 40.667969 201.023438 L 44.226562 202.324219 L 44.378906 202.378906 L 44.226562 202.4375 L 40.636719 203.765625 L 40.683594 203.691406 L 40.636719 207.949219 L 40.632812 208.242188 L 40.484375 208.003906 L 38.3125 204.566406 L 38.425781 204.609375 C 37.828125 204.835938 37.230469 205.058594 36.632812 205.285156 C 36.035156 205.507812 35.433594 205.726562 34.839844 205.949219 L 34.464844 206.085938 L 34.703125 205.726562 L 35.828125 204.003906 L 36.960938 202.285156 L 36.960938 202.453125 L 35.882812 200.730469 L 34.816406 198.992188 L 34.621094 198.679688 L 34.941406 198.800781 L 36.714844 199.476562 L 38.484375 200.160156 L 38.402344 200.191406 C 38.785156 199.625 39.167969 199.054688 39.554688 198.488281 C 39.9375 197.921875 40.324219 197.355469 40.710938 196.789062 L 40.734375 196.757812 " fill-opacity="1" fill-rule="nonzero"/><g clip-path="url(#110bce5dd7)"><path stroke-linecap="butt" transform="matrix(0.761663, 0, 0, 0.761663, -35.948709, 77.339634)" fill="none" stroke-linejoin="miter" d="M 97.642381 32.320592 C 95.744806 38.208203 94.001089 43.521413 92.411229 48.260221 C 90.81624 52.99903 89.359723 57.368581 88.046806 61.368874 C 86.728761 65.35891 85.50303 69.036102 84.374743 72.40558 C 83.241326 75.780186 82.184839 78.995806 81.215537 82.062697 C 80.671907 85.616804 78.923061 88.12468 75.958742 89.586325 C 74.235538 90.40177 72.184106 90.812056 69.799316 90.812056 C 67.429912 90.812056 65.655423 90.555627 64.470721 90.042769 C 63.286018 89.529911 62.52186 88.786267 62.178245 87.811836 C 61.824373 86.837406 61.824373 85.662961 62.178245 84.29363 C 62.52186 82.914042 63.116775 81.021595 63.973248 78.626548 C 64.845107 76.231501 65.937495 72.985109 67.250411 68.892502 C 68.583842 64.784509 69.968559 60.630358 71.419948 56.435179 C 75.040726 45.91646 77.902474 38.633875 80.01032 34.592553 C 80.810379 33.079622 81.615566 32.064163 82.415625 31.551305 C 83.236198 31.038447 84.015742 30.664061 84.769643 30.428146 C 85.528673 30.176845 86.236417 29.894773 86.882619 29.576801 C 87.523691 29.248572 88.103221 28.438256 88.616079 27.150983 C 89.128937 25.85858 90.072596 24.971336 91.441927 24.484121 C 92.821515 23.996906 94.119046 23.955877 95.329391 24.366163 C 96.544865 24.761064 97.457752 25.622666 98.078311 26.950968 C 98.69374 28.269013 98.55014 30.058888 97.642381 32.320592 Z M 98.611683 55.624863 C 99.678428 52.004085 100.545158 49.214137 101.217002 47.249891 C 101.904232 45.275387 102.565819 43.511155 103.21202 41.957195 C 103.858221 40.392978 104.596737 38.885176 105.422438 37.438916 C 106.268654 35.97727 107.18667 34.638711 108.186743 33.428366 C 109.191945 32.202635 110.253561 31.24359 111.386978 30.546103 C 112.520394 29.848616 113.705096 29.499873 114.941084 29.499873 C 116.177072 29.499873 117.474603 29.981959 118.833677 30.941004 C 120.977424 36.336271 122.295469 39.95192 122.782684 41.782824 C 123.428885 44.480457 124.018672 48.285864 124.557173 53.193916 C 125.044388 51.957928 125.598275 50.655269 126.218833 49.285937 C 126.834263 47.901221 127.439436 46.506247 128.034351 45.101016 C 129.706268 41.546909 130.757627 38.854404 131.193557 37.023501 C 132.378259 33.243737 134.834849 30.41276 138.558199 28.530571 C 141.794333 26.915068 144.820196 26.397081 147.620401 26.991997 C 148.753817 27.202269 149.543619 27.663841 149.989805 28.371585 C 150.451378 29.069072 150.451378 29.79733 149.989805 30.546103 C 149.543619 31.294876 149.384633 32.012877 149.517976 32.700107 C 149.651319 33.371951 149.769276 34.161753 149.871848 35.069511 C 150.04622 37.556873 149.615419 39.762163 148.589703 41.680252 C 147.563987 43.593213 146.507499 45.962617 145.430497 48.793594 C 144.348366 51.619442 143.255979 54.629919 142.153334 57.814767 C 141.04556 60.989359 139.92753 64.220365 138.794113 67.512914 C 137.665826 70.800334 136.558052 73.795425 135.475922 76.493059 C 133.106517 82.693513 131.167914 86.119405 129.654983 86.765606 C 127.613807 88.001594 126.106005 88.724724 125.131574 88.934996 C 123.895586 89.160653 122.141612 89.160653 119.879907 88.934996 C 118.469548 88.827295 117.254074 87.027164 116.223229 83.524343 C 115.633443 81.642154 115.10007 79.031706 114.628241 75.687871 C 113.756382 69.851546 113.156338 66.641055 112.828109 66.051268 C 110.684362 73.067167 109.161174 77.488003 108.268801 79.318907 C 107.371299 81.14981 106.694326 82.360155 106.232754 82.949942 C 105.786567 83.544857 105.237809 84.32953 104.596737 85.30396 C 103.883864 87.237435 102.211947 88.663181 99.580985 89.586325 C 97.314152 90.453056 95.26272 90.591527 93.416431 90.00174 C 91.43167 89.345282 90.836754 88.099037 91.641942 86.268134 C 92.231728 79.806122 94.560104 69.589989 98.611683 55.624863 Z M 156.021016 86.268134 C 155.323529 88.81191 153.543912 90.50947 150.687292 91.365943 C 148.097359 92.124973 145.779241 91.858287 143.738065 90.555627 C 141.527647 89.211939 140.819903 87.216921 141.62509 84.570573 C 142.322577 81.554968 143.666265 76.734102 145.656155 70.097718 C 147.656301 63.461335 149.061532 58.794326 149.876977 56.096693 C 151.764294 49.409023 152.948997 44.993315 153.431083 42.849569 C 155.103 37.449173 156.303088 34.105338 157.026218 32.818065 C 157.764734 31.515405 158.400678 30.612775 158.944307 30.110174 C 159.482808 29.597316 160.359796 28.992143 161.570141 28.294656 C 162.780486 27.581784 164.083145 27.043283 165.478119 26.674025 C 166.888479 26.29451 168.288582 26.038081 169.683556 25.904738 C 171.093915 25.761137 172.519661 25.648309 173.971049 25.57138 C 175.432695 25.489323 177.048198 25.232893 178.827815 24.802093 C 179.535559 24.802093 180.176632 24.745678 180.740776 24.643107 C 181.310048 24.535407 181.858806 24.458478 182.402436 24.407192 C 183.638424 24.299492 184.864155 24.437963 186.0745 24.817478 C 187.284845 25.186736 188.197732 25.85858 188.818291 26.833011 C 189.438849 27.797184 189.746564 28.899829 189.746564 30.151202 C 189.746564 31.38719 189.490135 32.710364 188.977277 34.120724 C 188.464419 35.515698 187.751546 36.859386 186.843787 38.14666 C 184.843641 40.951994 182.335764 42.947012 179.320159 44.131714 C 177.212312 44.777915 175.699381 45.101016 174.781365 45.101016 C 173.868478 45.101016 173.237662 44.993315 172.88379 44.783044 C 172.540175 44.572772 172.335032 44.413786 172.273489 44.311214 C 172.217075 44.188128 172.032446 44.372757 171.719602 44.859972 C 171.232387 45.557459 170.873386 46.342132 170.652857 47.213991 C 170.442586 48.065335 170.196414 48.701279 169.91947 49.106437 C 169.657913 49.516724 169.293784 50.311654 168.83734 51.496356 C 168.386025 52.681058 167.806495 53.670874 167.098751 54.460675 C 166.401264 55.235091 165.996106 55.701792 165.893534 55.860778 L 173.001747 55.127391 C 174.135164 55.024819 175.114723 55.255606 175.945553 55.819749 C 176.78664 56.389022 177.386684 57.076252 177.740556 57.891696 C 178.094428 58.696883 178.186743 59.491813 178.017499 60.281615 C 177.858513 61.061159 177.371298 61.650946 176.555854 62.061232 C 175.750667 62.456133 175.227552 62.856162 174.976251 63.266449 C 174.740336 63.671607 174.540322 64.066507 174.386464 64.451151 C 174.227478 64.820409 174.022335 65.194795 173.771035 65.57431 C 173.53512 65.943568 173.006876 66.292311 172.191432 66.620541 C 170.468229 67.425728 167.155165 68.071929 162.262499 68.559144 C 161.985556 69.374588 161.616298 70.333633 161.154726 71.441407 C 160.693154 72.533794 160.226453 73.677468 159.754623 74.877556 C 158.344264 78.482948 157.539076 80.667723 157.34419 81.431882 C 157.159561 82.180655 157.015961 82.801213 156.908261 83.288428 C 156.595417 84.734688 156.29796 85.729633 156.021016 86.268134 Z M 194.752059 33.44888 C 198.162565 29.576801 201.942329 27.156111 206.086222 26.181681 C 208.942842 25.484194 211.645604 25.591894 214.184251 26.499653 C 216.174141 24.391806 218.758945 23.643033 221.943794 24.248206 C 224.851699 24.771321 227.333932 26.412467 229.390493 29.161386 C 229.493065 29.54603 229.718723 30.120431 230.062337 30.879461 C 230.41621 31.633362 230.759824 32.459064 231.088054 33.371951 C 233.457458 38.86979 233.642087 46.101089 231.64194 55.050462 C 229.164836 66.158968 224.774771 75.575043 218.471745 83.288428 C 216.522884 85.657832 214.338109 87.627208 211.91229 89.191425 C 208.029954 92.155744 203.388589 93.468661 197.993322 93.140432 C 194.649487 92.981446 191.844153 92.145487 189.582449 90.632556 C 180.576661 86.155305 177.643113 76.831545 180.771547 62.651019 C 183.356352 51.004012 188.013103 41.269966 194.752059 33.44888 Z M 195.741875 76.395616 L 195.664946 76.887959 L 195.818803 77.780332 C 196.136775 79.45225 196.670148 80.734395 197.418921 81.626768 C 198.183079 82.508884 198.808766 83.062771 199.295981 83.288428 C 199.834482 82.852499 200.372983 82.447341 200.916613 82.062697 C 201.455114 81.683182 201.942329 81.226739 202.378258 80.698495 C 206.034936 76.159701 208.886427 70.220804 210.927602 62.892062 C 212.979035 55.558192 213.738065 48.762822 213.194435 42.511082 C 211.101974 45.208716 208.891556 48.311507 206.56318 51.814328 C 204.245062 55.31202 202.414158 58.307111 201.07047 60.794473 C 198.003579 66.564126 196.22909 71.764507 195.741875 76.395616 Z M 195.741875 76.395616 " stroke="#000000" stroke-width="7.077192" stroke-opacity="1" stroke-miterlimit="4"/></g><g clip-path="url(#851bdd49b7)"><path stroke-linecap="butt" transform="matrix(0.761663, 0, 0, 0.761663, -35.948709, 77.339634)" fill="none" stroke-linejoin="miter" d="M 249.361187 69.364331 L 245.473723 79.241978 C 244.935222 80.739524 244.448007 82.298612 244.012077 83.919244 C 243.591534 85.539875 243.13509 86.955363 242.647875 88.165709 C 242.16066 89.391439 241.417015 90.350484 240.416942 91.047971 C 239.432255 91.745458 238.309095 92.263445 237.06285 92.607059 C 235.821734 92.960932 234.539588 93.114789 233.211286 93.063503 C 231.893241 93.007089 230.729053 92.766045 229.713594 92.330116 C 227.385218 91.253114 226.574902 89.473497 227.287775 87.001521 C 229.759751 76.113544 232.093255 67.379571 234.278031 60.794473 C 236.462806 54.214504 238.262938 49.039766 239.688684 45.275387 C 241.119558 41.500752 242.622232 37.505587 244.191578 33.289894 C 244.345435 31.725677 244.991636 30.320446 246.125052 29.084458 C 247.258469 27.84847 248.5919 26.827882 250.130474 26.022695 C 251.674177 25.207251 253.279423 24.627721 254.95134 24.284106 C 256.623257 23.930234 258.105417 23.889205 259.392691 24.166149 C 260.685093 24.432835 261.639009 25.022622 262.254439 25.945766 C 262.874997 26.853525 262.916026 28.17157 262.377525 29.894773 C 260.438922 34.85924 259.064462 38.367189 258.249018 40.418621 C 257.44383 42.459796 256.7207 44.2907 256.074499 45.906203 L 253.807667 51.260441 C 254.935954 51.311727 256.366828 51.147612 258.090032 50.768097 C 261.223594 50.07061 263.485299 49.824438 264.885401 50.03471 C 264.885401 49.773153 265.023873 49.31158 265.295688 48.655122 C 266.813747 42.08541 268.511308 36.04907 270.393497 30.546103 C 271.737185 26.017566 275.209234 23.648162 280.819902 23.43789 C 283.03032 23.43789 284.702237 23.971263 285.835654 25.038007 C 287.071642 26.171424 287.235756 27.709998 286.327997 29.658859 C 281.363531 43.572698 277.855582 54.542733 275.80415 62.57409 C 273.486031 71.856822 271.962843 78.11369 271.239713 81.354953 C 270.516583 84.575702 269.885767 86.488663 269.347266 87.078449 C 268.803637 87.673365 268.254879 88.083651 267.685606 88.324695 C 267.121462 88.570866 266.567576 88.801653 266.029075 89.011924 C 265.490574 89.237582 265.054644 89.776083 264.726415 90.632556 L 264.4905 90.632556 C 264.054571 91.606986 263.105784 92.366016 261.644138 92.904517 C 260.197878 93.443018 258.731104 93.643033 257.243816 93.494304 C 255.766784 93.366089 254.530796 92.827588 253.530723 91.878801 C 252.53065 90.940271 252.274221 89.509397 252.761436 87.570793 C 253.299937 84.493645 254.187182 81.18571 255.423169 77.662375 C 256.664286 74.133911 257.643845 71.374735 258.366975 69.384846 C 259.105491 67.384699 259.715792 65.517896 260.203007 63.779307 C 259.767077 63.999836 259.346534 64.169079 258.941376 64.271651 C 258.546475 64.379351 258.043874 64.579365 257.438702 64.881952 C 256.848915 65.174281 256.238614 65.43071 255.623184 65.656367 C 255.002626 65.866639 254.397453 66.076911 253.807667 66.287183 C 252.304992 66.87697 251.069004 67.477014 250.094574 68.082186 Z M 258.505447 63.958807 C 258.556732 63.958807 258.828547 63.871621 259.315762 63.69725 C 258.987533 63.820335 258.715718 63.902393 258.505447 63.958807 Z M 323.279422 80.524123 C 323.766637 82.365284 323.658937 83.893601 322.96145 85.103946 C 322.263963 86.314291 321.26389 87.242564 319.96123 87.888765 C 319.96123 88.165709 320.140731 88.822167 320.494603 89.863269 C 320.848475 90.914628 321.130547 91.796744 321.340819 92.509616 C 321.828034 93.955876 321.961377 95.273922 321.735719 96.458624 C 321.145932 98.510056 319.63813 99.617829 317.21744 99.776815 C 316.191723 99.879387 315.160879 99.740915 314.135163 99.3614 C 313.119704 98.992143 312.319645 98.407484 311.72473 97.602297 C 311.606772 97.812569 311.304186 97.366382 310.816971 96.258609 C 310.345141 95.155964 309.811769 93.90459 309.216854 92.509616 L 307.42185 88.934996 C 304.513945 89.85814 302.144541 90.237655 300.313637 90.078669 C 297.457018 89.75044 294.436284 88.965767 291.251435 87.729779 C 286.82547 86.006576 283.779093 82.934556 282.107175 78.508591 C 280.435258 74.087754 280.224986 68.666844 281.47636 62.256118 C 282.066147 54.701719 283.871407 47.798649 286.887013 41.546909 C 290.441119 34.161753 294.887599 29.387044 300.236709 27.227911 C 305.683261 24.478992 310.211798 23.319933 313.822319 23.750734 L 315.278836 23.25839 C 316.084023 21.863416 317.335397 20.868471 319.032957 20.278684 C 320.730517 19.683769 322.546035 19.442726 324.484639 19.545297 C 326.433499 19.652998 328.331074 20.063284 330.18762 20.771028 C 332.059552 21.468515 333.557098 22.412174 334.690514 23.596876 C 338.731836 27.530498 340.37811 33.915581 339.629338 42.746997 C 338.757479 53.593945 334.823857 63.738278 327.818216 73.179995 C 326.146299 75.4417 324.33591 77.539289 322.387049 79.477893 Z M 300.077723 78.826563 C 299.539222 76.836674 299.267407 75.251942 299.267407 74.06724 C 299.159707 73.949283 299.108421 73.810811 299.108421 73.651825 L 299.108421 73.574896 C 299.041749 73.518482 299.010978 73.441553 299.010978 73.333853 L 299.108421 73.333853 C 299.216121 70.636219 300.585452 68.851473 303.216414 67.984743 C 304.837046 67.12827 306.611534 66.769269 308.550138 66.897484 C 310.49387 67.030827 312.252973 67.636 313.822319 68.713002 C 314.36082 67.805243 314.822392 66.969284 315.201907 66.205126 L 316.171209 64.271651 C 320.853603 54.347847 322.038306 45.906203 319.725316 38.956976 C 318.104684 40.039106 316.335324 40.757108 314.412106 41.11098 C 312.504274 41.454595 310.740042 41.490495 309.11941 41.228937 C 307.934708 42.244396 306.816678 43.464998 305.765319 44.901001 C 304.724217 46.337003 304.001087 47.321691 303.5908 47.865321 C 303.185642 48.388436 302.477898 49.537238 301.477825 51.30147 C 300.493138 53.050316 299.539222 54.978662 298.616077 57.086509 C 297.692932 59.17897 296.90826 61.343231 296.267187 63.579292 C 295.620986 65.820482 295.272242 67.938586 295.220957 69.938732 C 295.113256 74.467269 296.733888 77.431589 300.077723 78.826563 Z M 300.077723 78.826563 " stroke="#000000" stroke-width="7.077192" stroke-opacity="1" stroke-miterlimit="4"/></g><g fill="#034aa5" fill-opacity="1"><g transform="translate(12.357383, 143.604311)"><g><path d="M 26.0625 -41.640625 C 24.625 -37.171875 23.296875 -33.128906 22.078125 -29.515625 C 20.867188 -25.898438 19.757812 -22.570312 18.75 -19.53125 C 17.75 -16.488281 16.816406 -13.679688 15.953125 -11.109375 C 15.085938 -8.546875 14.289062 -6.097656 13.5625 -3.765625 C 13.144531 -1.046875 11.804688 0.863281 9.546875 1.96875 C 8.234375 2.582031 6.671875 2.890625 4.859375 2.890625 C 3.054688 2.890625 1.703125 2.691406 0.796875 2.296875 C -0.0976562 1.910156 -0.679688 1.347656 -0.953125 0.609375 C -1.222656 -0.128906 -1.222656 -1.019531 -0.953125 -2.0625 C -0.679688 -3.113281 -0.21875 -4.550781 0.4375 -6.375 C 1.09375 -8.207031 1.921875 -10.679688 2.921875 -13.796875 C 3.929688 -16.921875 4.988281 -20.082031 6.09375 -23.28125 C 8.851562 -31.289062 11.03125 -36.835938 12.625 -39.921875 C 13.25 -41.066406 13.867188 -41.832031 14.484375 -42.21875 C 15.097656 -42.613281 15.691406 -42.90625 16.265625 -43.09375 C 16.835938 -43.28125 17.367188 -43.492188 17.859375 -43.734375 C 18.359375 -43.984375 18.800781 -44.597656 19.1875 -45.578125 C 19.582031 -46.566406 20.300781 -47.242188 21.34375 -47.609375 C 22.394531 -47.984375 23.378906 -48.015625 24.296875 -47.703125 C 25.222656 -47.398438 25.921875 -46.742188 26.390625 -45.734375 C 26.867188 -44.734375 26.757812 -43.367188 26.0625 -41.640625 Z M 26.0625 -41.640625 "/></g></g></g><g fill="#034aa5" fill-opacity="1"><g transform="translate(34.964371, 143.604311)"><g><path d="M 4.1875 -23.90625 C 5.007812 -26.65625 5.675781 -28.78125 6.1875 -30.28125 C 6.707031 -31.78125 7.210938 -33.125 7.703125 -34.3125 C 8.191406 -35.507812 8.753906 -36.660156 9.390625 -37.765625 C 10.023438 -38.878906 10.722656 -39.894531 11.484375 -40.8125 C 12.242188 -41.738281 13.054688 -42.46875 13.921875 -43 C 14.785156 -43.53125 15.6875 -43.796875 16.625 -43.796875 C 17.570312 -43.796875 18.5625 -43.425781 19.59375 -42.6875 C 21.238281 -38.582031 22.242188 -35.832031 22.609375 -34.4375 C 23.097656 -32.382812 23.550781 -29.488281 23.96875 -25.75 C 24.332031 -26.695312 24.75 -27.691406 25.21875 -28.734375 C 25.695312 -29.785156 26.160156 -30.84375 26.609375 -31.90625 C 27.890625 -34.625 28.691406 -36.679688 29.015625 -38.078125 C 29.921875 -40.953125 31.789062 -43.109375 34.625 -44.546875 C 37.09375 -45.773438 39.394531 -46.164062 41.53125 -45.71875 C 42.382812 -45.550781 42.984375 -45.195312 43.328125 -44.65625 C 43.679688 -44.125 43.679688 -43.570312 43.328125 -43 C 42.984375 -42.425781 42.863281 -41.878906 42.96875 -41.359375 C 43.070312 -40.847656 43.164062 -40.242188 43.25 -39.546875 C 43.375 -37.660156 43.046875 -35.988281 42.265625 -34.53125 C 41.484375 -33.070312 40.679688 -31.265625 39.859375 -29.109375 C 39.035156 -26.953125 38.203125 -24.660156 37.359375 -22.234375 C 36.523438 -19.816406 35.675781 -17.351562 34.8125 -14.84375 C 33.945312 -12.34375 33.101562 -10.066406 32.28125 -8.015625 C 30.476562 -3.285156 29 -0.675781 27.84375 -0.1875 C 26.28125 0.757812 25.128906 1.316406 24.390625 1.484375 C 23.453125 1.640625 22.117188 1.640625 20.390625 1.484375 C 19.328125 1.398438 18.40625 0.0195312 17.625 -2.65625 C 17.164062 -4.09375 16.753906 -6.082031 16.390625 -8.625 C 15.734375 -13.0625 15.28125 -15.503906 15.03125 -15.953125 C 13.382812 -10.617188 12.222656 -7.253906 11.546875 -5.859375 C 10.867188 -4.460938 10.351562 -3.535156 10 -3.078125 C 9.65625 -2.628906 9.238281 -2.035156 8.75 -1.296875 C 8.21875 0.179688 6.941406 1.269531 4.921875 1.96875 C 3.203125 2.625 1.644531 2.726562 0.25 2.28125 C -1.269531 1.789062 -1.722656 0.847656 -1.109375 -0.546875 C -0.660156 -5.484375 1.101562 -13.269531 4.1875 -23.90625 Z M 4.1875 -23.90625 "/></g></g></g><g fill="#034aa5" fill-opacity="1"><g transform="translate(73.772014, 143.604311)"><g><path d="M 9.125 -0.546875 C 8.582031 1.378906 7.222656 2.671875 5.046875 3.328125 C 3.078125 3.898438 1.3125 3.691406 -0.25 2.703125 C -1.925781 1.679688 -2.457031 0.164062 -1.84375 -1.84375 C -1.3125 -4.144531 -0.285156 -7.820312 1.234375 -12.875 C 2.753906 -17.925781 3.820312 -21.476562 4.4375 -23.53125 C 5.875 -28.625 6.773438 -31.992188 7.140625 -33.640625 C 8.421875 -37.742188 9.335938 -40.285156 9.890625 -41.265625 C 10.441406 -42.253906 10.921875 -42.941406 11.328125 -43.328125 C 11.742188 -43.722656 12.410156 -44.1875 13.328125 -44.71875 C 14.253906 -45.257812 15.25 -45.671875 16.3125 -45.953125 C 17.382812 -46.242188 18.453125 -46.441406 19.515625 -46.546875 C 20.585938 -46.648438 21.675781 -46.734375 22.78125 -46.796875 C 23.894531 -46.859375 25.128906 -47.050781 26.484375 -47.375 C 27.023438 -47.375 27.507812 -47.414062 27.9375 -47.5 C 28.375 -47.582031 28.796875 -47.644531 29.203125 -47.6875 C 30.148438 -47.769531 31.082031 -47.664062 32 -47.375 C 32.925781 -47.09375 33.625 -46.582031 34.09375 -45.84375 C 34.570312 -45.101562 34.8125 -44.257812 34.8125 -43.3125 C 34.8125 -42.363281 34.613281 -41.351562 34.21875 -40.28125 C 33.832031 -39.21875 33.289062 -38.195312 32.59375 -37.21875 C 31.070312 -35.082031 29.160156 -33.5625 26.859375 -32.65625 C 25.253906 -32.15625 24.101562 -31.90625 23.40625 -31.90625 C 22.707031 -31.90625 22.222656 -31.988281 21.953125 -32.15625 C 21.691406 -32.320312 21.539062 -32.445312 21.5 -32.53125 C 21.457031 -32.613281 21.316406 -32.46875 21.078125 -32.09375 C 20.703125 -31.5625 20.429688 -30.96875 20.265625 -30.3125 C 20.097656 -29.65625 19.910156 -29.171875 19.703125 -28.859375 C 19.503906 -28.554688 19.226562 -27.953125 18.875 -27.046875 C 18.53125 -26.140625 18.085938 -25.390625 17.546875 -24.796875 C 17.015625 -24.203125 16.710938 -23.84375 16.640625 -23.71875 L 22.0625 -24.28125 C 22.914062 -24.351562 23.660156 -24.175781 24.296875 -23.75 C 24.941406 -23.320312 25.394531 -22.796875 25.65625 -22.171875 C 25.925781 -21.554688 26 -20.953125 25.875 -20.359375 C 25.75 -19.765625 25.378906 -19.3125 24.765625 -19 C 24.148438 -18.695312 23.75 -18.390625 23.5625 -18.078125 C 23.375 -17.773438 23.21875 -17.476562 23.09375 -17.1875 C 22.976562 -16.894531 22.828125 -16.601562 22.640625 -16.3125 C 22.453125 -16.03125 22.050781 -15.769531 21.4375 -15.53125 C 20.125 -14.90625 17.597656 -14.410156 13.859375 -14.046875 C 13.648438 -13.429688 13.367188 -12.703125 13.015625 -11.859375 C 12.671875 -11.015625 12.316406 -10.140625 11.953125 -9.234375 C 10.878906 -6.484375 10.269531 -4.820312 10.125 -4.25 C 9.988281 -3.675781 9.878906 -3.203125 9.796875 -2.828125 C 9.546875 -1.722656 9.320312 -0.960938 9.125 -0.546875 Z M 9.125 -0.546875 "/></g></g></g><g fill="#034aa5" fill-opacity="1"><g transform="translate(99.890175, 143.604311)"><g><path d="M 12.5 -40.78125 C 15.09375 -43.738281 17.96875 -45.585938 21.125 -46.328125 C 23.300781 -46.859375 25.359375 -46.773438 27.296875 -46.078125 C 28.816406 -47.679688 30.785156 -48.257812 33.203125 -47.8125 C 35.421875 -47.394531 37.3125 -46.140625 38.875 -44.046875 C 38.957031 -43.765625 39.128906 -43.332031 39.390625 -42.75 C 39.660156 -42.175781 39.921875 -41.539062 40.171875 -40.84375 C 41.972656 -36.65625 42.113281 -31.148438 40.59375 -24.328125 C 38.707031 -15.867188 35.363281 -8.703125 30.5625 -2.828125 C 29.082031 -1.023438 27.414062 0.46875 25.5625 1.65625 C 22.601562 3.914062 19.070312 4.925781 14.96875 4.6875 C 12.425781 4.5625 10.289062 3.921875 8.5625 2.765625 C 1.707031 -0.640625 -0.53125 -7.742188 1.84375 -18.546875 C 3.820312 -27.421875 7.375 -34.832031 12.5 -40.78125 Z M 13.25 -8.078125 L 13.1875 -7.703125 L 13.3125 -7.03125 C 13.550781 -5.75 13.957031 -4.769531 14.53125 -4.09375 C 15.113281 -3.414062 15.585938 -2.992188 15.953125 -2.828125 C 16.367188 -3.160156 16.78125 -3.46875 17.1875 -3.75 C 17.601562 -4.039062 17.972656 -4.394531 18.296875 -4.8125 C 21.085938 -8.257812 23.265625 -12.773438 24.828125 -18.359375 C 26.390625 -23.941406 26.960938 -29.117188 26.546875 -33.890625 C 24.953125 -31.828125 23.269531 -29.460938 21.5 -26.796875 C 19.738281 -24.128906 18.34375 -21.851562 17.3125 -19.96875 C 14.96875 -15.570312 13.613281 -11.609375 13.25 -8.078125 Z M 13.25 -8.078125 "/></g></g></g><g fill="#f4d906" fill-opacity="1"><g transform="translate(139.257572, 143.604311)"><g><path d="M 14.71875 -13.4375 L 11.765625 -5.921875 C 11.359375 -4.765625 10.988281 -3.570312 10.65625 -2.34375 C 10.332031 -1.113281 9.984375 -0.0351562 9.609375 0.890625 C 9.242188 1.816406 8.679688 2.546875 7.921875 3.078125 C 7.160156 3.609375 6.304688 4.007812 5.359375 4.28125 C 4.410156 4.550781 3.429688 4.664062 2.421875 4.625 C 1.421875 4.582031 0.53125 4.394531 -0.25 4.0625 C -2.007812 3.238281 -2.625 1.882812 -2.09375 0 C -0.207031 -8.289062 1.566406 -14.941406 3.234375 -19.953125 C 4.898438 -24.972656 6.273438 -28.921875 7.359375 -31.796875 C 8.453125 -34.671875 9.59375 -37.707031 10.78125 -40.90625 C 10.90625 -42.09375 11.394531 -43.160156 12.25 -44.109375 C 13.113281 -45.054688 14.128906 -45.835938 15.296875 -46.453125 C 16.472656 -47.066406 17.695312 -47.503906 18.96875 -47.765625 C 20.25 -48.035156 21.378906 -48.066406 22.359375 -47.859375 C 23.347656 -47.660156 24.078125 -47.210938 24.546875 -46.515625 C 25.023438 -45.816406 25.054688 -44.8125 24.640625 -43.5 C 23.160156 -39.71875 22.113281 -37.046875 21.5 -35.484375 C 20.882812 -33.921875 20.332031 -32.523438 19.84375 -31.296875 L 18.109375 -27.234375 C 18.972656 -27.191406 20.0625 -27.3125 21.375 -27.59375 C 23.757812 -28.132812 25.484375 -28.320312 26.546875 -28.15625 C 26.546875 -28.363281 26.648438 -28.710938 26.859375 -29.203125 C 28.015625 -34.210938 29.3125 -38.8125 30.75 -43 C 31.769531 -46.445312 34.414062 -48.253906 38.6875 -48.421875 C 40.375 -48.421875 41.648438 -48.007812 42.515625 -47.1875 C 43.453125 -46.332031 43.570312 -45.164062 42.875 -43.6875 C 39.101562 -33.082031 36.4375 -24.722656 34.875 -18.609375 C 33.101562 -11.546875 31.941406 -6.78125 31.390625 -4.3125 C 30.835938 -1.84375 30.351562 -0.382812 29.9375 0.0625 C 29.53125 0.507812 29.109375 0.828125 28.671875 1.015625 C 28.242188 1.203125 27.820312 1.375 27.40625 1.53125 C 27 1.695312 26.675781 2.109375 26.4375 2.765625 L 26.25 2.765625 C 25.914062 3.503906 25.191406 4.078125 24.078125 4.484375 C 22.972656 4.898438 21.851562 5.054688 20.71875 4.953125 C 19.59375 4.859375 18.648438 4.453125 17.890625 3.734375 C 17.128906 3.015625 16.9375 1.914062 17.3125 0.4375 C 17.71875 -1.90625 18.394531 -4.421875 19.34375 -7.109375 C 20.289062 -9.804688 21.039062 -11.910156 21.59375 -13.421875 C 22.144531 -14.941406 22.609375 -16.363281 22.984375 -17.6875 C 22.648438 -17.519531 22.328125 -17.394531 22.015625 -17.3125 C 21.710938 -17.226562 21.332031 -17.070312 20.875 -16.84375 C 20.425781 -16.625 19.96875 -16.429688 19.5 -16.265625 C 19.03125 -16.097656 18.566406 -15.929688 18.109375 -15.765625 C 16.960938 -15.316406 16.019531 -14.867188 15.28125 -14.421875 Z M 21.6875 -17.5625 C 21.726562 -17.5625 21.929688 -17.625 22.296875 -17.75 C 22.054688 -17.664062 21.851562 -17.601562 21.6875 -17.5625 Z M 21.6875 -17.5625 "/></g></g></g><g fill="#f4d906" fill-opacity="1"><g transform="translate(175.478042, 143.604311)"><g><path d="M 34.8125 -4.921875 C 35.175781 -3.523438 35.09375 -2.363281 34.5625 -1.4375 C 34.03125 -0.519531 33.269531 0.179688 32.28125 0.671875 C 32.28125 0.878906 32.410156 1.382812 32.671875 2.1875 C 32.941406 2.988281 33.160156 3.65625 33.328125 4.1875 C 33.703125 5.300781 33.804688 6.304688 33.640625 7.203125 C 33.191406 8.765625 32.039062 9.609375 30.1875 9.734375 C 29.40625 9.816406 28.625 9.710938 27.84375 9.421875 C 27.0625 9.140625 26.445312 8.691406 26 8.078125 C 25.914062 8.234375 25.6875 7.890625 25.3125 7.046875 C 24.945312 6.210938 24.539062 5.257812 24.09375 4.1875 L 22.734375 1.484375 C 20.515625 2.179688 18.707031 2.46875 17.3125 2.34375 C 15.132812 2.09375 12.832031 1.492188 10.40625 0.546875 C 7.039062 -0.765625 4.722656 -3.101562 3.453125 -6.46875 C 2.179688 -9.832031 2.015625 -13.960938 2.953125 -18.859375 C 3.410156 -24.609375 4.785156 -29.863281 7.078125 -34.625 C 9.796875 -40.25 13.1875 -43.882812 17.25 -45.53125 C 21.394531 -47.625 24.84375 -48.503906 27.59375 -48.171875 L 28.703125 -48.546875 C 29.328125 -49.617188 30.285156 -50.378906 31.578125 -50.828125 C 32.867188 -51.273438 34.253906 -51.457031 35.734375 -51.375 C 37.210938 -51.300781 38.660156 -50.992188 40.078125 -50.453125 C 41.492188 -49.921875 42.632812 -49.203125 43.5 -48.296875 C 46.570312 -45.296875 47.820312 -40.429688 47.25 -33.703125 C 46.59375 -25.441406 43.597656 -17.71875 38.265625 -10.53125 C 36.984375 -8.8125 35.601562 -7.210938 34.125 -5.734375 Z M 17.125 -6.21875 C 16.71875 -7.738281 16.515625 -8.953125 16.515625 -9.859375 C 16.429688 -9.941406 16.390625 -10.046875 16.390625 -10.171875 L 16.390625 -10.234375 C 16.347656 -10.265625 16.328125 -10.320312 16.328125 -10.40625 L 16.390625 -10.40625 C 16.472656 -12.46875 17.519531 -13.828125 19.53125 -14.484375 C 20.757812 -15.140625 22.113281 -15.414062 23.59375 -15.3125 C 25.070312 -15.207031 26.40625 -14.742188 27.59375 -13.921875 C 28.007812 -14.617188 28.359375 -15.253906 28.640625 -15.828125 L 29.390625 -17.3125 C 32.960938 -24.863281 33.863281 -31.289062 32.09375 -36.59375 C 30.863281 -35.769531 29.519531 -35.222656 28.0625 -34.953125 C 26.601562 -34.691406 25.257812 -34.664062 24.03125 -34.875 C 23.125 -34.09375 22.269531 -33.15625 21.46875 -32.0625 C 20.664062 -30.976562 20.109375 -30.226562 19.796875 -29.8125 C 19.492188 -29.40625 18.960938 -28.535156 18.203125 -27.203125 C 17.441406 -25.867188 16.710938 -24.398438 16.015625 -22.796875 C 15.316406 -21.191406 14.722656 -19.535156 14.234375 -17.828125 C 13.742188 -16.128906 13.476562 -14.519531 13.4375 -13 C 13.351562 -9.550781 14.582031 -7.289062 17.125 -6.21875 Z M 17.125 -6.21875 "/></g></g></g><g fill="#ffffff" fill-opacity="1"><g transform="translate(59.908886, 159.464446)"><g><path d="M 2.328125 -0.09375 C 1.921875 -0.207031 1.566406 -0.398438 1.265625 -0.671875 C 0.972656 -0.953125 0.742188 -1.285156 0.578125 -1.671875 C 0.421875 -2.054688 0.34375 -2.46875 0.34375 -2.90625 C 0.34375 -4.144531 0.820312 -5.050781 1.78125 -5.625 C 2.46875 -6.03125 3.140625 -6.21875 3.796875 -6.1875 C 4.453125 -6.164062 5.097656 -5.890625 5.734375 -5.359375 C 5.878906 -5.242188 5.945312 -5.125 5.9375 -5 C 5.9375 -4.882812 5.894531 -4.78125 5.8125 -4.6875 C 5.726562 -4.601562 5.625 -4.539062 5.5 -4.5 C 5.382812 -4.457031 5.28125 -4.460938 5.1875 -4.515625 C 4.894531 -4.660156 4.625 -4.78125 4.375 -4.875 C 4.125 -4.976562 3.875 -5.035156 3.625 -5.046875 C 3.375 -5.066406 3.109375 -5.019531 2.828125 -4.90625 C 2.554688 -4.800781 2.253906 -4.617188 1.921875 -4.359375 C 1.710938 -4.191406 1.554688 -3.992188 1.453125 -3.765625 C 1.347656 -3.535156 1.285156 -3.300781 1.265625 -3.0625 C 1.253906 -2.820312 1.285156 -2.585938 1.359375 -2.359375 C 1.429688 -2.140625 1.539062 -1.945312 1.6875 -1.78125 C 2.007812 -1.425781 2.359375 -1.175781 2.734375 -1.03125 C 3.117188 -0.894531 3.550781 -0.859375 4.03125 -0.921875 C 4.195312 -0.941406 4.363281 -0.96875 4.53125 -1 C 4.695312 -1.039062 4.898438 -1.097656 5.140625 -1.171875 C 5.367188 -1.253906 5.550781 -1.300781 5.6875 -1.3125 C 5.832031 -1.332031 5.945312 -1.253906 6.03125 -1.078125 C 6.09375 -0.941406 6.082031 -0.820312 6 -0.71875 C 5.925781 -0.613281 5.804688 -0.523438 5.640625 -0.453125 C 5.253906 -0.285156 4.878906 -0.148438 4.515625 -0.046875 C 4.160156 0.046875 3.804688 0.09375 3.453125 0.09375 C 3.097656 0.09375 2.722656 0.03125 2.328125 -0.09375 Z M 2.328125 -0.09375 "/></g></g></g><g fill="#ffffff" fill-opacity="1"><g transform="translate(66.323523, 159.464446)"><g><path d="M 3.3125 0.125 C 2.894531 0.101562 2.503906 0.015625 2.140625 -0.140625 C 1.785156 -0.304688 1.472656 -0.523438 1.203125 -0.796875 C 0.929688 -1.078125 0.71875 -1.394531 0.5625 -1.75 C 0.414062 -2.113281 0.34375 -2.507812 0.34375 -2.9375 C 0.34375 -3.3125 0.414062 -3.664062 0.5625 -4 C 0.71875 -4.332031 0.921875 -4.632812 1.171875 -4.90625 C 1.421875 -5.175781 1.703125 -5.40625 2.015625 -5.59375 C 2.335938 -5.789062 2.664062 -5.941406 3 -6.046875 C 3.34375 -6.160156 3.671875 -6.21875 3.984375 -6.21875 C 4.398438 -6.21875 4.785156 -6.132812 5.140625 -5.96875 C 5.503906 -5.800781 5.820312 -5.578125 6.09375 -5.296875 C 6.363281 -5.015625 6.578125 -4.6875 6.734375 -4.3125 C 6.890625 -3.945312 6.96875 -3.5625 6.96875 -3.15625 C 6.96875 -2.675781 6.867188 -2.234375 6.671875 -1.828125 C 6.472656 -1.421875 6.203125 -1.066406 5.859375 -0.765625 C 5.515625 -0.460938 5.125 -0.234375 4.6875 -0.078125 C 4.25 0.078125 3.789062 0.144531 3.3125 0.125 Z M 1.65625 -3.109375 C 1.65625 -2.796875 1.703125 -2.488281 1.796875 -2.1875 C 1.898438 -1.894531 2.046875 -1.625 2.234375 -1.375 C 2.421875 -1.132812 2.640625 -0.953125 2.890625 -0.828125 C 3.148438 -0.703125 3.425781 -0.65625 3.71875 -0.6875 C 4.007812 -0.726562 4.289062 -0.804688 4.5625 -0.921875 C 4.832031 -1.035156 5.070312 -1.1875 5.28125 -1.375 C 5.488281 -1.5625 5.640625 -1.785156 5.734375 -2.046875 C 5.835938 -2.304688 5.863281 -2.601562 5.8125 -2.9375 C 5.757812 -3.351562 5.65625 -3.738281 5.5 -4.09375 C 5.34375 -4.445312 5.113281 -4.734375 4.8125 -4.953125 C 4.519531 -5.179688 4.140625 -5.296875 3.671875 -5.296875 C 3.296875 -5.296875 2.953125 -5.195312 2.640625 -5 C 2.335938 -4.800781 2.097656 -4.535156 1.921875 -4.203125 C 1.742188 -3.878906 1.65625 -3.515625 1.65625 -3.109375 Z M 1.65625 -3.109375 "/></g></g></g><g fill="#ffffff" fill-opacity="1"><g transform="translate(73.641027, 159.464446)"><g><path d="M 7.703125 0.125 C 7.609375 0.125 7.535156 0.0976562 7.484375 0.046875 C 7.429688 0.00390625 7.390625 -0.0546875 7.359375 -0.140625 L 6 -4.234375 C 5.988281 -4.285156 5.960938 -4.3125 5.921875 -4.3125 C 5.890625 -4.3125 5.859375 -4.289062 5.828125 -4.25 C 5.710938 -4.039062 5.5625 -3.773438 5.375 -3.453125 C 5.195312 -3.140625 5.015625 -2.734375 4.828125 -2.234375 C 4.734375 -1.992188 4.613281 -1.835938 4.46875 -1.765625 C 4.320312 -1.691406 4.144531 -1.671875 3.9375 -1.703125 C 3.851562 -1.710938 3.796875 -1.734375 3.765625 -1.765625 C 3.734375 -1.796875 3.695312 -1.84375 3.65625 -1.90625 L 2.546875 -4.515625 C 2.523438 -4.566406 2.492188 -4.585938 2.453125 -4.578125 C 2.410156 -4.578125 2.378906 -4.554688 2.359375 -4.515625 C 2.304688 -4.328125 2.238281 -4.085938 2.15625 -3.796875 C 2.070312 -3.503906 1.984375 -3.179688 1.890625 -2.828125 C 1.796875 -2.472656 1.707031 -2.117188 1.625 -1.765625 C 1.539062 -1.421875 1.46875 -1.097656 1.40625 -0.796875 C 1.394531 -0.753906 1.375 -0.679688 1.34375 -0.578125 C 1.320312 -0.472656 1.28125 -0.367188 1.21875 -0.265625 C 1.15625 -0.171875 1.078125 -0.101562 0.984375 -0.0625 C 0.890625 -0.03125 0.789062 -0.0234375 0.6875 -0.046875 C 0.59375 -0.0664062 0.507812 -0.109375 0.4375 -0.171875 C 0.375 -0.234375 0.34375 -0.304688 0.34375 -0.390625 C 0.34375 -0.492188 0.363281 -0.628906 0.40625 -0.796875 C 0.445312 -0.972656 0.507812 -1.210938 0.59375 -1.515625 C 0.675781 -1.816406 0.78125 -2.210938 0.90625 -2.703125 C 1.09375 -3.378906 1.234375 -3.921875 1.328125 -4.328125 C 1.429688 -4.742188 1.503906 -5.019531 1.546875 -5.15625 C 1.628906 -5.46875 1.722656 -5.703125 1.828125 -5.859375 C 1.941406 -6.023438 2.054688 -6.132812 2.171875 -6.1875 C 2.285156 -6.25 2.390625 -6.269531 2.484375 -6.25 C 2.578125 -6.238281 2.65625 -6.207031 2.71875 -6.15625 C 2.78125 -6.113281 2.820312 -6.078125 2.84375 -6.046875 L 4.15625 -3.375 L 4.21875 -3.25 C 4.414062 -3.707031 4.570312 -4.082031 4.6875 -4.375 C 4.8125 -4.664062 4.898438 -4.863281 4.953125 -4.96875 C 5.097656 -5.28125 5.238281 -5.515625 5.375 -5.671875 C 5.519531 -5.835938 5.648438 -5.945312 5.765625 -6 C 5.890625 -6.050781 6 -6.070312 6.09375 -6.0625 C 6.1875 -6.050781 6.257812 -6.019531 6.3125 -5.96875 C 6.375 -5.925781 6.410156 -5.894531 6.421875 -5.875 L 7.859375 -1.671875 L 8.21875 -0.53125 C 8.269531 -0.3125 8.289062 -0.15625 8.28125 -0.0625 C 8.28125 0.03125 8.234375 0.0820312 8.140625 0.09375 C 8.054688 0.113281 7.910156 0.125 7.703125 0.125 Z M 7.703125 0.125 "/></g></g></g><g fill="#ffffff" fill-opacity="1"><g transform="translate(82.282727, 159.464446)"><g><path d="M 0.796875 0.09375 C 0.566406 0.0625 0.453125 -0.117188 0.453125 -0.453125 C 0.453125 -0.878906 0.445312 -1.21875 0.4375 -1.46875 C 0.4375 -1.726562 0.429688 -1.9375 0.421875 -2.09375 C 0.410156 -2.257812 0.398438 -2.398438 0.390625 -2.515625 C 0.390625 -2.640625 0.382812 -2.769531 0.375 -2.90625 C 0.363281 -3.050781 0.351562 -3.238281 0.34375 -3.46875 C 0.34375 -3.695312 0.34375 -4 0.34375 -4.375 C 0.34375 -4.820312 0.59375 -5.015625 1.09375 -4.953125 C 1.300781 -4.921875 1.40625 -4.835938 1.40625 -4.703125 C 1.40625 -4.234375 1.410156 -3.800781 1.421875 -3.40625 C 1.429688 -3.019531 1.4375 -2.59375 1.4375 -2.125 C 1.4375 -1.8125 1.4375 -1.566406 1.4375 -1.390625 C 1.4375 -1.210938 1.429688 -1.082031 1.421875 -1 C 1.421875 -0.925781 1.421875 -0.863281 1.421875 -0.8125 C 1.421875 -0.769531 1.414062 -0.71875 1.40625 -0.65625 C 1.40625 -0.59375 1.40625 -0.488281 1.40625 -0.34375 C 1.40625 -0.1875 1.367188 -0.078125 1.296875 -0.015625 C 1.222656 0.046875 1.140625 0.0820312 1.046875 0.09375 C 0.953125 0.101562 0.867188 0.101562 0.796875 0.09375 Z M 0.40625 -5.734375 C 0.40625 -5.847656 0.445312 -5.953125 0.53125 -6.046875 C 0.601562 -6.128906 0.703125 -6.179688 0.828125 -6.203125 C 0.984375 -6.222656 1.113281 -6.191406 1.21875 -6.109375 C 1.332031 -6.023438 1.398438 -5.90625 1.421875 -5.75 C 1.429688 -5.664062 1.4375 -5.585938 1.4375 -5.515625 C 1.4375 -5.453125 1.410156 -5.398438 1.359375 -5.359375 C 1.335938 -5.328125 1.296875 -5.296875 1.234375 -5.265625 C 1.179688 -5.234375 1.109375 -5.210938 1.015625 -5.203125 C 0.972656 -5.191406 0.921875 -5.1875 0.859375 -5.1875 C 0.804688 -5.1875 0.742188 -5.195312 0.671875 -5.21875 C 0.566406 -5.25 0.492188 -5.316406 0.453125 -5.421875 C 0.410156 -5.535156 0.394531 -5.640625 0.40625 -5.734375 Z M 0.40625 -5.734375 "/></g></g></g><g fill="#ffffff" fill-opacity="1"><g transform="translate(84.071257, 159.464446)"><g><path d="M 2.328125 -0.09375 C 1.921875 -0.207031 1.566406 -0.398438 1.265625 -0.671875 C 0.972656 -0.953125 0.742188 -1.285156 0.578125 -1.671875 C 0.421875 -2.054688 0.34375 -2.46875 0.34375 -2.90625 C 0.34375 -4.144531 0.820312 -5.050781 1.78125 -5.625 C 2.46875 -6.03125 3.140625 -6.21875 3.796875 -6.1875 C 4.453125 -6.164062 5.097656 -5.890625 5.734375 -5.359375 C 5.878906 -5.242188 5.945312 -5.125 5.9375 -5 C 5.9375 -4.882812 5.894531 -4.78125 5.8125 -4.6875 C 5.726562 -4.601562 5.625 -4.539062 5.5 -4.5 C 5.382812 -4.457031 5.28125 -4.460938 5.1875 -4.515625 C 4.894531 -4.660156 4.625 -4.78125 4.375 -4.875 C 4.125 -4.976562 3.875 -5.035156 3.625 -5.046875 C 3.375 -5.066406 3.109375 -5.019531 2.828125 -4.90625 C 2.554688 -4.800781 2.253906 -4.617188 1.921875 -4.359375 C 1.710938 -4.191406 1.554688 -3.992188 1.453125 -3.765625 C 1.347656 -3.535156 1.285156 -3.300781 1.265625 -3.0625 C 1.253906 -2.820312 1.285156 -2.585938 1.359375 -2.359375 C 1.429688 -2.140625 1.539062 -1.945312 1.6875 -1.78125 C 2.007812 -1.425781 2.359375 -1.175781 2.734375 -1.03125 C 3.117188 -0.894531 3.550781 -0.859375 4.03125 -0.921875 C 4.195312 -0.941406 4.363281 -0.96875 4.53125 -1 C 4.695312 -1.039062 4.898438 -1.097656 5.140625 -1.171875 C 5.367188 -1.253906 5.550781 -1.300781 5.6875 -1.3125 C 5.832031 -1.332031 5.945312 -1.253906 6.03125 -1.078125 C 6.09375 -0.941406 6.082031 -0.820312 6 -0.71875 C 5.925781 -0.613281 5.804688 -0.523438 5.640625 -0.453125 C 5.253906 -0.285156 4.878906 -0.148438 4.515625 -0.046875 C 4.160156 0.046875 3.804688 0.09375 3.453125 0.09375 C 3.097656 0.09375 2.722656 0.03125 2.328125 -0.09375 Z M 2.328125 -0.09375 "/></g></g></g><g fill="#ffffff" fill-opacity="1"><g transform="translate(90.485893, 159.464446)"><g/></g></g><g fill="#ffffff" fill-opacity="1"><g transform="translate(93.753403, 159.464446)"><g><path d="M 5.53125 -1.0625 C 5.382812 -0.78125 5.171875 -0.554688 4.890625 -0.390625 C 4.617188 -0.234375 4.3125 -0.125 3.96875 -0.0625 C 3.625 -0.0078125 3.265625 0.00390625 2.890625 -0.015625 C 2.523438 -0.0351562 2.175781 -0.0820312 1.84375 -0.15625 C 1.507812 -0.238281 1.21875 -0.34375 0.96875 -0.46875 C 0.726562 -0.59375 0.550781 -0.722656 0.4375 -0.859375 C 0.320312 -1.003906 0.304688 -1.148438 0.390625 -1.296875 L 0.453125 -1.40625 C 0.515625 -1.507812 0.601562 -1.570312 0.71875 -1.59375 C 0.832031 -1.625 0.945312 -1.601562 1.0625 -1.53125 C 1.132812 -1.5 1.257812 -1.453125 1.4375 -1.390625 C 1.613281 -1.328125 1.820312 -1.265625 2.0625 -1.203125 C 2.300781 -1.148438 2.550781 -1.109375 2.8125 -1.078125 C 3.070312 -1.046875 3.320312 -1.035156 3.5625 -1.046875 C 3.800781 -1.066406 4.007812 -1.117188 4.1875 -1.203125 C 4.363281 -1.296875 4.492188 -1.425781 4.578125 -1.59375 C 4.609375 -1.757812 4.550781 -1.894531 4.40625 -2 C 4.269531 -2.101562 4.070312 -2.191406 3.8125 -2.265625 C 3.5625 -2.335938 3.28125 -2.40625 2.96875 -2.46875 C 2.664062 -2.53125 2.359375 -2.601562 2.046875 -2.6875 C 1.742188 -2.769531 1.472656 -2.878906 1.234375 -3.015625 C 1.003906 -3.148438 0.832031 -3.320312 0.71875 -3.53125 C 0.644531 -3.664062 0.597656 -3.835938 0.578125 -4.046875 C 0.566406 -4.265625 0.585938 -4.488281 0.640625 -4.71875 C 0.703125 -4.957031 0.816406 -5.179688 0.984375 -5.390625 C 1.148438 -5.597656 1.378906 -5.769531 1.671875 -5.90625 C 1.972656 -6.050781 2.351562 -6.132812 2.8125 -6.15625 C 3.007812 -6.164062 3.222656 -6.15625 3.453125 -6.125 C 3.691406 -6.09375 3.925781 -6.050781 4.15625 -6 C 4.394531 -5.945312 4.609375 -5.878906 4.796875 -5.796875 C 4.992188 -5.710938 5.148438 -5.625 5.265625 -5.53125 C 5.378906 -5.4375 5.429688 -5.332031 5.421875 -5.21875 L 5.421875 -5.109375 C 5.410156 -4.992188 5.347656 -4.910156 5.234375 -4.859375 C 5.128906 -4.804688 5.023438 -4.800781 4.921875 -4.84375 C 4.835938 -4.875 4.707031 -4.910156 4.53125 -4.953125 C 4.351562 -5.003906 4.144531 -5.046875 3.90625 -5.078125 C 3.664062 -5.117188 3.421875 -5.144531 3.171875 -5.15625 C 2.921875 -5.175781 2.679688 -5.171875 2.453125 -5.140625 C 2.234375 -5.109375 2.046875 -5.039062 1.890625 -4.9375 C 1.742188 -4.832031 1.648438 -4.679688 1.609375 -4.484375 C 1.585938 -4.304688 1.640625 -4.148438 1.765625 -4.015625 C 1.890625 -3.890625 2.0625 -3.78125 2.28125 -3.6875 C 2.507812 -3.601562 2.75 -3.53125 3 -3.46875 C 3.257812 -3.40625 3.5 -3.351562 3.71875 -3.3125 C 3.945312 -3.28125 4.125 -3.253906 4.25 -3.234375 C 4.601562 -3.148438 4.878906 -3.03125 5.078125 -2.875 C 5.285156 -2.71875 5.429688 -2.546875 5.515625 -2.359375 C 5.597656 -2.171875 5.644531 -1.988281 5.65625 -1.8125 C 5.664062 -1.644531 5.648438 -1.488281 5.609375 -1.34375 C 5.578125 -1.207031 5.550781 -1.113281 5.53125 -1.0625 Z M 5.53125 -1.0625 "/></g></g></g><g fill="#ffffff" fill-opacity="1"><g transform="translate(99.763899, 159.464446)"><g><path d="M 3.140625 0.1875 C 2.890625 0.21875 2.695312 0.21875 2.5625 0.1875 C 2.4375 0.15625 2.375 0.0234375 2.375 -0.203125 C 2.375 -0.390625 2.375 -0.617188 2.375 -0.890625 C 2.375 -1.160156 2.375 -1.453125 2.375 -1.765625 C 2.375 -2.085938 2.375 -2.40625 2.375 -2.71875 C 2.382812 -3.09375 2.394531 -3.382812 2.40625 -3.59375 C 2.414062 -3.8125 2.421875 -3.984375 2.421875 -4.109375 C 2.429688 -4.234375 2.429688 -4.359375 2.421875 -4.484375 L 2.40625 -5.109375 C 2.226562 -5.097656 2.054688 -5.082031 1.890625 -5.0625 C 1.722656 -5.050781 1.554688 -5.03125 1.390625 -5 C 1.296875 -4.988281 1.1875 -4.976562 1.0625 -4.96875 C 0.945312 -4.957031 0.832031 -4.960938 0.71875 -4.984375 C 0.601562 -5.003906 0.515625 -5.050781 0.453125 -5.125 C 0.347656 -5.226562 0.316406 -5.359375 0.359375 -5.515625 C 0.378906 -5.628906 0.441406 -5.738281 0.546875 -5.84375 C 0.660156 -5.945312 0.820312 -6.019531 1.03125 -6.0625 C 2.019531 -6.207031 3.007812 -6.222656 4 -6.109375 L 4.9375 -5.984375 C 5.101562 -5.960938 5.234375 -5.90625 5.328125 -5.8125 C 5.421875 -5.726562 5.46875 -5.617188 5.46875 -5.484375 C 5.46875 -5.421875 5.453125 -5.351562 5.421875 -5.28125 C 5.390625 -5.21875 5.332031 -5.164062 5.25 -5.125 C 5.175781 -5.082031 5.066406 -5.070312 4.921875 -5.09375 L 3.359375 -5.109375 C 3.367188 -4.992188 3.375 -4.863281 3.375 -4.71875 C 3.382812 -4.582031 3.394531 -4.398438 3.40625 -4.171875 C 3.414062 -3.941406 3.421875 -3.632812 3.421875 -3.25 C 3.429688 -2.9375 3.429688 -2.601562 3.421875 -2.25 C 3.421875 -1.90625 3.421875 -1.554688 3.421875 -1.203125 C 3.421875 -0.847656 3.421875 -0.515625 3.421875 -0.203125 C 3.429688 -0.128906 3.410156 -0.0507812 3.359375 0.03125 C 3.304688 0.125 3.234375 0.175781 3.140625 0.1875 Z M 3.140625 0.1875 "/></g></g></g><g fill="#ffffff" fill-opacity="1"><g transform="translate(105.576629, 159.464446)"><g><path d="M 3.3125 0.125 C 2.894531 0.101562 2.503906 0.015625 2.140625 -0.140625 C 1.785156 -0.304688 1.472656 -0.523438 1.203125 -0.796875 C 0.929688 -1.078125 0.71875 -1.394531 0.5625 -1.75 C 0.414062 -2.113281 0.34375 -2.507812 0.34375 -2.9375 C 0.34375 -3.3125 0.414062 -3.664062 0.5625 -4 C 0.71875 -4.332031 0.921875 -4.632812 1.171875 -4.90625 C 1.421875 -5.175781 1.703125 -5.40625 2.015625 -5.59375 C 2.335938 -5.789062 2.664062 -5.941406 3 -6.046875 C 3.34375 -6.160156 3.671875 -6.21875 3.984375 -6.21875 C 4.398438 -6.21875 4.785156 -6.132812 5.140625 -5.96875 C 5.503906 -5.800781 5.820312 -5.578125 6.09375 -5.296875 C 6.363281 -5.015625 6.578125 -4.6875 6.734375 -4.3125 C 6.890625 -3.945312 6.96875 -3.5625 6.96875 -3.15625 C 6.96875 -2.675781 6.867188 -2.234375 6.671875 -1.828125 C 6.472656 -1.421875 6.203125 -1.066406 5.859375 -0.765625 C 5.515625 -0.460938 5.125 -0.234375 4.6875 -0.078125 C 4.25 0.078125 3.789062 0.144531 3.3125 0.125 Z M 1.65625 -3.109375 C 1.65625 -2.796875 1.703125 -2.488281 1.796875 -2.1875 C 1.898438 -1.894531 2.046875 -1.625 2.234375 -1.375 C 2.421875 -1.132812 2.640625 -0.953125 2.890625 -0.828125 C 3.148438 -0.703125 3.425781 -0.65625 3.71875 -0.6875 C 4.007812 -0.726562 4.289062 -0.804688 4.5625 -0.921875 C 4.832031 -1.035156 5.070312 -1.1875 5.28125 -1.375 C 5.488281 -1.5625 5.640625 -1.785156 5.734375 -2.046875 C 5.835938 -2.304688 5.863281 -2.601562 5.8125 -2.9375 C 5.757812 -3.351562 5.65625 -3.738281 5.5 -4.09375 C 5.34375 -4.445312 5.113281 -4.734375 4.8125 -4.953125 C 4.519531 -5.179688 4.140625 -5.296875 3.671875 -5.296875 C 3.296875 -5.296875 2.953125 -5.195312 2.640625 -5 C 2.335938 -4.800781 2.097656 -4.535156 1.921875 -4.203125 C 1.742188 -3.878906 1.65625 -3.515625 1.65625 -3.109375 Z M 1.65625 -3.109375 "/></g></g></g><g fill="#ffffff" fill-opacity="1"><g transform="translate(112.894133, 159.464446)"><g><path d="M 1.5 0.0625 C 1.425781 0.09375 1.332031 0.109375 1.21875 0.109375 C 1.101562 0.109375 0.988281 0.09375 0.875 0.0625 C 0.769531 0.03125 0.6875 -0.0195312 0.625 -0.09375 C 0.5625 -0.207031 0.515625 -1.546875 0.484375 -4.109375 C 0.304688 -4.378906 0.296875 -4.632812 0.453125 -4.875 C 0.609375 -5.113281 0.878906 -5.34375 1.265625 -5.5625 C 1.753906 -5.832031 2.238281 -6.007812 2.71875 -6.09375 C 3.195312 -6.1875 3.65625 -6.164062 4.09375 -6.03125 C 4.53125 -5.894531 4.925781 -5.632812 5.28125 -5.25 C 5.75 -4.75 5.984375 -4.207031 5.984375 -3.625 C 5.984375 -2.726562 5.441406 -2.117188 4.359375 -1.796875 L 4.234375 -1.765625 C 4.398438 -1.503906 4.566406 -1.28125 4.734375 -1.09375 C 4.910156 -0.914062 5.054688 -0.773438 5.171875 -0.671875 C 5.296875 -0.566406 5.375 -0.5 5.40625 -0.46875 C 5.53125 -0.351562 5.597656 -0.25 5.609375 -0.15625 C 5.628906 -0.0703125 5.613281 -0.00390625 5.5625 0.046875 C 5.519531 0.109375 5.460938 0.148438 5.390625 0.171875 C 5.328125 0.203125 5.273438 0.21875 5.234375 0.21875 C 5.160156 0.207031 5.03125 0.160156 4.84375 0.078125 C 4.65625 -0.00390625 4.429688 -0.175781 4.171875 -0.4375 C 3.941406 -0.65625 3.757812 -0.832031 3.625 -0.96875 C 3.488281 -1.113281 3.375 -1.226562 3.28125 -1.3125 C 3.1875 -1.394531 3.085938 -1.453125 2.984375 -1.484375 C 2.890625 -1.523438 2.765625 -1.550781 2.609375 -1.5625 C 2.453125 -1.570312 2.25 -1.578125 2 -1.578125 L 1.625 -1.578125 C 1.632812 -1.535156 1.640625 -1.453125 1.640625 -1.328125 C 1.648438 -1.210938 1.664062 -1.0625 1.6875 -0.875 C 1.71875 -0.707031 1.734375 -0.570312 1.734375 -0.46875 C 1.742188 -0.363281 1.75 -0.269531 1.75 -0.1875 C 1.75 -0.0703125 1.664062 0.0078125 1.5 0.0625 Z M 1.46875 -4.671875 C 1.445312 -4.347656 1.4375 -3.988281 1.4375 -3.59375 C 1.4375 -3.195312 1.453125 -2.832031 1.484375 -2.5 C 1.773438 -2.445312 2.082031 -2.410156 2.40625 -2.390625 C 2.738281 -2.378906 3.054688 -2.390625 3.359375 -2.421875 C 3.660156 -2.460938 3.929688 -2.535156 4.171875 -2.640625 C 4.421875 -2.742188 4.613281 -2.882812 4.75 -3.0625 C 4.894531 -3.25 4.96875 -3.476562 4.96875 -3.75 C 4.96875 -3.957031 4.910156 -4.140625 4.796875 -4.296875 C 4.691406 -4.460938 4.550781 -4.601562 4.375 -4.71875 C 4.195312 -4.84375 4.007812 -4.945312 3.8125 -5.03125 C 3.613281 -5.113281 3.425781 -5.171875 3.25 -5.203125 C 2.664062 -5.328125 2.070312 -5.148438 1.46875 -4.671875 Z M 1.46875 -4.671875 "/></g></g></g><g fill="#ffffff" fill-opacity="1"><g transform="translate(119.222786, 159.464446)"><g><path d="M 1.609375 -0.125 C 1.316406 -0.144531 1.097656 -0.226562 0.953125 -0.375 C 0.816406 -0.519531 0.722656 -0.707031 0.671875 -0.9375 C 0.628906 -1.164062 0.609375 -1.421875 0.609375 -1.703125 C 0.617188 -1.992188 0.625 -2.300781 0.625 -2.625 C 0.539062 -2.65625 0.484375 -2.691406 0.453125 -2.734375 C 0.410156 -2.785156 0.378906 -2.847656 0.359375 -2.921875 C 0.347656 -2.992188 0.347656 -3.066406 0.359375 -3.140625 C 0.367188 -3.210938 0.394531 -3.28125 0.4375 -3.34375 C 0.476562 -3.414062 0.535156 -3.484375 0.609375 -3.546875 C 0.609375 -3.898438 0.601562 -4.21875 0.59375 -4.5 C 0.59375 -4.78125 0.597656 -5.015625 0.609375 -5.203125 C 0.609375 -5.390625 0.617188 -5.550781 0.640625 -5.6875 C 0.660156 -5.832031 0.71875 -5.945312 0.8125 -6.03125 C 0.914062 -6.113281 1.085938 -6.148438 1.328125 -6.140625 L 1.40625 -6.125 C 2.226562 -6.238281 3.039062 -6.242188 3.84375 -6.140625 L 4.671875 -5.984375 C 4.765625 -5.929688 4.863281 -5.863281 4.96875 -5.78125 C 5.070312 -5.707031 5.125 -5.609375 5.125 -5.484375 C 5.125 -5.390625 5.085938 -5.296875 5.015625 -5.203125 C 4.953125 -5.117188 4.820312 -5.09375 4.625 -5.125 L 3.859375 -5.1875 C 3.472656 -5.207031 3.097656 -5.207031 2.734375 -5.1875 C 2.367188 -5.175781 2.019531 -5.140625 1.6875 -5.078125 C 1.675781 -4.921875 1.671875 -4.726562 1.671875 -4.5 C 1.671875 -4.269531 1.671875 -4.03125 1.671875 -3.78125 C 2.265625 -3.820312 2.859375 -3.804688 3.453125 -3.734375 L 4.21875 -3.5625 C 4.3125 -3.519531 4.40625 -3.457031 4.5 -3.375 C 4.601562 -3.289062 4.65625 -3.1875 4.65625 -3.0625 C 4.65625 -2.96875 4.625 -2.875 4.5625 -2.78125 C 4.5 -2.695312 4.375 -2.675781 4.1875 -2.71875 L 3.4375 -2.765625 C 3.125 -2.785156 2.820312 -2.789062 2.53125 -2.78125 C 2.25 -2.769531 1.972656 -2.75 1.703125 -2.71875 C 1.710938 -2.476562 1.71875 -2.253906 1.71875 -2.046875 C 1.726562 -1.835938 1.734375 -1.648438 1.734375 -1.484375 C 1.722656 -1.328125 1.765625 -1.210938 1.859375 -1.140625 C 1.953125 -1.066406 2.070312 -1.019531 2.21875 -1 C 2.375 -0.976562 2.535156 -0.972656 2.703125 -0.984375 C 2.878906 -1.003906 3.050781 -1.03125 3.21875 -1.0625 C 3.257812 -1.070312 3.34375 -1.082031 3.46875 -1.09375 C 3.601562 -1.113281 3.753906 -1.128906 3.921875 -1.140625 C 4.085938 -1.160156 4.234375 -1.171875 4.359375 -1.171875 C 4.492188 -1.179688 4.578125 -1.1875 4.609375 -1.1875 C 4.773438 -1.164062 4.875 -1.097656 4.90625 -0.984375 C 4.9375 -0.867188 4.914062 -0.75 4.84375 -0.625 C 4.78125 -0.5 4.675781 -0.398438 4.53125 -0.328125 C 4.382812 -0.265625 4.179688 -0.210938 3.921875 -0.171875 C 3.671875 -0.140625 3.394531 -0.113281 3.09375 -0.09375 C 2.800781 -0.0820312 2.519531 -0.078125 2.25 -0.078125 C 1.988281 -0.0859375 1.773438 -0.101562 1.609375 -0.125 Z M 1.609375 -0.125 "/></g></g></g><g fill="#ffffff" fill-opacity="1"><g transform="translate(124.691566, 159.464446)"><g/></g></g><g fill="#ffffff" fill-opacity="1"><g transform="translate(127.959076, 159.464446)"><g><path d="M 0.796875 0.09375 C 0.566406 0.0625 0.453125 -0.117188 0.453125 -0.453125 C 0.453125 -0.878906 0.445312 -1.21875 0.4375 -1.46875 C 0.4375 -1.726562 0.429688 -1.9375 0.421875 -2.09375 C 0.410156 -2.257812 0.398438 -2.398438 0.390625 -2.515625 C 0.390625 -2.640625 0.382812 -2.769531 0.375 -2.90625 C 0.363281 -3.050781 0.351562 -3.238281 0.34375 -3.46875 C 0.34375 -3.695312 0.34375 -4 0.34375 -4.375 C 0.34375 -4.820312 0.59375 -5.015625 1.09375 -4.953125 C 1.300781 -4.921875 1.40625 -4.835938 1.40625 -4.703125 C 1.40625 -4.234375 1.410156 -3.800781 1.421875 -3.40625 C 1.429688 -3.019531 1.4375 -2.59375 1.4375 -2.125 C 1.4375 -1.8125 1.4375 -1.566406 1.4375 -1.390625 C 1.4375 -1.210938 1.429688 -1.082031 1.421875 -1 C 1.421875 -0.925781 1.421875 -0.863281 1.421875 -0.8125 C 1.421875 -0.769531 1.414062 -0.71875 1.40625 -0.65625 C 1.40625 -0.59375 1.40625 -0.488281 1.40625 -0.34375 C 1.40625 -0.1875 1.367188 -0.078125 1.296875 -0.015625 C 1.222656 0.046875 1.140625 0.0820312 1.046875 0.09375 C 0.953125 0.101562 0.867188 0.101562 0.796875 0.09375 Z M 0.40625 -5.734375 C 0.40625 -5.847656 0.445312 -5.953125 0.53125 -6.046875 C 0.601562 -6.128906 0.703125 -6.179688 0.828125 -6.203125 C 0.984375 -6.222656 1.113281 -6.191406 1.21875 -6.109375 C 1.332031 -6.023438 1.398438 -5.90625 1.421875 -5.75 C 1.429688 -5.664062 1.4375 -5.585938 1.4375 -5.515625 C 1.4375 -5.453125 1.410156 -5.398438 1.359375 -5.359375 C 1.335938 -5.328125 1.296875 -5.296875 1.234375 -5.265625 C 1.179688 -5.234375 1.109375 -5.210938 1.015625 -5.203125 C 0.972656 -5.191406 0.921875 -5.1875 0.859375 -5.1875 C 0.804688 -5.1875 0.742188 -5.195312 0.671875 -5.21875 C 0.566406 -5.25 0.492188 -5.316406 0.453125 -5.421875 C 0.410156 -5.535156 0.394531 -5.640625 0.40625 -5.734375 Z M 0.40625 -5.734375 "/></g></g></g><g fill="#ffffff" fill-opacity="1"><g transform="translate(129.747606, 159.464446)"><g><path d="M 1.25 0 C 1.175781 0.03125 1.082031 0.0507812 0.96875 0.0625 C 0.863281 0.0820312 0.765625 0.078125 0.671875 0.046875 C 0.578125 0.015625 0.515625 -0.0390625 0.484375 -0.125 C 0.453125 -0.207031 0.425781 -1.003906 0.40625 -2.515625 C 0.40625 -3.203125 0.394531 -3.753906 0.375 -4.171875 C 0.351562 -4.585938 0.34375 -4.863281 0.34375 -5 C 0.34375 -5.3125 0.375 -5.550781 0.4375 -5.71875 C 0.5 -5.894531 0.578125 -6.007812 0.671875 -6.0625 C 0.765625 -6.125 0.863281 -6.148438 0.96875 -6.140625 C 1.070312 -6.140625 1.160156 -6.117188 1.234375 -6.078125 C 1.304688 -6.035156 1.359375 -6 1.390625 -5.96875 L 4.609375 -1.84375 L 4.609375 -3.875 C 4.609375 -4.03125 4.613281 -4.21875 4.625 -4.4375 C 4.644531 -4.664062 4.660156 -4.894531 4.671875 -5.125 C 4.691406 -5.351562 4.71875 -5.554688 4.75 -5.734375 C 4.769531 -5.890625 4.816406 -6 4.890625 -6.0625 C 4.960938 -6.125 5.117188 -6.148438 5.359375 -6.140625 C 5.546875 -6.140625 5.65625 -6.0625 5.6875 -5.90625 C 5.71875 -5.75 5.71875 -5.578125 5.6875 -5.390625 C 5.582031 -4.867188 5.515625 -4.359375 5.484375 -3.859375 C 5.460938 -3.359375 5.457031 -2.847656 5.46875 -2.328125 C 5.488281 -1.816406 5.515625 -1.285156 5.546875 -0.734375 C 5.554688 -0.597656 5.554688 -0.46875 5.546875 -0.34375 C 5.546875 -0.21875 5.503906 -0.125 5.421875 -0.0625 C 5.347656 0 5.207031 0.0195312 5 0 C 4.90625 -0.0078125 4.835938 -0.0234375 4.796875 -0.046875 C 4.765625 -0.078125 4.71875 -0.125 4.65625 -0.1875 L 1.34375 -4.3125 C 1.34375 -4.195312 1.34375 -4.003906 1.34375 -3.734375 C 1.34375 -3.460938 1.347656 -3.148438 1.359375 -2.796875 C 1.378906 -2.441406 1.398438 -2.070312 1.421875 -1.6875 C 1.453125 -1.3125 1.476562 -0.945312 1.5 -0.59375 C 1.507812 -0.519531 1.503906 -0.421875 1.484375 -0.296875 C 1.460938 -0.171875 1.382812 -0.0703125 1.25 0 Z M 1.25 0 "/></g></g></g><g fill="#ffffff" fill-opacity="1"><g transform="translate(135.809697, 159.464446)"><g><path d="M 1.09375 0.0625 C 0.96875 0.0195312 0.890625 -0.0390625 0.859375 -0.125 C 0.828125 -0.207031 0.8125 -0.304688 0.8125 -0.421875 C 0.820312 -0.535156 0.828125 -0.660156 0.828125 -0.796875 C 0.816406 -0.984375 0.804688 -1.203125 0.796875 -1.453125 C 0.796875 -1.710938 0.789062 -1.992188 0.78125 -2.296875 L 0.78125 -2.640625 C 0.601562 -2.640625 0.492188 -2.671875 0.453125 -2.734375 C 0.410156 -2.785156 0.378906 -2.847656 0.359375 -2.921875 C 0.347656 -2.992188 0.347656 -3.066406 0.359375 -3.140625 C 0.378906 -3.234375 0.421875 -3.320312 0.484375 -3.40625 C 0.546875 -3.5 0.640625 -3.578125 0.765625 -3.640625 L 0.765625 -5.015625 C 0.628906 -5.035156 0.535156 -5.082031 0.484375 -5.15625 C 0.390625 -5.25 0.359375 -5.378906 0.390625 -5.546875 C 0.410156 -5.660156 0.472656 -5.769531 0.578125 -5.875 C 0.679688 -5.988281 0.832031 -6.066406 1.03125 -6.109375 C 1.957031 -6.242188 2.875 -6.253906 3.78125 -6.140625 L 4.640625 -5.984375 C 4.742188 -5.929688 4.847656 -5.863281 4.953125 -5.78125 C 5.066406 -5.707031 5.125 -5.609375 5.125 -5.484375 C 5.125 -5.390625 5.085938 -5.296875 5.015625 -5.203125 C 4.941406 -5.117188 4.804688 -5.09375 4.609375 -5.125 L 3.796875 -5.1875 C 3.453125 -5.207031 3.117188 -5.210938 2.796875 -5.203125 C 2.472656 -5.191406 2.160156 -5.164062 1.859375 -5.125 L 1.859375 -3.796875 C 2.117188 -3.804688 2.378906 -3.804688 2.640625 -3.796875 C 2.910156 -3.785156 3.179688 -3.765625 3.453125 -3.734375 C 3.679688 -3.679688 3.851562 -3.632812 3.96875 -3.59375 C 4.082031 -3.550781 4.140625 -3.46875 4.140625 -3.34375 C 4.140625 -3.28125 4.128906 -3.203125 4.109375 -3.109375 C 4.085938 -3.023438 4.046875 -2.953125 3.984375 -2.890625 C 3.929688 -2.828125 3.835938 -2.785156 3.703125 -2.765625 L 1.84375 -2.765625 L 1.84375 -2.421875 C 1.84375 -2.046875 1.84375 -1.765625 1.84375 -1.578125 C 1.84375 -1.390625 1.84375 -1.25 1.84375 -1.15625 C 1.851562 -1.0625 1.863281 -0.972656 1.875 -0.890625 C 1.894531 -0.796875 1.898438 -0.703125 1.890625 -0.609375 C 1.890625 -0.523438 1.875 -0.398438 1.84375 -0.234375 C 1.820312 -0.160156 1.785156 -0.09375 1.734375 -0.03125 C 1.691406 0.0195312 1.632812 0.0507812 1.5625 0.0625 C 1.5 0.09375 1.425781 0.109375 1.34375 0.109375 C 1.257812 0.109375 1.175781 0.09375 1.09375 0.0625 Z M 1.09375 0.0625 "/></g></g></g><g fill="#ffffff" fill-opacity="1"><g transform="translate(141.278477, 159.464446)"><g><path d="M 3.3125 0.125 C 2.894531 0.101562 2.503906 0.015625 2.140625 -0.140625 C 1.785156 -0.304688 1.472656 -0.523438 1.203125 -0.796875 C 0.929688 -1.078125 0.71875 -1.394531 0.5625 -1.75 C 0.414062 -2.113281 0.34375 -2.507812 0.34375 -2.9375 C 0.34375 -3.3125 0.414062 -3.664062 0.5625 -4 C 0.71875 -4.332031 0.921875 -4.632812 1.171875 -4.90625 C 1.421875 -5.175781 1.703125 -5.40625 2.015625 -5.59375 C 2.335938 -5.789062 2.664062 -5.941406 3 -6.046875 C 3.34375 -6.160156 3.671875 -6.21875 3.984375 -6.21875 C 4.398438 -6.21875 4.785156 -6.132812 5.140625 -5.96875 C 5.503906 -5.800781 5.820312 -5.578125 6.09375 -5.296875 C 6.363281 -5.015625 6.578125 -4.6875 6.734375 -4.3125 C 6.890625 -3.945312 6.96875 -3.5625 6.96875 -3.15625 C 6.96875 -2.675781 6.867188 -2.234375 6.671875 -1.828125 C 6.472656 -1.421875 6.203125 -1.066406 5.859375 -0.765625 C 5.515625 -0.460938 5.125 -0.234375 4.6875 -0.078125 C 4.25 0.078125 3.789062 0.144531 3.3125 0.125 Z M 1.65625 -3.109375 C 1.65625 -2.796875 1.703125 -2.488281 1.796875 -2.1875 C 1.898438 -1.894531 2.046875 -1.625 2.234375 -1.375 C 2.421875 -1.132812 2.640625 -0.953125 2.890625 -0.828125 C 3.148438 -0.703125 3.425781 -0.65625 3.71875 -0.6875 C 4.007812 -0.726562 4.289062 -0.804688 4.5625 -0.921875 C 4.832031 -1.035156 5.070312 -1.1875 5.28125 -1.375 C 5.488281 -1.5625 5.640625 -1.785156 5.734375 -2.046875 C 5.835938 -2.304688 5.863281 -2.601562 5.8125 -2.9375 C 5.757812 -3.351562 5.65625 -3.738281 5.5 -4.09375 C 5.34375 -4.445312 5.113281 -4.734375 4.8125 -4.953125 C 4.519531 -5.179688 4.140625 -5.296875 3.671875 -5.296875 C 3.296875 -5.296875 2.953125 -5.195312 2.640625 -5 C 2.335938 -4.800781 2.097656 -4.535156 1.921875 -4.203125 C 1.742188 -3.878906 1.65625 -3.515625 1.65625 -3.109375 Z M 1.65625 -3.109375 "/></g></g></g><g fill="#ffffff" fill-opacity="1"><g transform="translate(148.595981, 159.464446)"><g><path d="M 1.921875 0.078125 C 1.859375 0.0664062 1.800781 0.0546875 1.75 0.046875 C 1.695312 0.046875 1.648438 0.046875 1.609375 0.046875 C 1.585938 0.046875 1.5625 0.0390625 1.53125 0.03125 C 1.507812 0.03125 1.488281 0.03125 1.46875 0.03125 C 1.457031 0.03125 1.441406 0.03125 1.421875 0.03125 C 1.304688 0 1.207031 -0.0351562 1.125 -0.078125 C 1.039062 -0.128906 0.972656 -0.179688 0.921875 -0.234375 C 0.890625 -0.316406 0.859375 -0.664062 0.828125 -1.28125 C 0.796875 -1.90625 0.769531 -2.75 0.75 -3.8125 C 0.65625 -3.8125 0.554688 -3.867188 0.453125 -3.984375 C 0.347656 -4.109375 0.316406 -4.265625 0.359375 -4.453125 C 0.390625 -4.585938 0.445312 -4.734375 0.53125 -4.890625 C 0.613281 -5.054688 0.753906 -5.238281 0.953125 -5.4375 C 1.097656 -5.570312 1.289062 -5.695312 1.53125 -5.8125 C 1.78125 -5.925781 2.050781 -6.015625 2.34375 -6.078125 C 2.632812 -6.140625 2.929688 -6.171875 3.234375 -6.171875 C 3.546875 -6.179688 3.835938 -6.144531 4.109375 -6.0625 C 4.390625 -5.988281 4.632812 -5.863281 4.84375 -5.6875 C 5.257812 -5.3125 5.46875 -4.820312 5.46875 -4.21875 C 5.46875 -3.625 5.097656 -3.117188 4.359375 -2.703125 C 4.492188 -2.648438 4.632812 -2.566406 4.78125 -2.453125 C 4.925781 -2.347656 5.066406 -2.222656 5.203125 -2.078125 C 5.335938 -1.941406 5.445312 -1.796875 5.53125 -1.640625 C 5.613281 -1.492188 5.65625 -1.34375 5.65625 -1.1875 C 5.65625 -0.925781 5.5625 -0.695312 5.375 -0.5 C 5.195312 -0.300781 4.878906 -0.144531 4.421875 -0.03125 C 3.867188 0.113281 3.035156 0.148438 1.921875 0.078125 Z M 1.59375 -3.078125 C 2.289062 -3.046875 2.863281 -3.066406 3.3125 -3.140625 C 3.757812 -3.222656 4.082031 -3.351562 4.28125 -3.53125 C 4.539062 -3.78125 4.671875 -4.019531 4.671875 -4.25 C 4.671875 -4.457031 4.59375 -4.632812 4.4375 -4.78125 C 4.289062 -4.925781 4.101562 -5.039062 3.875 -5.125 C 3.644531 -5.207031 3.421875 -5.253906 3.203125 -5.265625 C 2.929688 -5.285156 2.664062 -5.265625 2.40625 -5.203125 C 2.144531 -5.140625 1.878906 -4.992188 1.609375 -4.765625 C 1.597656 -4.585938 1.585938 -4.390625 1.578125 -4.171875 C 1.578125 -3.953125 1.578125 -3.742188 1.578125 -3.546875 C 1.578125 -3.359375 1.582031 -3.203125 1.59375 -3.078125 Z M 1.6875 -2.109375 C 1.6875 -2.023438 1.691406 -1.898438 1.703125 -1.734375 C 1.710938 -1.566406 1.722656 -1.398438 1.734375 -1.234375 C 1.753906 -1.078125 1.769531 -0.945312 1.78125 -0.84375 C 1.78125 -0.832031 1.847656 -0.820312 1.984375 -0.8125 C 2.128906 -0.800781 2.304688 -0.789062 2.515625 -0.78125 C 2.734375 -0.78125 2.960938 -0.785156 3.203125 -0.796875 C 3.453125 -0.816406 3.679688 -0.84375 3.890625 -0.875 C 4.109375 -0.90625 4.285156 -0.945312 4.421875 -1 C 4.554688 -1.0625 4.625 -1.132812 4.625 -1.21875 C 4.625 -1.332031 4.554688 -1.445312 4.421875 -1.5625 C 4.296875 -1.6875 4.148438 -1.789062 3.984375 -1.875 C 3.796875 -1.976562 3.570312 -2.050781 3.3125 -2.09375 C 3.050781 -2.132812 2.78125 -2.15625 2.5 -2.15625 C 2.21875 -2.15625 1.945312 -2.140625 1.6875 -2.109375 Z M 1.6875 -2.109375 "/></g></g></g><g fill="#ffffff" fill-opacity="1"><g transform="translate(154.597877, 159.464446)"><g><path d="M 5.71875 0.015625 C 5.582031 0.078125 5.460938 0.09375 5.359375 0.0625 C 5.265625 0.03125 5.179688 -0.0234375 5.109375 -0.109375 C 5.046875 -0.191406 4.992188 -0.28125 4.953125 -0.375 L 4.625 -0.96875 C 4.34375 -0.957031 4.09375 -0.957031 3.875 -0.96875 C 3.65625 -0.976562 3.441406 -0.984375 3.234375 -0.984375 C 3.035156 -0.992188 2.8125 -1 2.5625 -1 C 2.3125 -1 2.019531 -0.984375 1.6875 -0.953125 C 1.625 -0.804688 1.539062 -0.65625 1.4375 -0.5 C 1.34375 -0.351562 1.238281 -0.226562 1.125 -0.125 C 1.007812 -0.0195312 0.894531 0.0351562 0.78125 0.046875 C 0.664062 0.0664062 0.5625 0.015625 0.46875 -0.109375 C 0.34375 -0.285156 0.304688 -0.457031 0.359375 -0.625 C 0.421875 -0.800781 0.503906 -0.972656 0.609375 -1.140625 C 0.734375 -1.347656 0.851562 -1.550781 0.96875 -1.75 C 1.082031 -1.957031 1.195312 -2.179688 1.3125 -2.421875 C 1.425781 -2.660156 1.550781 -2.929688 1.6875 -3.234375 C 1.820312 -3.546875 1.972656 -3.90625 2.140625 -4.3125 C 2.304688 -4.726562 2.5 -5.21875 2.71875 -5.78125 C 2.75 -5.882812 2.8125 -5.960938 2.90625 -6.015625 C 3 -6.066406 3.101562 -6.097656 3.21875 -6.109375 C 3.332031 -6.117188 3.4375 -6.109375 3.53125 -6.078125 C 3.632812 -6.046875 3.707031 -5.984375 3.75 -5.890625 C 3.789062 -5.828125 3.847656 -5.710938 3.921875 -5.546875 C 3.992188 -5.378906 4.09375 -5.117188 4.21875 -4.765625 C 4.351562 -4.398438 4.476562 -4.066406 4.59375 -3.765625 C 4.71875 -3.460938 4.84375 -3.164062 4.96875 -2.875 C 5.101562 -2.582031 5.25 -2.273438 5.40625 -1.953125 C 5.570312 -1.628906 5.765625 -1.253906 5.984375 -0.828125 C 6.035156 -0.742188 6.066406 -0.648438 6.078125 -0.546875 C 6.097656 -0.441406 6.082031 -0.335938 6.03125 -0.234375 C 5.976562 -0.140625 5.875 -0.0546875 5.71875 0.015625 Z M 2.109375 -1.875 C 2.347656 -1.894531 2.550781 -1.90625 2.71875 -1.90625 C 2.882812 -1.914062 3.035156 -1.921875 3.171875 -1.921875 C 3.316406 -1.921875 3.472656 -1.921875 3.640625 -1.921875 C 3.804688 -1.921875 4.003906 -1.921875 4.234375 -1.921875 C 4.109375 -2.234375 3.960938 -2.601562 3.796875 -3.03125 C 3.628906 -3.457031 3.410156 -3.992188 3.140625 -4.640625 C 3.085938 -4.484375 3.035156 -4.332031 2.984375 -4.1875 C 2.929688 -4.039062 2.867188 -3.875 2.796875 -3.6875 C 2.734375 -3.5 2.644531 -3.257812 2.53125 -2.96875 C 2.425781 -2.6875 2.285156 -2.320312 2.109375 -1.875 Z M 2.109375 -1.875 "/></g></g></g><g fill="#ffffff" fill-opacity="1"><g transform="translate(161.038308, 159.464446)"><g><path d="M 5.53125 -1.0625 C 5.382812 -0.78125 5.171875 -0.554688 4.890625 -0.390625 C 4.617188 -0.234375 4.3125 -0.125 3.96875 -0.0625 C 3.625 -0.0078125 3.265625 0.00390625 2.890625 -0.015625 C 2.523438 -0.0351562 2.175781 -0.0820312 1.84375 -0.15625 C 1.507812 -0.238281 1.21875 -0.34375 0.96875 -0.46875 C 0.726562 -0.59375 0.550781 -0.722656 0.4375 -0.859375 C 0.320312 -1.003906 0.304688 -1.148438 0.390625 -1.296875 L 0.453125 -1.40625 C 0.515625 -1.507812 0.601562 -1.570312 0.71875 -1.59375 C 0.832031 -1.625 0.945312 -1.601562 1.0625 -1.53125 C 1.132812 -1.5 1.257812 -1.453125 1.4375 -1.390625 C 1.613281 -1.328125 1.820312 -1.265625 2.0625 -1.203125 C 2.300781 -1.148438 2.550781 -1.109375 2.8125 -1.078125 C 3.070312 -1.046875 3.320312 -1.035156 3.5625 -1.046875 C 3.800781 -1.066406 4.007812 -1.117188 4.1875 -1.203125 C 4.363281 -1.296875 4.492188 -1.425781 4.578125 -1.59375 C 4.609375 -1.757812 4.550781 -1.894531 4.40625 -2 C 4.269531 -2.101562 4.070312 -2.191406 3.8125 -2.265625 C 3.5625 -2.335938 3.28125 -2.40625 2.96875 -2.46875 C 2.664062 -2.53125 2.359375 -2.601562 2.046875 -2.6875 C 1.742188 -2.769531 1.472656 -2.878906 1.234375 -3.015625 C 1.003906 -3.148438 0.832031 -3.320312 0.71875 -3.53125 C 0.644531 -3.664062 0.597656 -3.835938 0.578125 -4.046875 C 0.566406 -4.265625 0.585938 -4.488281 0.640625 -4.71875 C 0.703125 -4.957031 0.816406 -5.179688 0.984375 -5.390625 C 1.148438 -5.597656 1.378906 -5.769531 1.671875 -5.90625 C 1.972656 -6.050781 2.351562 -6.132812 2.8125 -6.15625 C 3.007812 -6.164062 3.222656 -6.15625 3.453125 -6.125 C 3.691406 -6.09375 3.925781 -6.050781 4.15625 -6 C 4.394531 -5.945312 4.609375 -5.878906 4.796875 -5.796875 C 4.992188 -5.710938 5.148438 -5.625 5.265625 -5.53125 C 5.378906 -5.4375 5.429688 -5.332031 5.421875 -5.21875 L 5.421875 -5.109375 C 5.410156 -4.992188 5.347656 -4.910156 5.234375 -4.859375 C 5.128906 -4.804688 5.023438 -4.800781 4.921875 -4.84375 C 4.835938 -4.875 4.707031 -4.910156 4.53125 -4.953125 C 4.351562 -5.003906 4.144531 -5.046875 3.90625 -5.078125 C 3.664062 -5.117188 3.421875 -5.144531 3.171875 -5.15625 C 2.921875 -5.175781 2.679688 -5.171875 2.453125 -5.140625 C 2.234375 -5.109375 2.046875 -5.039062 1.890625 -4.9375 C 1.742188 -4.832031 1.648438 -4.679688 1.609375 -4.484375 C 1.585938 -4.304688 1.640625 -4.148438 1.765625 -4.015625 C 1.890625 -3.890625 2.0625 -3.78125 2.28125 -3.6875 C 2.507812 -3.601562 2.75 -3.53125 3 -3.46875 C 3.257812 -3.40625 3.5 -3.351562 3.71875 -3.3125 C 3.945312 -3.28125 4.125 -3.253906 4.25 -3.234375 C 4.601562 -3.148438 4.878906 -3.03125 5.078125 -2.875 C 5.285156 -2.71875 5.429688 -2.546875 5.515625 -2.359375 C 5.597656 -2.171875 5.644531 -1.988281 5.65625 -1.8125 C 5.664062 -1.644531 5.648438 -1.488281 5.609375 -1.34375 C 5.578125 -1.207031 5.550781 -1.113281 5.53125 -1.0625 Z M 5.53125 -1.0625 "/></g></g></g><g fill="#ffffff" fill-opacity="1"><g transform="translate(167.048804, 159.464446)"><g><path d="M 1.609375 -0.125 C 1.316406 -0.144531 1.097656 -0.226562 0.953125 -0.375 C 0.816406 -0.519531 0.722656 -0.707031 0.671875 -0.9375 C 0.628906 -1.164062 0.609375 -1.421875 0.609375 -1.703125 C 0.617188 -1.992188 0.625 -2.300781 0.625 -2.625 C 0.539062 -2.65625 0.484375 -2.691406 0.453125 -2.734375 C 0.410156 -2.785156 0.378906 -2.847656 0.359375 -2.921875 C 0.347656 -2.992188 0.347656 -3.066406 0.359375 -3.140625 C 0.367188 -3.210938 0.394531 -3.28125 0.4375 -3.34375 C 0.476562 -3.414062 0.535156 -3.484375 0.609375 -3.546875 C 0.609375 -3.898438 0.601562 -4.21875 0.59375 -4.5 C 0.59375 -4.78125 0.597656 -5.015625 0.609375 -5.203125 C 0.609375 -5.390625 0.617188 -5.550781 0.640625 -5.6875 C 0.660156 -5.832031 0.71875 -5.945312 0.8125 -6.03125 C 0.914062 -6.113281 1.085938 -6.148438 1.328125 -6.140625 L 1.40625 -6.125 C 2.226562 -6.238281 3.039062 -6.242188 3.84375 -6.140625 L 4.671875 -5.984375 C 4.765625 -5.929688 4.863281 -5.863281 4.96875 -5.78125 C 5.070312 -5.707031 5.125 -5.609375 5.125 -5.484375 C 5.125 -5.390625 5.085938 -5.296875 5.015625 -5.203125 C 4.953125 -5.117188 4.820312 -5.09375 4.625 -5.125 L 3.859375 -5.1875 C 3.472656 -5.207031 3.097656 -5.207031 2.734375 -5.1875 C 2.367188 -5.175781 2.019531 -5.140625 1.6875 -5.078125 C 1.675781 -4.921875 1.671875 -4.726562 1.671875 -4.5 C 1.671875 -4.269531 1.671875 -4.03125 1.671875 -3.78125 C 2.265625 -3.820312 2.859375 -3.804688 3.453125 -3.734375 L 4.21875 -3.5625 C 4.3125 -3.519531 4.40625 -3.457031 4.5 -3.375 C 4.601562 -3.289062 4.65625 -3.1875 4.65625 -3.0625 C 4.65625 -2.96875 4.625 -2.875 4.5625 -2.78125 C 4.5 -2.695312 4.375 -2.675781 4.1875 -2.71875 L 3.4375 -2.765625 C 3.125 -2.785156 2.820312 -2.789062 2.53125 -2.78125 C 2.25 -2.769531 1.972656 -2.75 1.703125 -2.71875 C 1.710938 -2.476562 1.71875 -2.253906 1.71875 -2.046875 C 1.726562 -1.835938 1.734375 -1.648438 1.734375 -1.484375 C 1.722656 -1.328125 1.765625 -1.210938 1.859375 -1.140625 C 1.953125 -1.066406 2.070312 -1.019531 2.21875 -1 C 2.375 -0.976562 2.535156 -0.972656 2.703125 -0.984375 C 2.878906 -1.003906 3.050781 -1.03125 3.21875 -1.0625 C 3.257812 -1.070312 3.34375 -1.082031 3.46875 -1.09375 C 3.601562 -1.113281 3.753906 -1.128906 3.921875 -1.140625 C 4.085938 -1.160156 4.234375 -1.171875 4.359375 -1.171875 C 4.492188 -1.179688 4.578125 -1.1875 4.609375 -1.1875 C 4.773438 -1.164062 4.875 -1.097656 4.90625 -0.984375 C 4.9375 -0.867188 4.914062 -0.75 4.84375 -0.625 C 4.78125 -0.5 4.675781 -0.398438 4.53125 -0.328125 C 4.382812 -0.265625 4.179688 -0.210938 3.921875 -0.171875 C 3.671875 -0.140625 3.394531 -0.113281 3.09375 -0.09375 C 2.800781 -0.0820312 2.519531 -0.078125 2.25 -0.078125 C 1.988281 -0.0859375 1.773438 -0.101562 1.609375 -0.125 Z M 1.609375 -0.125 "/></g></g></g></svg>