<svg xmlns="http://www.w3.org/2000/svg" xmlns:xlink="http://www.w3.org/1999/xlink" width="330" zoomAndPan="magnify" viewBox="0 0 247.5 236.249991" height="315" preserveAspectRatio="xMidYMid meet" version="1.0"><defs><g/><clipPath id="be3112e400"><path d="M 217 148 L 246.859375 148 L 246.859375 159 L 217 159 Z M 217 148 " clip-rule="nonzero"/></clipPath><clipPath id="e56489d6e0"><path d="M 125 190 L 131 190 L 131 235.503906 L 125 235.503906 Z M 125 190 " clip-rule="nonzero"/></clipPath><clipPath id="c49577abd7"><path d="M 0.140625 169 L 25 169 L 25 185 L 0.140625 185 Z M 0.140625 169 " clip-rule="nonzero"/></clipPath><clipPath id="ad456cbfb7"><path d="M 0.140625 87 L 30 87 L 30 98 L 0.140625 98 Z M 0.140625 87 " clip-rule="nonzero"/></clipPath><clipPath id="47bbe48a69"><path d="M 0.140625 70 L 22 70 L 22 83 L 0.140625 83 Z M 0.140625 70 " clip-rule="nonzero"/></clipPath><clipPath id="b6f36a416d"><path d="M 0.140625 65 L 173 65 L 173 180 L 0.140625 180 Z M 0.140625 65 " clip-rule="nonzero"/></clipPath><clipPath id="397b24ed59"><path d="M 106 61 L 246.859375 61 L 246.859375 185 L 106 185 Z M 106 61 " clip-rule="nonzero"/></clipPath></defs><path fill="#545454" d="M 235.828125 83.464844 C 214.253906 100.09375 212.484375 109.636719 238.773438 118.601562 C 201.628906 128.589844 192.539062 137.996094 219.46875 163.65625 C 168.902344 154.75 154.359375 162.089844 152.113281 210.546875 C 121.675781 172.773438 105.601562 175.445312 70.066406 212.507812 C 76.636719 175.898438 63.742188 173.671875 27.875 187.5625 C 43.785156 164.800781 36.722656 158.140625 9.492188 157.476562 C 31.066406 140.851562 32.835938 131.308594 6.550781 122.34375 C 43.691406 112.355469 52.785156 102.945312 25.851562 77.285156 C 76.417969 86.195312 90.964844 78.851562 93.207031 30.398438 C 123.648438 68.167969 139.71875 65.5 175.253906 28.433594 C 168.6875 65.046875 181.578125 67.269531 217.449219 53.382812 C 201.535156 76.144531 208.601562 82.800781 235.828125 83.464844 " fill-opacity="1" fill-rule="evenodd"/><path fill="#ffffff" d="M 227 86.355469 C 207.105469 101.683594 205.476562 110.480469 229.714844 118.75 C 195.46875 127.953125 187.085938 136.628906 211.914062 160.289062 C 165.296875 152.074219 151.882812 158.839844 149.816406 203.519531 C 121.75 168.695312 106.929688 171.15625 74.171875 205.328125 C 80.226562 171.574219 68.339844 169.523438 35.269531 182.324219 C 49.941406 161.339844 43.425781 155.203125 18.320312 154.589844 C 38.214844 139.261719 39.84375 130.460938 15.609375 122.195312 C 49.855469 112.988281 58.234375 104.316406 33.40625 80.65625 C 80.023438 88.871094 93.4375 82.101562 95.503906 37.425781 C 123.570312 72.25 138.390625 69.785156 171.152344 35.617188 C 165.09375 69.371094 176.984375 71.421875 210.050781 58.617188 C 195.382812 79.605469 201.894531 85.742188 227 86.355469 " fill-opacity="1" fill-rule="evenodd"/><path fill="#545454" d="M 71.4375 59.625 L 52.164062 39.675781 L 53.542969 38.429688 L 71.4375 59.625 " fill-opacity="1" fill-rule="nonzero"/><path fill="#545454" d="M 73.269531 37.140625 L 58.519531 9.71875 L 60.179688 8.890625 L 73.269531 37.140625 " fill-opacity="1" fill-rule="nonzero"/><path fill="#545454" d="M 139.1875 39.867188 L 147.347656 1.183594 L 149.199219 1.183594 L 139.1875 39.867188 " fill-opacity="1" fill-rule="nonzero"/><path fill="#545454" d="M 136.191406 42.457031 L 142.277344 -1.40625 L 144.109375 -1.113281 L 136.191406 42.457031 " fill-opacity="1" fill-rule="nonzero"/><path fill="#545454" d="M 187.097656 49.296875 L 209.613281 24.808594 L 210.941406 26.097656 L 187.097656 49.296875 " fill-opacity="1" fill-rule="nonzero"/><path fill="#545454" d="M 192.621094 213.542969 L 169.90625 181.074219 L 194.117188 212.445312 L 192.621094 213.542969 " fill-opacity="1" fill-rule="nonzero"/><g clip-path="url(#be3112e400)"><path fill="#545454" d="M 247.882812 158.390625 L 217.542969 148.527344 L 248.402344 156.609375 L 247.882812 158.390625 " fill-opacity="1" fill-rule="nonzero"/></g><path fill="#545454" d="M 216.777344 209.121094 L 176.191406 169.65625 L 218.050781 207.769531 L 216.777344 209.121094 " fill-opacity="1" fill-rule="nonzero"/><path fill="#545454" d="M 206.886719 189.910156 L 185.527344 171.0625 L 208.066406 188.480469 L 206.886719 189.910156 " fill-opacity="1" fill-rule="nonzero"/><g clip-path="url(#e56489d6e0)"><path fill="#545454" d="M 128.984375 235.5 L 125.441406 190.136719 L 130.832031 235.316406 L 128.984375 235.5 " fill-opacity="1" fill-rule="nonzero"/></g><path fill="#545454" d="M 120.433594 220.75 L 118.582031 220.703125 L 120.175781 191.824219 L 120.433594 220.75 " fill-opacity="1" fill-rule="nonzero"/><path fill="#545454" d="M 39.402344 230.375 L 37.882812 229.3125 L 66.394531 190.152344 L 39.402344 230.375 " fill-opacity="1" fill-rule="nonzero"/><g clip-path="url(#c49577abd7)"><path fill="#545454" d="M -1.160156 184.914062 L -2.054688 183.285156 L 24.65625 169.65625 L -1.160156 184.914062 " fill-opacity="1" fill-rule="nonzero"/></g><g clip-path="url(#ad456cbfb7)"><path fill="#545454" d="M 29.078125 97.996094 L -4.230469 89.496094 L -3.722656 87.714844 L 29.078125 97.996094 " fill-opacity="1" fill-rule="nonzero"/></g><g clip-path="url(#47bbe48a69)"><path fill="#545454" d="M 21.117188 82.351562 L -4.355469 72.085938 L -3.601562 70.390625 L 21.117188 82.351562 " fill-opacity="1" fill-rule="nonzero"/></g><path fill="#545454" d="M 78.273438 58.257812 L 36.867188 4.136719 L 38.355469 3.03125 L 78.273438 58.257812 " fill-opacity="1" fill-rule="nonzero"/><path fill="#ffffff" d="M 216.125 52.019531 L 213.6875 45.085938 L 207.140625 45.066406 L 212.179688 40.796875 L 209.742188 33.863281 L 215.292969 38.160156 L 220.332031 33.890625 L 218.722656 40.816406 L 224.273438 45.109375 L 217.730469 45.097656 L 216.125 52.019531 " fill-opacity="1" fill-rule="evenodd"/><path fill="#737373" d="M 216.121094 51.941406 C 216.355469 50.800781 216.601562 49.664062 216.847656 48.53125 C 217.09375 47.367188 217.351562 46.210938 217.605469 45.050781 L 217.625 44.953125 L 217.722656 44.953125 L 220.992188 44.917969 L 224.261719 44.902344 L 224.171875 45.285156 L 221.382812 43.15625 L 218.605469 41.015625 L 218.46875 40.910156 L 218.507812 40.738281 L 219.304688 37.273438 L 220.117188 33.8125 L 220.472656 34.089844 C 219.628906 34.796875 218.789062 35.507812 217.941406 36.210938 C 217.097656 36.914062 216.253906 37.617188 215.40625 38.316406 L 215.304688 38.394531 L 215.199219 38.3125 L 209.664062 33.996094 L 209.878906 33.8125 L 212.292969 40.757812 L 212.324219 40.851562 L 212.257812 40.90625 L 207.199219 45.148438 L 207.136719 44.96875 L 213.683594 45.023438 L 213.722656 45.023438 L 213.738281 45.066406 Z M 216.128906 52.09375 L 213.636719 45.101562 L 213.691406 45.148438 L 207.148438 45.167969 L 206.871094 45.167969 L 207.082031 44.984375 L 212.101562 40.6875 L 212.066406 40.839844 L 209.605469 33.910156 L 209.4375 33.433594 L 209.820312 33.730469 L 215.386719 38.003906 L 215.183594 38.003906 C 216.011719 37.277344 216.847656 36.558594 217.679688 35.839844 C 218.511719 35.117188 219.351562 34.410156 220.1875 33.691406 L 220.710938 33.246094 L 220.542969 33.964844 L 219.75 37.429688 L 218.941406 40.890625 L 218.839844 40.617188 L 221.613281 42.769531 L 224.378906 44.9375 L 224.878906 45.332031 L 224.289062 45.324219 L 221.015625 45.292969 L 217.742188 45.238281 L 217.859375 45.140625 C 217.574219 46.289062 217.296875 47.441406 217.007812 48.585938 C 216.722656 49.734375 216.4375 50.882812 216.144531 52.027344 L 216.128906 52.09375 " fill-opacity="1" fill-rule="nonzero"/><path fill="#ffffff" d="M 52.40625 52.363281 L 45.535156 54.976562 L 45.6875 61.519531 L 41.289062 56.59375 L 34.417969 59.207031 L 38.574219 53.550781 L 34.175781 48.621094 L 41.140625 50.050781 L 45.289062 44.390625 L 45.441406 50.933594 L 52.40625 52.363281 " fill-opacity="1" fill-rule="evenodd"/><path fill="#737373" d="M 52.328125 52.371094 C 51.183594 52.160156 50.039062 51.941406 48.894531 51.730469 C 47.730469 51.511719 46.566406 51.28125 45.402344 51.058594 L 45.300781 51.042969 L 45.296875 50.945312 L 45.179688 47.675781 L 45.078125 44.410156 L 45.464844 44.488281 L 43.410156 47.328125 L 41.339844 50.164062 L 41.238281 50.304688 L 41.066406 50.269531 L 37.582031 49.5625 L 34.101562 48.839844 L 34.367188 48.476562 C 35.097656 49.300781 35.832031 50.121094 36.554688 50.949219 C 37.277344 51.777344 38.003906 52.601562 38.722656 53.433594 L 38.808594 53.53125 L 38.730469 53.636719 L 34.550781 59.285156 L 34.367188 59.074219 L 41.246094 56.480469 L 41.339844 56.445312 L 41.398438 56.511719 L 45.769531 61.460938 L 45.585938 61.527344 L 45.472656 54.980469 L 45.472656 54.941406 L 45.515625 54.925781 Z M 52.480469 52.355469 L 45.554688 55.027344 L 45.597656 54.96875 L 45.789062 61.511719 L 45.796875 61.789062 L 45.605469 61.578125 L 41.183594 56.671875 L 41.332031 56.703125 L 34.472656 59.347656 L 34 59.527344 L 34.285156 59.136719 L 38.414062 53.460938 L 38.421875 53.660156 C 37.671875 52.851562 36.933594 52.035156 36.191406 51.222656 C 35.449219 50.410156 34.714844 49.585938 33.980469 48.769531 L 33.519531 48.257812 L 34.246094 48.40625 L 37.730469 49.113281 L 41.210938 49.832031 L 40.9375 49.9375 L 43.019531 47.109375 L 45.113281 44.292969 L 45.496094 43.78125 L 45.503906 44.371094 L 45.554688 47.644531 L 45.585938 50.921875 L 45.484375 50.804688 C 46.640625 51.058594 47.796875 51.304688 48.953125 51.566406 C 50.105469 51.820312 51.261719 52.074219 52.414062 52.339844 L 52.480469 52.355469 " fill-opacity="1" fill-rule="nonzero"/><path fill="#ffffff" d="M 19.074219 187.523438 L 17.777344 196.726562 L 25.113281 200.550781 L 16.972656 202.414062 L 15.675781 211.621094 L 11.945312 203.566406 L 3.804688 205.429688 L 9.636719 198.589844 L 5.902344 190.535156 L 13.242188 194.363281 L 19.074219 187.523438 " fill-opacity="1" fill-rule="evenodd"/><path fill="#737373" d="M 19.03125 187.613281 C 18.101562 188.753906 17.167969 189.886719 16.230469 191.023438 C 15.277344 192.183594 14.316406 193.332031 13.355469 194.484375 L 13.273438 194.582031 L 13.164062 194.527344 L 9.476562 192.667969 L 5.792969 190.78125 L 6.117188 190.402344 L 8.011719 194.414062 L 9.886719 198.433594 L 9.976562 198.632812 L 9.832031 198.800781 L 6.921875 202.230469 L 4 205.640625 L 3.761719 205.125 C 5.117188 204.824219 6.476562 204.507812 7.835938 204.214844 C 9.191406 203.917969 10.546875 203.613281 11.910156 203.328125 L 12.066406 203.292969 L 12.136719 203.445312 L 15.839844 211.519531 L 15.492188 211.597656 L 16.820312 202.394531 L 16.839844 202.273438 L 16.949219 202.246094 L 25.09375 200.425781 L 25.0625 200.667969 L 17.746094 196.796875 L 17.699219 196.773438 L 17.707031 196.714844 Z M 19.109375 187.4375 L 17.847656 196.734375 L 17.808594 196.652344 L 25.164062 200.433594 L 25.476562 200.59375 L 25.132812 200.679688 L 17 202.582031 L 17.125 202.4375 L 15.859375 211.644531 L 15.773438 212.277344 L 15.511719 211.722656 L 11.75 203.6875 L 11.976562 203.804688 C 10.625 204.140625 9.269531 204.457031 7.914062 204.78125 C 6.558594 205.113281 5.203125 205.417969 3.847656 205.734375 L 3.003906 205.933594 L 3.609375 205.222656 L 6.515625 201.792969 L 9.4375 198.378906 L 9.386719 198.746094 L 7.527344 194.714844 L 5.6875 190.667969 L 5.355469 189.9375 L 6.011719 190.289062 L 9.667969 192.230469 L 13.316406 194.195312 L 13.121094 194.238281 C 14.109375 193.113281 15.089844 191.980469 16.082031 190.863281 C 17.070312 189.738281 18.058594 188.613281 19.054688 187.5 L 19.109375 187.4375 " fill-opacity="1" fill-rule="nonzero"/><path fill="#ffffff" d="M 40.722656 196.796875 L 40.65625 201.058594 L 44.210938 202.378906 L 40.617188 203.691406 L 40.550781 207.949219 L 38.394531 204.5 L 34.800781 205.8125 L 37.0625 202.367188 L 34.90625 198.921875 L 38.460938 200.242188 L 40.722656 196.796875 " fill-opacity="1" fill-rule="evenodd"/><path fill="#737373" d="M 40.710938 196.84375 C 40.351562 197.417969 39.988281 197.984375 39.628906 198.554688 C 39.261719 199.136719 38.890625 199.710938 38.519531 200.292969 L 38.488281 200.339844 L 38.4375 200.320312 L 36.652344 199.6875 L 34.871094 199.039062 L 34.996094 198.847656 L 36.085938 200.5625 L 37.167969 202.285156 L 37.21875 202.367188 L 37.164062 202.457031 L 36.035156 204.175781 L 34.902344 205.894531 L 34.765625 205.675781 C 35.363281 205.460938 35.964844 205.242188 36.5625 205.03125 C 37.164062 204.816406 37.761719 204.601562 38.367188 204.394531 L 38.4375 204.371094 L 38.476562 204.4375 L 40.621094 207.894531 L 40.46875 207.949219 L 40.546875 203.691406 L 40.546875 203.632812 L 40.597656 203.617188 L 44.195312 202.324219 L 44.195312 202.4375 L 40.648438 201.09375 L 40.625 201.085938 L 40.625 201.058594 Z M 40.734375 196.757812 L 40.691406 201.058594 L 40.667969 201.023438 L 44.226562 202.324219 L 44.378906 202.378906 L 44.226562 202.4375 L 40.636719 203.765625 L 40.683594 203.691406 L 40.636719 207.949219 L 40.632812 208.242188 L 40.484375 208.003906 L 38.3125 204.566406 L 38.425781 204.609375 C 37.828125 204.835938 37.230469 205.058594 36.632812 205.285156 C 36.035156 205.507812 35.433594 205.726562 34.839844 205.949219 L 34.464844 206.085938 L 34.703125 205.726562 L 35.828125 204.003906 L 36.960938 202.285156 L 36.960938 202.453125 L 35.882812 200.730469 L 34.816406 198.992188 L 34.621094 198.679688 L 34.941406 198.800781 L 36.714844 199.476562 L 38.484375 200.160156 L 38.402344 200.191406 C 38.785156 199.625 39.167969 199.054688 39.554688 198.488281 C 39.9375 197.921875 40.324219 197.355469 40.710938 196.789062 L 40.734375 196.757812 " fill-opacity="1" fill-rule="nonzero"/><g clip-path="url(#b6f36a416d)"><path stroke-linecap="butt" transform="matrix(0.747627, 0, 0, 0.747627, -35.948709, 77.339634)" fill="none" stroke-linejoin="miter" d="M 99.470358 33.293141 C 97.542382 39.29129 95.765927 44.704253 94.140993 49.532031 C 92.516059 54.359809 91.037421 58.811397 89.69463 62.886794 C 88.351839 66.951742 87.10832 70.697972 85.953625 74.135935 C 84.798929 77.568674 83.727831 80.844666 82.735106 83.969137 C 82.186495 87.589971 80.39959 90.144931 77.384841 91.634019 C 75.629285 92.464773 73.534113 92.882762 71.109774 92.882762 C 68.69066 92.882762 66.882856 92.621519 65.675911 92.099032 C 64.468967 91.576545 63.690461 90.818939 63.340395 89.826214 C 62.979879 88.833489 62.979879 87.636994 63.340395 86.241955 C 63.690461 84.836465 64.301771 82.913714 65.174324 80.468475 C 66.057327 78.028462 67.170224 74.72112 68.513015 70.551676 C 69.866255 66.366556 71.282195 62.134413 72.755608 57.860471 C 76.444364 47.144266 79.359841 39.724954 81.507262 35.607758 C 82.327566 34.066421 83.142645 33.031898 83.96295 32.509411 C 84.793704 31.986924 85.593109 31.605509 86.355939 31.365165 C 87.134445 31.109146 87.850252 30.821778 88.508585 30.497836 C 89.166918 30.163445 89.757329 29.337916 90.279815 28.026474 C 90.802302 26.709807 91.758453 25.805905 93.153493 25.309542 C 94.564207 24.81318 95.886099 24.771381 97.119168 25.18937 C 98.352237 25.591685 99.282263 26.469463 99.914472 27.822704 C 100.546681 29.165495 100.400385 30.988974 99.470358 33.293141 Z M 100.457858 57.034942 C 101.544631 53.346185 102.432859 50.503857 103.117316 48.502732 C 103.812224 46.491158 104.491457 44.693803 105.144565 43.110668 C 105.802899 41.517083 106.55528 39.980972 107.401708 38.507559 C 108.258587 37.018472 109.199063 35.654781 110.217912 34.421712 C 111.236761 33.172969 112.323534 32.195919 113.473005 31.485337 C 114.627701 30.774754 115.834645 30.419463 117.093839 30.419463 C 118.358257 30.419463 119.680148 30.910601 121.059514 31.887651 C 123.243508 37.384213 124.5863 41.067745 125.082662 42.933023 C 125.740995 45.681303 126.341855 49.558155 126.895691 54.558354 C 127.392054 53.299161 127.951115 51.972045 128.583324 50.577005 C 129.215533 49.16629 129.832067 47.745126 130.432927 46.313512 C 132.136234 42.692679 133.212557 39.949623 133.651446 38.084345 C 134.85839 34.233617 137.361102 31.34949 141.154356 29.431963 C 144.456473 27.780905 147.53392 27.258418 150.391923 27.864503 C 151.541394 28.078723 152.346024 28.548961 152.805812 29.269992 C 153.276051 29.980575 153.276051 30.722506 152.805812 31.485337 C 152.346024 32.248167 152.189278 32.979649 152.3199 33.679781 C 152.455746 34.364239 152.575918 35.168869 152.68564 36.09367 C 152.858061 38.627731 152.424397 40.874425 151.374199 42.828525 C 150.329225 44.777401 149.258127 47.19129 148.15568 50.075417 C 147.058457 52.95432 145.945561 56.021317 144.816989 59.26596 C 143.693642 62.500154 142.549396 65.791821 141.399925 69.146186 C 140.245229 72.495327 139.116658 75.54665 138.019436 78.300155 C 135.605546 84.617021 133.625321 88.102008 132.083985 88.760341 C 130.004488 90.019534 128.468377 90.756241 127.475652 90.97046 C 126.216458 91.200355 124.434778 91.200355 122.125387 90.97046 C 120.688548 90.865963 119.450254 89.026809 118.405281 85.458224 C 117.799196 83.540698 117.25581 80.88124 116.775122 77.474626 C 115.886894 71.533951 115.280809 68.257959 114.941193 67.657099 C 112.757198 74.804718 111.210637 79.308555 110.296285 81.173833 C 109.387158 83.039111 108.692251 84.272179 108.227237 84.878264 C 107.767449 85.479124 107.213613 86.278529 106.55528 87.271254 C 105.829023 89.241029 104.125716 90.698767 101.445359 91.634019 C 99.135967 92.522246 97.04602 92.663318 95.170292 92.057233 C 93.143043 91.38845 92.542183 90.118807 93.357263 88.253529 C 93.963347 81.670195 96.330213 71.262258 100.457858 57.034942 Z M 158.945032 88.253529 C 158.23445 90.845064 156.421421 92.574495 153.51117 93.447048 C 150.872611 94.225553 148.510971 93.948635 146.431473 92.621519 C 144.179555 91.252603 143.458523 89.22013 144.278828 86.524098 C 144.98941 83.451875 146.358325 78.540499 148.380349 71.77952 C 150.423273 65.01854 151.854886 60.26391 152.68564 57.51563 C 154.603167 50.702402 155.810112 46.20379 156.306474 44.019795 C 158.009781 38.518009 159.2324 35.111395 159.969107 33.799953 C 160.721488 32.472837 161.369371 31.55326 161.923207 31.041223 C 162.471818 30.518736 163.365271 29.902202 164.59834 29.191619 C 165.831409 28.465363 167.158525 27.916752 168.579689 27.540561 C 170.016528 27.153921 171.442917 26.892677 172.864081 26.756831 C 174.30092 26.610535 175.753433 26.495587 177.232071 26.417214 C 178.721158 26.333617 180.366992 26.072373 182.180021 25.628259 C 182.901053 25.628259 183.554161 25.576011 184.128897 25.471513 C 184.708857 25.361791 185.267918 25.283418 185.821754 25.225945 C 187.080947 25.121447 188.329691 25.262519 189.56276 25.649159 C 190.795829 26.025349 191.725855 26.709807 192.358064 27.702532 C 192.990273 28.679582 193.303765 29.808154 193.303765 31.083022 C 193.303765 32.342215 193.042522 33.690231 192.520035 35.12707 C 191.997548 36.548234 191.271292 37.917149 190.34649 39.228591 C 188.308791 42.086594 185.753831 44.119068 182.681608 45.326012 C 180.534188 45.984346 178.992852 46.313512 178.0576 46.313512 C 177.127574 46.313512 176.484915 46.20379 176.124399 45.989571 C 175.774333 45.775351 175.565338 45.61338 175.50264 45.508883 C 175.445166 45.383486 175.257071 45.571581 174.938354 46.067944 C 174.441991 46.778526 174.076251 47.57793 173.851581 48.466158 C 173.637362 49.333486 173.386568 49.98137 173.104425 50.394134 C 172.837957 50.812124 172.466991 51.621978 172.001978 52.828923 C 171.54219 54.035867 170.951779 55.044267 170.230748 55.848897 C 169.520166 56.637852 169.107401 57.113315 169.002904 57.275286 L 176.244571 56.533354 C 177.399267 56.423632 178.397217 56.658751 179.243645 57.233487 C 180.100524 57.813447 180.711833 58.513579 181.072349 59.349558 C 181.432865 60.164638 181.526913 60.974492 181.354492 61.779122 C 181.192521 62.573302 180.696159 63.174162 179.865404 63.592151 C 179.0451 63.994466 178.512164 64.402006 178.256145 64.819995 C 178.015801 65.23276 177.812031 65.635075 177.655285 66.02694 C 177.493314 66.40313 177.28432 66.784546 177.028301 67.171186 C 176.787957 67.547376 176.249796 67.902668 175.419042 68.237059 C 173.663486 69.057363 170.288221 69.715697 165.298472 70.212059 C 165.021554 71.042813 164.645364 72.019864 164.175125 73.148435 C 163.704887 74.261332 163.229424 75.426478 162.743512 76.649097 C 161.311898 80.322179 160.491593 82.547973 160.293048 83.326478 C 160.104953 84.089309 159.958657 84.721518 159.848935 85.217881 C 159.524993 86.691293 159.227175 87.704918 158.945032 88.253529 Z M 198.403237 34.442612 C 201.877774 30.497836 205.728502 28.031699 209.950195 27.038974 C 212.860447 26.328392 215.608727 26.438114 218.200262 27.362916 C 220.222286 25.215495 222.860844 24.452664 226.105488 25.069198 C 229.067988 25.602135 231.596824 27.274093 233.686771 30.074622 C 233.796493 30.466487 234.026388 31.051673 234.371229 31.824953 C 234.73697 32.593009 235.081811 33.434212 235.421427 34.364239 C 237.835317 39.965298 238.023412 47.332362 235.980488 56.449757 C 233.462102 67.772046 228.989615 77.359679 222.563027 85.217881 C 220.577577 87.63177 218.351783 89.638119 215.885645 91.231704 C 211.93042 94.251678 207.201915 95.589244 201.705353 95.254852 C 198.298739 95.098106 195.440736 94.246453 193.131345 92.699892 C 183.961701 88.143807 180.967852 78.639772 184.160246 64.193011 C 186.788355 52.327336 191.53776 42.410536 198.403237 34.442612 Z M 199.411636 78.195658 L 199.328038 78.70247 L 199.490009 79.606372 C 199.813951 81.309679 200.357337 82.615896 201.120168 83.530248 C 201.898673 84.428925 202.536107 84.987986 203.03247 85.217881 C 203.581081 84.773767 204.129692 84.361002 204.678303 83.969137 C 205.232139 83.582497 205.728502 83.117484 206.167391 82.584547 C 209.897947 77.955314 212.802973 71.904917 214.877246 64.43858 C 216.972418 56.967018 217.740474 50.044068 217.191862 43.674954 C 215.060116 46.423235 212.808198 49.58428 210.436108 53.152865 C 208.074468 56.716225 206.20919 59.767548 204.840274 62.306834 C 201.715803 68.179586 199.907999 73.477602 199.411636 78.195658 Z M 199.411636 78.195658 " stroke="#000000" stroke-width="7.210061" stroke-opacity="1" stroke-miterlimit="4"/></g><g clip-path="url(#397b24ed59)"><path stroke-linecap="butt" transform="matrix(0.747627, 0, 0, 0.747627, -35.948709, 77.339634)" fill="none" stroke-linejoin="miter" d="M 254.037633 71.037588 L 250.077183 81.09546 C 249.523347 82.621121 249.026984 84.214706 248.588095 85.860539 C 248.159656 87.511598 247.694643 88.953661 247.19828 90.18673 C 246.701918 91.435474 245.944312 92.412524 244.925463 93.123106 C 243.917063 93.833688 242.778042 94.366625 241.503174 94.711466 C 240.243981 95.077207 238.937764 95.228728 237.584523 95.176479 C 236.241732 95.124231 235.055687 94.873437 234.021163 94.429323 C 231.649073 93.332101 230.823543 91.519072 231.5498 89.000685 C 234.068187 77.90829 236.440277 69.01034 238.671295 62.306834 C 240.897089 55.598103 242.731018 50.326211 244.183531 46.491158 C 245.64127 42.645655 247.172156 38.575483 248.765741 34.280641 C 248.927712 32.687056 249.586045 31.255442 250.740741 29.996249 C 251.890212 28.737056 253.253902 27.697307 254.821363 26.877003 C 256.394048 26.046249 258.029432 25.455839 259.732739 25.105773 C 261.436046 24.745257 262.946033 24.703458 264.257475 24.985601 C 265.574141 25.257294 266.545967 25.858154 267.172951 26.79863 C 267.80516 27.723431 267.846959 29.066223 267.293123 30.821778 C 265.323348 35.879451 263.923083 39.45326 263.092329 41.543208 C 262.272025 43.622705 261.535318 45.487983 260.876985 47.133817 L 258.562368 52.588579 C 259.717064 52.640828 261.174803 52.473632 262.930358 52.086992 C 266.122753 51.37641 268.426919 51.125616 269.848084 51.339835 C 269.848084 51.073367 269.989155 50.603129 270.271298 49.934346 C 271.817859 43.24129 273.54729 37.09162 275.464817 31.485337 C 276.833732 26.871778 280.370968 24.457889 286.086974 24.243669 C 288.338892 24.243669 290.042199 24.787056 291.196895 25.873828 C 292.456088 27.023299 292.623284 28.595984 291.698482 30.581434 C 286.64081 44.756502 283.067 55.932495 280.977053 64.114638 C 278.615412 73.571649 277.063627 79.945989 276.32692 83.248105 C 275.590214 86.534547 274.947555 88.478198 274.398944 89.079058 C 273.845108 89.685143 273.286047 90.108357 272.706086 90.348701 C 272.131351 90.60472 271.567065 90.839839 271.018454 91.054058 C 270.469843 91.278728 270.025729 91.827339 269.691338 92.699892 L 269.445769 92.699892 C 269.00688 93.692617 268.040279 94.465897 266.551192 95.014508 C 265.077779 95.563119 263.578242 95.766889 262.06303 95.620593 C 260.563493 95.484746 259.3043 94.936135 258.28545 93.969535 C 257.261376 93.018609 257.000133 91.555646 257.496495 89.58587 C 258.050331 86.445725 258.954234 83.080909 260.213427 79.4862 C 261.47262 75.891491 262.475795 73.080512 263.212501 71.053263 C 263.964882 69.015564 264.586641 67.113712 265.083004 65.342482 C 264.63889 65.572376 264.210451 65.739572 263.797686 65.844069 C 263.395371 65.953792 262.883334 66.162786 262.2668 66.471054 C 261.660715 66.763646 261.044181 67.02489 260.417197 67.254784 C 259.784988 67.469003 259.168453 67.683223 258.562368 67.897443 C 257.036707 68.498302 255.777514 69.109612 254.784789 69.726146 Z M 263.353573 65.525352 C 263.405821 65.525352 263.682739 65.43653 264.179102 65.264109 C 263.84471 65.384281 263.567792 65.467879 263.353573 65.525352 Z M 329.338432 82.401677 C 329.834795 84.277404 329.730297 85.834415 329.019715 87.067484 C 328.309133 88.300553 327.290284 89.246254 325.963167 89.904587 C 325.963167 90.18673 326.140813 90.855513 326.506554 91.916161 C 326.86707 92.992484 327.154437 93.885937 327.368657 94.612193 C 327.865019 96.085606 328.000866 97.428397 327.770972 98.635342 C 327.170112 100.730514 325.634001 101.853861 323.162638 102.015832 C 322.117665 102.125554 321.072691 101.984482 320.027717 101.592617 C 318.993193 101.216427 318.178114 100.620792 317.572029 99.800488 C 317.451857 100.019932 317.14359 99.560144 316.647228 98.436797 C 316.161315 97.308225 315.623153 96.033358 315.017069 94.612193 L 313.188365 90.97046 C 310.22064 91.910937 307.806751 92.297577 305.946698 92.140831 C 303.036446 91.801214 299.953774 91.007034 296.709131 89.742616 C 292.205294 87.987061 289.101723 84.857365 287.398416 80.348303 C 285.695109 75.844467 285.480889 70.327006 286.750532 63.790696 C 287.356617 56.094466 289.19577 49.061793 292.262768 42.692679 C 295.883602 35.168869 300.418787 30.304516 305.8631 28.104847 C 311.417135 25.304318 316.030693 24.123497 319.703775 24.562386 L 321.192863 24.060799 C 322.013167 22.639635 323.28281 21.62601 325.017466 21.025151 C 326.746898 20.419066 328.596501 20.173497 330.566276 20.277994 C 332.551726 20.387717 334.490152 20.800481 336.381555 21.526738 C 338.283407 22.23732 339.814293 23.198696 340.968989 24.40564 C 345.086185 28.413114 346.763368 34.918075 345.995312 43.915298 C 345.112309 54.965894 341.104835 65.300683 333.967665 74.919665 C 332.264358 77.223832 330.41998 79.366028 328.43453 81.335803 Z M 305.701129 80.672245 C 305.152518 78.644996 304.8756 77.030512 304.8756 75.823568 C 304.771102 75.703396 304.718854 75.562324 304.718854 75.400353 L 304.718854 75.32198 C 304.65093 75.264507 304.614356 75.186134 304.614356 75.076411 L 304.718854 75.076411 C 304.823351 72.328131 306.218391 70.509877 308.903973 69.626874 C 310.549806 68.754321 312.362836 68.38858 314.332611 68.519202 C 316.318061 68.655049 318.110191 69.271583 319.703775 70.37403 C 320.252387 69.444004 320.722625 68.59235 321.11449 67.81907 L 322.096765 65.844069 C 326.872295 55.73395 328.079239 47.133817 325.717599 40.05412 C 324.071765 41.156567 322.263961 41.888049 320.30986 42.248565 C 318.360984 42.598631 316.56363 42.635205 314.917796 42.368737 C 313.710852 43.403261 312.57183 44.646779 311.495508 46.109742 C 310.434859 47.572706 309.698153 48.57588 309.285388 49.129716 C 308.867399 49.662653 308.151592 50.833023 307.132743 52.630378 C 306.124343 54.412058 305.152518 56.376608 304.212041 58.524029 C 303.27679 60.655775 302.477385 62.86067 301.819052 65.138712 C 301.160718 67.42198 300.805427 69.57985 300.753179 71.617549 C 300.648681 76.231107 302.294515 79.251081 305.701129 80.672245 Z M 305.701129 80.672245 " stroke="#000000" stroke-width="7.210061" stroke-opacity="1" stroke-miterlimit="4"/></g><g fill="#ffffff" fill-opacity="1"><g transform="translate(12.354973, 143.878394)"><g><path d="M 26.0625 -41.640625 C 24.625 -37.171875 23.296875 -33.128906 22.078125 -29.515625 C 20.867188 -25.898438 19.757812 -22.570312 18.75 -19.53125 C 17.75 -16.488281 16.816406 -13.679688 15.953125 -11.109375 C 15.085938 -8.546875 14.289062 -6.097656 13.5625 -3.765625 C 13.144531 -1.046875 11.804688 0.863281 9.546875 1.96875 C 8.234375 2.582031 6.671875 2.890625 4.859375 2.890625 C 3.054688 2.890625 1.703125 2.691406 0.796875 2.296875 C -0.0976562 1.910156 -0.679688 1.347656 -0.953125 0.609375 C -1.222656 -0.128906 -1.222656 -1.019531 -0.953125 -2.0625 C -0.679688 -3.113281 -0.21875 -4.550781 0.4375 -6.375 C 1.09375 -8.207031 1.921875 -10.679688 2.921875 -13.796875 C 3.929688 -16.921875 4.988281 -20.082031 6.09375 -23.28125 C 8.851562 -31.289062 11.03125 -36.835938 12.625 -39.921875 C 13.25 -41.066406 13.867188 -41.832031 14.484375 -42.21875 C 15.097656 -42.613281 15.691406 -42.90625 16.265625 -43.09375 C 16.835938 -43.28125 17.367188 -43.492188 17.859375 -43.734375 C 18.359375 -43.984375 18.800781 -44.597656 19.1875 -45.578125 C 19.582031 -46.566406 20.300781 -47.242188 21.34375 -47.609375 C 22.394531 -47.984375 23.378906 -48.015625 24.296875 -47.703125 C 25.222656 -47.398438 25.921875 -46.742188 26.390625 -45.734375 C 26.867188 -44.734375 26.757812 -43.367188 26.0625 -41.640625 Z M 26.0625 -41.640625 "/></g></g></g><g fill="#ffffff" fill-opacity="1"><g transform="translate(34.961207, 143.878394)"><g><path d="M 4.1875 -23.90625 C 5.007812 -26.65625 5.675781 -28.78125 6.1875 -30.28125 C 6.707031 -31.78125 7.210938 -33.125 7.703125 -34.3125 C 8.191406 -35.507812 8.753906 -36.660156 9.390625 -37.765625 C 10.023438 -38.878906 10.722656 -39.894531 11.484375 -40.8125 C 12.242188 -41.738281 13.054688 -42.46875 13.921875 -43 C 14.785156 -43.53125 15.6875 -43.796875 16.625 -43.796875 C 17.570312 -43.796875 18.5625 -43.425781 19.59375 -42.6875 C 21.238281 -38.582031 22.242188 -35.832031 22.609375 -34.4375 C 23.097656 -32.382812 23.550781 -29.488281 23.96875 -25.75 C 24.332031 -26.695312 24.75 -27.691406 25.21875 -28.734375 C 25.695312 -29.785156 26.160156 -30.84375 26.609375 -31.90625 C 27.890625 -34.625 28.691406 -36.679688 29.015625 -38.078125 C 29.921875 -40.953125 31.789062 -43.109375 34.625 -44.546875 C 37.09375 -45.773438 39.394531 -46.164062 41.53125 -45.71875 C 42.382812 -45.550781 42.984375 -45.195312 43.328125 -44.65625 C 43.679688 -44.125 43.679688 -43.570312 43.328125 -43 C 42.984375 -42.425781 42.863281 -41.878906 42.96875 -41.359375 C 43.070312 -40.847656 43.164062 -40.242188 43.25 -39.546875 C 43.375 -37.660156 43.046875 -35.988281 42.265625 -34.53125 C 41.484375 -33.070312 40.679688 -31.265625 39.859375 -29.109375 C 39.035156 -26.953125 38.203125 -24.660156 37.359375 -22.234375 C 36.523438 -19.816406 35.675781 -17.351562 34.8125 -14.84375 C 33.945312 -12.34375 33.101562 -10.066406 32.28125 -8.015625 C 30.476562 -3.285156 29 -0.675781 27.84375 -0.1875 C 26.28125 0.757812 25.128906 1.316406 24.390625 1.484375 C 23.453125 1.640625 22.117188 1.640625 20.390625 1.484375 C 19.328125 1.398438 18.40625 0.0195312 17.625 -2.65625 C 17.164062 -4.09375 16.753906 -6.082031 16.390625 -8.625 C 15.734375 -13.0625 15.28125 -15.503906 15.03125 -15.953125 C 13.382812 -10.617188 12.222656 -7.253906 11.546875 -5.859375 C 10.867188 -4.460938 10.351562 -3.535156 10 -3.078125 C 9.65625 -2.628906 9.238281 -2.035156 8.75 -1.296875 C 8.21875 0.179688 6.941406 1.269531 4.921875 1.96875 C 3.203125 2.625 1.644531 2.726562 0.25 2.28125 C -1.269531 1.789062 -1.722656 0.847656 -1.109375 -0.546875 C -0.660156 -5.484375 1.101562 -13.269531 4.1875 -23.90625 Z M 4.1875 -23.90625 "/></g></g></g><g fill="#ffffff" fill-opacity="1"><g transform="translate(73.767548, 143.878394)"><g><path d="M 9.125 -0.546875 C 8.582031 1.378906 7.222656 2.671875 5.046875 3.328125 C 3.078125 3.898438 1.3125 3.691406 -0.25 2.703125 C -1.925781 1.679688 -2.457031 0.164062 -1.84375 -1.84375 C -1.3125 -4.144531 -0.285156 -7.820312 1.234375 -12.875 C 2.753906 -17.925781 3.820312 -21.476562 4.4375 -23.53125 C 5.875 -28.625 6.773438 -31.992188 7.140625 -33.640625 C 8.421875 -37.742188 9.335938 -40.285156 9.890625 -41.265625 C 10.441406 -42.253906 10.921875 -42.941406 11.328125 -43.328125 C 11.742188 -43.722656 12.410156 -44.1875 13.328125 -44.71875 C 14.253906 -45.257812 15.25 -45.671875 16.3125 -45.953125 C 17.382812 -46.242188 18.453125 -46.441406 19.515625 -46.546875 C 20.585938 -46.648438 21.675781 -46.734375 22.78125 -46.796875 C 23.894531 -46.859375 25.128906 -47.050781 26.484375 -47.375 C 27.023438 -47.375 27.507812 -47.414062 27.9375 -47.5 C 28.375 -47.582031 28.796875 -47.644531 29.203125 -47.6875 C 30.148438 -47.769531 31.082031 -47.664062 32 -47.375 C 32.925781 -47.09375 33.625 -46.582031 34.09375 -45.84375 C 34.570312 -45.101562 34.8125 -44.257812 34.8125 -43.3125 C 34.8125 -42.363281 34.613281 -41.351562 34.21875 -40.28125 C 33.832031 -39.21875 33.289062 -38.195312 32.59375 -37.21875 C 31.070312 -35.082031 29.160156 -33.5625 26.859375 -32.65625 C 25.253906 -32.15625 24.101562 -31.90625 23.40625 -31.90625 C 22.707031 -31.90625 22.222656 -31.988281 21.953125 -32.15625 C 21.691406 -32.320312 21.539062 -32.445312 21.5 -32.53125 C 21.457031 -32.613281 21.316406 -32.46875 21.078125 -32.09375 C 20.703125 -31.5625 20.429688 -30.96875 20.265625 -30.3125 C 20.097656 -29.65625 19.910156 -29.171875 19.703125 -28.859375 C 19.503906 -28.554688 19.226562 -27.953125 18.875 -27.046875 C 18.53125 -26.140625 18.085938 -25.390625 17.546875 -24.796875 C 17.015625 -24.203125 16.710938 -23.84375 16.640625 -23.71875 L 22.0625 -24.28125 C 22.914062 -24.351562 23.660156 -24.175781 24.296875 -23.75 C 24.941406 -23.320312 25.394531 -22.796875 25.65625 -22.171875 C 25.925781 -21.554688 26 -20.953125 25.875 -20.359375 C 25.75 -19.765625 25.378906 -19.3125 24.765625 -19 C 24.148438 -18.695312 23.75 -18.390625 23.5625 -18.078125 C 23.375 -17.773438 23.21875 -17.476562 23.09375 -17.1875 C 22.976562 -16.894531 22.828125 -16.601562 22.640625 -16.3125 C 22.453125 -16.03125 22.050781 -15.769531 21.4375 -15.53125 C 20.125 -14.90625 17.597656 -14.410156 13.859375 -14.046875 C 13.648438 -13.429688 13.367188 -12.703125 13.015625 -11.859375 C 12.671875 -11.015625 12.316406 -10.140625 11.953125 -9.234375 C 10.878906 -6.484375 10.269531 -4.820312 10.125 -4.25 C 9.988281 -3.675781 9.878906 -3.203125 9.796875 -2.828125 C 9.546875 -1.722656 9.320312 -0.960938 9.125 -0.546875 Z M 9.125 -0.546875 "/></g></g></g><g fill="#ffffff" fill-opacity="1"><g transform="translate(99.884829, 143.878394)"><g><path d="M 12.5 -40.78125 C 15.09375 -43.738281 17.96875 -45.585938 21.125 -46.328125 C 23.300781 -46.859375 25.359375 -46.773438 27.296875 -46.078125 C 28.816406 -47.679688 30.785156 -48.257812 33.203125 -47.8125 C 35.421875 -47.394531 37.3125 -46.140625 38.875 -44.046875 C 38.957031 -43.765625 39.128906 -43.332031 39.390625 -42.75 C 39.660156 -42.175781 39.921875 -41.539062 40.171875 -40.84375 C 41.972656 -36.65625 42.113281 -31.148438 40.59375 -24.328125 C 38.707031 -15.867188 35.363281 -8.703125 30.5625 -2.828125 C 29.082031 -1.023438 27.414062 0.46875 25.5625 1.65625 C 22.601562 3.914062 19.070312 4.925781 14.96875 4.6875 C 12.425781 4.5625 10.289062 3.921875 8.5625 2.765625 C 1.707031 -0.640625 -0.53125 -7.742188 1.84375 -18.546875 C 3.820312 -27.421875 7.375 -34.832031 12.5 -40.78125 Z M 13.25 -8.078125 L 13.1875 -7.703125 L 13.3125 -7.03125 C 13.550781 -5.75 13.957031 -4.769531 14.53125 -4.09375 C 15.113281 -3.414062 15.585938 -2.992188 15.953125 -2.828125 C 16.367188 -3.160156 16.78125 -3.46875 17.1875 -3.75 C 17.601562 -4.039062 17.972656 -4.394531 18.296875 -4.8125 C 21.085938 -8.257812 23.265625 -12.773438 24.828125 -18.359375 C 26.390625 -23.941406 26.960938 -29.117188 26.546875 -33.890625 C 24.953125 -31.828125 23.269531 -29.460938 21.5 -26.796875 C 19.738281 -24.128906 18.34375 -21.851562 17.3125 -19.96875 C 14.96875 -15.570312 13.613281 -11.609375 13.25 -8.078125 Z M 13.25 -8.078125 "/></g></g></g><g fill="#737373" fill-opacity="1"><g transform="translate(139.252894, 143.878394)"><g><path d="M 14.71875 -13.4375 L 11.765625 -5.921875 C 11.359375 -4.765625 10.988281 -3.570312 10.65625 -2.34375 C 10.332031 -1.113281 9.984375 -0.0351562 9.609375 0.890625 C 9.242188 1.816406 8.679688 2.546875 7.921875 3.078125 C 7.160156 3.609375 6.304688 4.007812 5.359375 4.28125 C 4.410156 4.550781 3.429688 4.664062 2.421875 4.625 C 1.421875 4.582031 0.53125 4.394531 -0.25 4.0625 C -2.007812 3.238281 -2.625 1.882812 -2.09375 0 C -0.207031 -8.289062 1.566406 -14.941406 3.234375 -19.953125 C 4.898438 -24.972656 6.273438 -28.921875 7.359375 -31.796875 C 8.453125 -34.671875 9.59375 -37.707031 10.78125 -40.90625 C 10.90625 -42.09375 11.394531 -43.160156 12.25 -44.109375 C 13.113281 -45.054688 14.128906 -45.835938 15.296875 -46.453125 C 16.472656 -47.066406 17.695312 -47.503906 18.96875 -47.765625 C 20.25 -48.035156 21.378906 -48.066406 22.359375 -47.859375 C 23.347656 -47.660156 24.078125 -47.210938 24.546875 -46.515625 C 25.023438 -45.816406 25.054688 -44.8125 24.640625 -43.5 C 23.160156 -39.71875 22.113281 -37.046875 21.5 -35.484375 C 20.882812 -33.921875 20.332031 -32.523438 19.84375 -31.296875 L 18.109375 -27.234375 C 18.972656 -27.191406 20.0625 -27.3125 21.375 -27.59375 C 23.757812 -28.132812 25.484375 -28.320312 26.546875 -28.15625 C 26.546875 -28.363281 26.648438 -28.710938 26.859375 -29.203125 C 28.015625 -34.210938 29.3125 -38.8125 30.75 -43 C 31.769531 -46.445312 34.414062 -48.253906 38.6875 -48.421875 C 40.375 -48.421875 41.648438 -48.007812 42.515625 -47.1875 C 43.453125 -46.332031 43.570312 -45.164062 42.875 -43.6875 C 39.101562 -33.082031 36.4375 -24.722656 34.875 -18.609375 C 33.101562 -11.546875 31.941406 -6.78125 31.390625 -4.3125 C 30.835938 -1.84375 30.351562 -0.382812 29.9375 0.0625 C 29.53125 0.507812 29.109375 0.828125 28.671875 1.015625 C 28.242188 1.203125 27.820312 1.375 27.40625 1.53125 C 27 1.695312 26.675781 2.109375 26.4375 2.765625 L 26.25 2.765625 C 25.914062 3.503906 25.191406 4.078125 24.078125 4.484375 C 22.972656 4.898438 21.851562 5.054688 20.71875 4.953125 C 19.59375 4.859375 18.648438 4.453125 17.890625 3.734375 C 17.128906 3.015625 16.9375 1.914062 17.3125 0.4375 C 17.71875 -1.90625 18.394531 -4.421875 19.34375 -7.109375 C 20.289062 -9.804688 21.039062 -11.910156 21.59375 -13.421875 C 22.144531 -14.941406 22.609375 -16.363281 22.984375 -17.6875 C 22.648438 -17.519531 22.328125 -17.394531 22.015625 -17.3125 C 21.710938 -17.226562 21.332031 -17.070312 20.875 -16.84375 C 20.425781 -16.625 19.96875 -16.429688 19.5 -16.265625 C 19.03125 -16.097656 18.566406 -15.929688 18.109375 -15.765625 C 16.960938 -15.316406 16.019531 -14.867188 15.28125 -14.421875 Z M 21.6875 -17.5625 C 21.726562 -17.5625 21.929688 -17.625 22.296875 -17.75 C 22.054688 -17.664062 21.851562 -17.601562 21.6875 -17.5625 Z M 21.6875 -17.5625 "/></g></g></g><g fill="#737373" fill-opacity="1"><g transform="translate(175.472145, 143.878394)"><g><path d="M 34.8125 -4.921875 C 35.175781 -3.523438 35.09375 -2.363281 34.5625 -1.4375 C 34.03125 -0.519531 33.269531 0.179688 32.28125 0.671875 C 32.28125 0.878906 32.410156 1.382812 32.671875 2.1875 C 32.941406 2.988281 33.160156 3.65625 33.328125 4.1875 C 33.703125 5.300781 33.804688 6.304688 33.640625 7.203125 C 33.191406 8.765625 32.039062 9.609375 30.1875 9.734375 C 29.40625 9.816406 28.625 9.710938 27.84375 9.421875 C 27.0625 9.140625 26.445312 8.691406 26 8.078125 C 25.914062 8.234375 25.6875 7.890625 25.3125 7.046875 C 24.945312 6.210938 24.539062 5.257812 24.09375 4.1875 L 22.734375 1.484375 C 20.515625 2.179688 18.707031 2.46875 17.3125 2.34375 C 15.132812 2.09375 12.832031 1.492188 10.40625 0.546875 C 7.039062 -0.765625 4.722656 -3.101562 3.453125 -6.46875 C 2.179688 -9.832031 2.015625 -13.960938 2.953125 -18.859375 C 3.410156 -24.609375 4.785156 -29.863281 7.078125 -34.625 C 9.796875 -40.25 13.1875 -43.882812 17.25 -45.53125 C 21.394531 -47.625 24.84375 -48.503906 27.59375 -48.171875 L 28.703125 -48.546875 C 29.328125 -49.617188 30.285156 -50.378906 31.578125 -50.828125 C 32.867188 -51.273438 34.253906 -51.457031 35.734375 -51.375 C 37.210938 -51.300781 38.660156 -50.992188 40.078125 -50.453125 C 41.492188 -49.921875 42.632812 -49.203125 43.5 -48.296875 C 46.570312 -45.296875 47.820312 -40.429688 47.25 -33.703125 C 46.59375 -25.441406 43.597656 -17.71875 38.265625 -10.53125 C 36.984375 -8.8125 35.601562 -7.210938 34.125 -5.734375 Z M 17.125 -6.21875 C 16.71875 -7.738281 16.515625 -8.953125 16.515625 -9.859375 C 16.429688 -9.941406 16.390625 -10.046875 16.390625 -10.171875 L 16.390625 -10.234375 C 16.347656 -10.265625 16.328125 -10.320312 16.328125 -10.40625 L 16.390625 -10.40625 C 16.472656 -12.46875 17.519531 -13.828125 19.53125 -14.484375 C 20.757812 -15.140625 22.113281 -15.414062 23.59375 -15.3125 C 25.070312 -15.207031 26.40625 -14.742188 27.59375 -13.921875 C 28.007812 -14.617188 28.359375 -15.253906 28.640625 -15.828125 L 29.390625 -17.3125 C 32.960938 -24.863281 33.863281 -31.289062 32.09375 -36.59375 C 30.863281 -35.769531 29.519531 -35.222656 28.0625 -34.953125 C 26.601562 -34.691406 25.257812 -34.664062 24.03125 -34.875 C 23.125 -34.09375 22.269531 -33.15625 21.46875 -32.0625 C 20.664062 -30.976562 20.109375 -30.226562 19.796875 -29.8125 C 19.492188 -29.40625 18.960938 -28.535156 18.203125 -27.203125 C 17.441406 -25.867188 16.710938 -24.398438 16.015625 -22.796875 C 15.316406 -21.191406 14.722656 -19.535156 14.234375 -17.828125 C 13.742188 -16.128906 13.476562 -14.519531 13.4375 -13 C 13.351562 -9.550781 14.582031 -7.289062 17.125 -6.21875 Z M 17.125 -6.21875 "/></g></g></g><g fill="#ffffff" fill-opacity="1"><g transform="translate(54.072737, 159.464446)"><g><path d="M 2.328125 -0.09375 C 1.921875 -0.207031 1.566406 -0.398438 1.265625 -0.671875 C 0.972656 -0.953125 0.742188 -1.285156 0.578125 -1.671875 C 0.421875 -2.054688 0.34375 -2.46875 0.34375 -2.90625 C 0.34375 -4.144531 0.820312 -5.050781 1.78125 -5.625 C 2.46875 -6.03125 3.140625 -6.21875 3.796875 -6.1875 C 4.453125 -6.164062 5.097656 -5.890625 5.734375 -5.359375 C 5.878906 -5.242188 5.945312 -5.125 5.9375 -5 C 5.9375 -4.882812 5.894531 -4.78125 5.8125 -4.6875 C 5.726562 -4.601562 5.625 -4.539062 5.5 -4.5 C 5.382812 -4.457031 5.28125 -4.460938 5.1875 -4.515625 C 4.894531 -4.660156 4.625 -4.78125 4.375 -4.875 C 4.125 -4.976562 3.875 -5.035156 3.625 -5.046875 C 3.375 -5.066406 3.109375 -5.019531 2.828125 -4.90625 C 2.554688 -4.800781 2.253906 -4.617188 1.921875 -4.359375 C 1.710938 -4.191406 1.554688 -3.992188 1.453125 -3.765625 C 1.347656 -3.535156 1.285156 -3.300781 1.265625 -3.0625 C 1.253906 -2.820312 1.285156 -2.585938 1.359375 -2.359375 C 1.429688 -2.140625 1.539062 -1.945312 1.6875 -1.78125 C 2.007812 -1.425781 2.359375 -1.175781 2.734375 -1.03125 C 3.117188 -0.894531 3.550781 -0.859375 4.03125 -0.921875 C 4.195312 -0.941406 4.363281 -0.96875 4.53125 -1 C 4.695312 -1.039062 4.898438 -1.097656 5.140625 -1.171875 C 5.367188 -1.253906 5.550781 -1.300781 5.6875 -1.3125 C 5.832031 -1.332031 5.945312 -1.253906 6.03125 -1.078125 C 6.09375 -0.941406 6.082031 -0.820312 6 -0.71875 C 5.925781 -0.613281 5.804688 -0.523438 5.640625 -0.453125 C 5.253906 -0.285156 4.878906 -0.148438 4.515625 -0.046875 C 4.160156 0.046875 3.804688 0.09375 3.453125 0.09375 C 3.097656 0.09375 2.722656 0.03125 2.328125 -0.09375 Z M 2.328125 -0.09375 "/></g></g></g><g fill="#ffffff" fill-opacity="1"><g transform="translate(60.487373, 159.464446)"><g><path d="M 3.3125 0.125 C 2.894531 0.101562 2.503906 0.015625 2.140625 -0.140625 C 1.785156 -0.304688 1.472656 -0.523438 1.203125 -0.796875 C 0.929688 -1.078125 0.71875 -1.394531 0.5625 -1.75 C 0.414062 -2.113281 0.34375 -2.507812 0.34375 -2.9375 C 0.34375 -3.3125 0.414062 -3.664062 0.5625 -4 C 0.71875 -4.332031 0.921875 -4.632812 1.171875 -4.90625 C 1.421875 -5.175781 1.703125 -5.40625 2.015625 -5.59375 C 2.335938 -5.789062 2.664062 -5.941406 3 -6.046875 C 3.34375 -6.160156 3.671875 -6.21875 3.984375 -6.21875 C 4.398438 -6.21875 4.785156 -6.132812 5.140625 -5.96875 C 5.503906 -5.800781 5.820312 -5.578125 6.09375 -5.296875 C 6.363281 -5.015625 6.578125 -4.6875 6.734375 -4.3125 C 6.890625 -3.945312 6.96875 -3.5625 6.96875 -3.15625 C 6.96875 -2.675781 6.867188 -2.234375 6.671875 -1.828125 C 6.472656 -1.421875 6.203125 -1.066406 5.859375 -0.765625 C 5.515625 -0.460938 5.125 -0.234375 4.6875 -0.078125 C 4.25 0.078125 3.789062 0.144531 3.3125 0.125 Z M 1.65625 -3.109375 C 1.65625 -2.796875 1.703125 -2.488281 1.796875 -2.1875 C 1.898438 -1.894531 2.046875 -1.625 2.234375 -1.375 C 2.421875 -1.132812 2.640625 -0.953125 2.890625 -0.828125 C 3.148438 -0.703125 3.425781 -0.65625 3.71875 -0.6875 C 4.007812 -0.726562 4.289062 -0.804688 4.5625 -0.921875 C 4.832031 -1.035156 5.070312 -1.1875 5.28125 -1.375 C 5.488281 -1.5625 5.640625 -1.785156 5.734375 -2.046875 C 5.835938 -2.304688 5.863281 -2.601562 5.8125 -2.9375 C 5.757812 -3.351562 5.65625 -3.738281 5.5 -4.09375 C 5.34375 -4.445312 5.113281 -4.734375 4.8125 -4.953125 C 4.519531 -5.179688 4.140625 -5.296875 3.671875 -5.296875 C 3.296875 -5.296875 2.953125 -5.195312 2.640625 -5 C 2.335938 -4.800781 2.097656 -4.535156 1.921875 -4.203125 C 1.742188 -3.878906 1.65625 -3.515625 1.65625 -3.109375 Z M 1.65625 -3.109375 "/></g></g></g><g fill="#ffffff" fill-opacity="1"><g transform="translate(67.804877, 159.464446)"><g><path d="M 7.703125 0.125 C 7.609375 0.125 7.535156 0.0976562 7.484375 0.046875 C 7.429688 0.00390625 7.390625 -0.0546875 7.359375 -0.140625 L 6 -4.234375 C 5.988281 -4.285156 5.960938 -4.3125 5.921875 -4.3125 C 5.890625 -4.3125 5.859375 -4.289062 5.828125 -4.25 C 5.710938 -4.039062 5.5625 -3.773438 5.375 -3.453125 C 5.195312 -3.140625 5.015625 -2.734375 4.828125 -2.234375 C 4.734375 -1.992188 4.613281 -1.835938 4.46875 -1.765625 C 4.320312 -1.691406 4.144531 -1.671875 3.9375 -1.703125 C 3.851562 -1.710938 3.796875 -1.734375 3.765625 -1.765625 C 3.734375 -1.796875 3.695312 -1.84375 3.65625 -1.90625 L 2.546875 -4.515625 C 2.523438 -4.566406 2.492188 -4.585938 2.453125 -4.578125 C 2.410156 -4.578125 2.378906 -4.554688 2.359375 -4.515625 C 2.304688 -4.328125 2.238281 -4.085938 2.15625 -3.796875 C 2.070312 -3.503906 1.984375 -3.179688 1.890625 -2.828125 C 1.796875 -2.472656 1.707031 -2.117188 1.625 -1.765625 C 1.539062 -1.421875 1.46875 -1.097656 1.40625 -0.796875 C 1.394531 -0.753906 1.375 -0.679688 1.34375 -0.578125 C 1.320312 -0.472656 1.28125 -0.367188 1.21875 -0.265625 C 1.15625 -0.171875 1.078125 -0.101562 0.984375 -0.0625 C 0.890625 -0.03125 0.789062 -0.0234375 0.6875 -0.046875 C 0.59375 -0.0664062 0.507812 -0.109375 0.4375 -0.171875 C 0.375 -0.234375 0.34375 -0.304688 0.34375 -0.390625 C 0.34375 -0.492188 0.363281 -0.628906 0.40625 -0.796875 C 0.445312 -0.972656 0.507812 -1.210938 0.59375 -1.515625 C 0.675781 -1.816406 0.78125 -2.210938 0.90625 -2.703125 C 1.09375 -3.378906 1.234375 -3.921875 1.328125 -4.328125 C 1.429688 -4.742188 1.503906 -5.019531 1.546875 -5.15625 C 1.628906 -5.46875 1.722656 -5.703125 1.828125 -5.859375 C 1.941406 -6.023438 2.054688 -6.132812 2.171875 -6.1875 C 2.285156 -6.25 2.390625 -6.269531 2.484375 -6.25 C 2.578125 -6.238281 2.65625 -6.207031 2.71875 -6.15625 C 2.78125 -6.113281 2.820312 -6.078125 2.84375 -6.046875 L 4.15625 -3.375 L 4.21875 -3.25 C 4.414062 -3.707031 4.570312 -4.082031 4.6875 -4.375 C 4.8125 -4.664062 4.898438 -4.863281 4.953125 -4.96875 C 5.097656 -5.28125 5.238281 -5.515625 5.375 -5.671875 C 5.519531 -5.835938 5.648438 -5.945312 5.765625 -6 C 5.890625 -6.050781 6 -6.070312 6.09375 -6.0625 C 6.1875 -6.050781 6.257812 -6.019531 6.3125 -5.96875 C 6.375 -5.925781 6.410156 -5.894531 6.421875 -5.875 L 7.859375 -1.671875 L 8.21875 -0.53125 C 8.269531 -0.3125 8.289062 -0.15625 8.28125 -0.0625 C 8.28125 0.03125 8.234375 0.0820312 8.140625 0.09375 C 8.054688 0.113281 7.910156 0.125 7.703125 0.125 Z M 7.703125 0.125 "/></g></g></g><g fill="#ffffff" fill-opacity="1"><g transform="translate(76.446577, 159.464446)"><g><path d="M 0.796875 0.09375 C 0.566406 0.0625 0.453125 -0.117188 0.453125 -0.453125 C 0.453125 -0.878906 0.445312 -1.21875 0.4375 -1.46875 C 0.4375 -1.726562 0.429688 -1.9375 0.421875 -2.09375 C 0.410156 -2.257812 0.398438 -2.398438 0.390625 -2.515625 C 0.390625 -2.640625 0.382812 -2.769531 0.375 -2.90625 C 0.363281 -3.050781 0.351562 -3.238281 0.34375 -3.46875 C 0.34375 -3.695312 0.34375 -4 0.34375 -4.375 C 0.34375 -4.820312 0.59375 -5.015625 1.09375 -4.953125 C 1.300781 -4.921875 1.40625 -4.835938 1.40625 -4.703125 C 1.40625 -4.234375 1.410156 -3.800781 1.421875 -3.40625 C 1.429688 -3.019531 1.4375 -2.59375 1.4375 -2.125 C 1.4375 -1.8125 1.4375 -1.566406 1.4375 -1.390625 C 1.4375 -1.210938 1.429688 -1.082031 1.421875 -1 C 1.421875 -0.925781 1.421875 -0.863281 1.421875 -0.8125 C 1.421875 -0.769531 1.414062 -0.71875 1.40625 -0.65625 C 1.40625 -0.59375 1.40625 -0.488281 1.40625 -0.34375 C 1.40625 -0.1875 1.367188 -0.078125 1.296875 -0.015625 C 1.222656 0.046875 1.140625 0.0820312 1.046875 0.09375 C 0.953125 0.101562 0.867188 0.101562 0.796875 0.09375 Z M 0.40625 -5.734375 C 0.40625 -5.847656 0.445312 -5.953125 0.53125 -6.046875 C 0.601562 -6.128906 0.703125 -6.179688 0.828125 -6.203125 C 0.984375 -6.222656 1.113281 -6.191406 1.21875 -6.109375 C 1.332031 -6.023438 1.398438 -5.90625 1.421875 -5.75 C 1.429688 -5.664062 1.4375 -5.585938 1.4375 -5.515625 C 1.4375 -5.453125 1.410156 -5.398438 1.359375 -5.359375 C 1.335938 -5.328125 1.296875 -5.296875 1.234375 -5.265625 C 1.179688 -5.234375 1.109375 -5.210938 1.015625 -5.203125 C 0.972656 -5.191406 0.921875 -5.1875 0.859375 -5.1875 C 0.804688 -5.1875 0.742188 -5.195312 0.671875 -5.21875 C 0.566406 -5.25 0.492188 -5.316406 0.453125 -5.421875 C 0.410156 -5.535156 0.394531 -5.640625 0.40625 -5.734375 Z M 0.40625 -5.734375 "/></g></g></g><g fill="#ffffff" fill-opacity="1"><g transform="translate(78.235107, 159.464446)"><g><path d="M 2.328125 -0.09375 C 1.921875 -0.207031 1.566406 -0.398438 1.265625 -0.671875 C 0.972656 -0.953125 0.742188 -1.285156 0.578125 -1.671875 C 0.421875 -2.054688 0.34375 -2.46875 0.34375 -2.90625 C 0.34375 -4.144531 0.820312 -5.050781 1.78125 -5.625 C 2.46875 -6.03125 3.140625 -6.21875 3.796875 -6.1875 C 4.453125 -6.164062 5.097656 -5.890625 5.734375 -5.359375 C 5.878906 -5.242188 5.945312 -5.125 5.9375 -5 C 5.9375 -4.882812 5.894531 -4.78125 5.8125 -4.6875 C 5.726562 -4.601562 5.625 -4.539062 5.5 -4.5 C 5.382812 -4.457031 5.28125 -4.460938 5.1875 -4.515625 C 4.894531 -4.660156 4.625 -4.78125 4.375 -4.875 C 4.125 -4.976562 3.875 -5.035156 3.625 -5.046875 C 3.375 -5.066406 3.109375 -5.019531 2.828125 -4.90625 C 2.554688 -4.800781 2.253906 -4.617188 1.921875 -4.359375 C 1.710938 -4.191406 1.554688 -3.992188 1.453125 -3.765625 C 1.347656 -3.535156 1.285156 -3.300781 1.265625 -3.0625 C 1.253906 -2.820312 1.285156 -2.585938 1.359375 -2.359375 C 1.429688 -2.140625 1.539062 -1.945312 1.6875 -1.78125 C 2.007812 -1.425781 2.359375 -1.175781 2.734375 -1.03125 C 3.117188 -0.894531 3.550781 -0.859375 4.03125 -0.921875 C 4.195312 -0.941406 4.363281 -0.96875 4.53125 -1 C 4.695312 -1.039062 4.898438 -1.097656 5.140625 -1.171875 C 5.367188 -1.253906 5.550781 -1.300781 5.6875 -1.3125 C 5.832031 -1.332031 5.945312 -1.253906 6.03125 -1.078125 C 6.09375 -0.941406 6.082031 -0.820312 6 -0.71875 C 5.925781 -0.613281 5.804688 -0.523438 5.640625 -0.453125 C 5.253906 -0.285156 4.878906 -0.148438 4.515625 -0.046875 C 4.160156 0.046875 3.804688 0.09375 3.453125 0.09375 C 3.097656 0.09375 2.722656 0.03125 2.328125 -0.09375 Z M 2.328125 -0.09375 "/></g></g></g><g fill="#ffffff" fill-opacity="1"><g transform="translate(84.649743, 159.464446)"><g/></g></g><g fill="#ffffff" fill-opacity="1"><g transform="translate(87.917253, 159.464446)"><g><path d="M 5.53125 -1.0625 C 5.382812 -0.78125 5.171875 -0.554688 4.890625 -0.390625 C 4.617188 -0.234375 4.3125 -0.125 3.96875 -0.0625 C 3.625 -0.0078125 3.265625 0.00390625 2.890625 -0.015625 C 2.523438 -0.0351562 2.175781 -0.0820312 1.84375 -0.15625 C 1.507812 -0.238281 1.21875 -0.34375 0.96875 -0.46875 C 0.726562 -0.59375 0.550781 -0.722656 0.4375 -0.859375 C 0.320312 -1.003906 0.304688 -1.148438 0.390625 -1.296875 L 0.453125 -1.40625 C 0.515625 -1.507812 0.601562 -1.570312 0.71875 -1.59375 C 0.832031 -1.625 0.945312 -1.601562 1.0625 -1.53125 C 1.132812 -1.5 1.257812 -1.453125 1.4375 -1.390625 C 1.613281 -1.328125 1.820312 -1.265625 2.0625 -1.203125 C 2.300781 -1.148438 2.550781 -1.109375 2.8125 -1.078125 C 3.070312 -1.046875 3.320312 -1.035156 3.5625 -1.046875 C 3.800781 -1.066406 4.007812 -1.117188 4.1875 -1.203125 C 4.363281 -1.296875 4.492188 -1.425781 4.578125 -1.59375 C 4.609375 -1.757812 4.550781 -1.894531 4.40625 -2 C 4.269531 -2.101562 4.070312 -2.191406 3.8125 -2.265625 C 3.5625 -2.335938 3.28125 -2.40625 2.96875 -2.46875 C 2.664062 -2.53125 2.359375 -2.601562 2.046875 -2.6875 C 1.742188 -2.769531 1.472656 -2.878906 1.234375 -3.015625 C 1.003906 -3.148438 0.832031 -3.320312 0.71875 -3.53125 C 0.644531 -3.664062 0.597656 -3.835938 0.578125 -4.046875 C 0.566406 -4.265625 0.585938 -4.488281 0.640625 -4.71875 C 0.703125 -4.957031 0.816406 -5.179688 0.984375 -5.390625 C 1.148438 -5.597656 1.378906 -5.769531 1.671875 -5.90625 C 1.972656 -6.050781 2.351562 -6.132812 2.8125 -6.15625 C 3.007812 -6.164062 3.222656 -6.15625 3.453125 -6.125 C 3.691406 -6.09375 3.925781 -6.050781 4.15625 -6 C 4.394531 -5.945312 4.609375 -5.878906 4.796875 -5.796875 C 4.992188 -5.710938 5.148438 -5.625 5.265625 -5.53125 C 5.378906 -5.4375 5.429688 -5.332031 5.421875 -5.21875 L 5.421875 -5.109375 C 5.410156 -4.992188 5.347656 -4.910156 5.234375 -4.859375 C 5.128906 -4.804688 5.023438 -4.800781 4.921875 -4.84375 C 4.835938 -4.875 4.707031 -4.910156 4.53125 -4.953125 C 4.351562 -5.003906 4.144531 -5.046875 3.90625 -5.078125 C 3.664062 -5.117188 3.421875 -5.144531 3.171875 -5.15625 C 2.921875 -5.175781 2.679688 -5.171875 2.453125 -5.140625 C 2.234375 -5.109375 2.046875 -5.039062 1.890625 -4.9375 C 1.742188 -4.832031 1.648438 -4.679688 1.609375 -4.484375 C 1.585938 -4.304688 1.640625 -4.148438 1.765625 -4.015625 C 1.890625 -3.890625 2.0625 -3.78125 2.28125 -3.6875 C 2.507812 -3.601562 2.75 -3.53125 3 -3.46875 C 3.257812 -3.40625 3.5 -3.351562 3.71875 -3.3125 C 3.945312 -3.28125 4.125 -3.253906 4.25 -3.234375 C 4.601562 -3.148438 4.878906 -3.03125 5.078125 -2.875 C 5.285156 -2.71875 5.429688 -2.546875 5.515625 -2.359375 C 5.597656 -2.171875 5.644531 -1.988281 5.65625 -1.8125 C 5.664062 -1.644531 5.648438 -1.488281 5.609375 -1.34375 C 5.578125 -1.207031 5.550781 -1.113281 5.53125 -1.0625 Z M 5.53125 -1.0625 "/></g></g></g><g fill="#ffffff" fill-opacity="1"><g transform="translate(93.92775, 159.464446)"><g><path d="M 3.140625 0.1875 C 2.890625 0.21875 2.695312 0.21875 2.5625 0.1875 C 2.4375 0.15625 2.375 0.0234375 2.375 -0.203125 C 2.375 -0.390625 2.375 -0.617188 2.375 -0.890625 C 2.375 -1.160156 2.375 -1.453125 2.375 -1.765625 C 2.375 -2.085938 2.375 -2.40625 2.375 -2.71875 C 2.382812 -3.09375 2.394531 -3.382812 2.40625 -3.59375 C 2.414062 -3.8125 2.421875 -3.984375 2.421875 -4.109375 C 2.429688 -4.234375 2.429688 -4.359375 2.421875 -4.484375 L 2.40625 -5.109375 C 2.226562 -5.097656 2.054688 -5.082031 1.890625 -5.0625 C 1.722656 -5.050781 1.554688 -5.03125 1.390625 -5 C 1.296875 -4.988281 1.1875 -4.976562 1.0625 -4.96875 C 0.945312 -4.957031 0.832031 -4.960938 0.71875 -4.984375 C 0.601562 -5.003906 0.515625 -5.050781 0.453125 -5.125 C 0.347656 -5.226562 0.316406 -5.359375 0.359375 -5.515625 C 0.378906 -5.628906 0.441406 -5.738281 0.546875 -5.84375 C 0.660156 -5.945312 0.820312 -6.019531 1.03125 -6.0625 C 2.019531 -6.207031 3.007812 -6.222656 4 -6.109375 L 4.9375 -5.984375 C 5.101562 -5.960938 5.234375 -5.90625 5.328125 -5.8125 C 5.421875 -5.726562 5.46875 -5.617188 5.46875 -5.484375 C 5.46875 -5.421875 5.453125 -5.351562 5.421875 -5.28125 C 5.390625 -5.21875 5.332031 -5.164062 5.25 -5.125 C 5.175781 -5.082031 5.066406 -5.070312 4.921875 -5.09375 L 3.359375 -5.109375 C 3.367188 -4.992188 3.375 -4.863281 3.375 -4.71875 C 3.382812 -4.582031 3.394531 -4.398438 3.40625 -4.171875 C 3.414062 -3.941406 3.421875 -3.632812 3.421875 -3.25 C 3.429688 -2.9375 3.429688 -2.601562 3.421875 -2.25 C 3.421875 -1.90625 3.421875 -1.554688 3.421875 -1.203125 C 3.421875 -0.847656 3.421875 -0.515625 3.421875 -0.203125 C 3.429688 -0.128906 3.410156 -0.0507812 3.359375 0.03125 C 3.304688 0.125 3.234375 0.175781 3.140625 0.1875 Z M 3.140625 0.1875 "/></g></g></g><g fill="#ffffff" fill-opacity="1"><g transform="translate(99.74048, 159.464446)"><g><path d="M 3.3125 0.125 C 2.894531 0.101562 2.503906 0.015625 2.140625 -0.140625 C 1.785156 -0.304688 1.472656 -0.523438 1.203125 -0.796875 C 0.929688 -1.078125 0.71875 -1.394531 0.5625 -1.75 C 0.414062 -2.113281 0.34375 -2.507812 0.34375 -2.9375 C 0.34375 -3.3125 0.414062 -3.664062 0.5625 -4 C 0.71875 -4.332031 0.921875 -4.632812 1.171875 -4.90625 C 1.421875 -5.175781 1.703125 -5.40625 2.015625 -5.59375 C 2.335938 -5.789062 2.664062 -5.941406 3 -6.046875 C 3.34375 -6.160156 3.671875 -6.21875 3.984375 -6.21875 C 4.398438 -6.21875 4.785156 -6.132812 5.140625 -5.96875 C 5.503906 -5.800781 5.820312 -5.578125 6.09375 -5.296875 C 6.363281 -5.015625 6.578125 -4.6875 6.734375 -4.3125 C 6.890625 -3.945312 6.96875 -3.5625 6.96875 -3.15625 C 6.96875 -2.675781 6.867188 -2.234375 6.671875 -1.828125 C 6.472656 -1.421875 6.203125 -1.066406 5.859375 -0.765625 C 5.515625 -0.460938 5.125 -0.234375 4.6875 -0.078125 C 4.25 0.078125 3.789062 0.144531 3.3125 0.125 Z M 1.65625 -3.109375 C 1.65625 -2.796875 1.703125 -2.488281 1.796875 -2.1875 C 1.898438 -1.894531 2.046875 -1.625 2.234375 -1.375 C 2.421875 -1.132812 2.640625 -0.953125 2.890625 -0.828125 C 3.148438 -0.703125 3.425781 -0.65625 3.71875 -0.6875 C 4.007812 -0.726562 4.289062 -0.804688 4.5625 -0.921875 C 4.832031 -1.035156 5.070312 -1.1875 5.28125 -1.375 C 5.488281 -1.5625 5.640625 -1.785156 5.734375 -2.046875 C 5.835938 -2.304688 5.863281 -2.601562 5.8125 -2.9375 C 5.757812 -3.351562 5.65625 -3.738281 5.5 -4.09375 C 5.34375 -4.445312 5.113281 -4.734375 4.8125 -4.953125 C 4.519531 -5.179688 4.140625 -5.296875 3.671875 -5.296875 C 3.296875 -5.296875 2.953125 -5.195312 2.640625 -5 C 2.335938 -4.800781 2.097656 -4.535156 1.921875 -4.203125 C 1.742188 -3.878906 1.65625 -3.515625 1.65625 -3.109375 Z M 1.65625 -3.109375 "/></g></g></g><g fill="#ffffff" fill-opacity="1"><g transform="translate(107.057984, 159.464446)"><g><path d="M 1.5 0.0625 C 1.425781 0.09375 1.332031 0.109375 1.21875 0.109375 C 1.101562 0.109375 0.988281 0.09375 0.875 0.0625 C 0.769531 0.03125 0.6875 -0.0195312 0.625 -0.09375 C 0.5625 -0.207031 0.515625 -1.546875 0.484375 -4.109375 C 0.304688 -4.378906 0.296875 -4.632812 0.453125 -4.875 C 0.609375 -5.113281 0.878906 -5.34375 1.265625 -5.5625 C 1.753906 -5.832031 2.238281 -6.007812 2.71875 -6.09375 C 3.195312 -6.1875 3.65625 -6.164062 4.09375 -6.03125 C 4.53125 -5.894531 4.925781 -5.632812 5.28125 -5.25 C 5.75 -4.75 5.984375 -4.207031 5.984375 -3.625 C 5.984375 -2.726562 5.441406 -2.117188 4.359375 -1.796875 L 4.234375 -1.765625 C 4.398438 -1.503906 4.566406 -1.28125 4.734375 -1.09375 C 4.910156 -0.914062 5.054688 -0.773438 5.171875 -0.671875 C 5.296875 -0.566406 5.375 -0.5 5.40625 -0.46875 C 5.53125 -0.351562 5.597656 -0.25 5.609375 -0.15625 C 5.628906 -0.0703125 5.613281 -0.00390625 5.5625 0.046875 C 5.519531 0.109375 5.460938 0.148438 5.390625 0.171875 C 5.328125 0.203125 5.273438 0.21875 5.234375 0.21875 C 5.160156 0.207031 5.03125 0.160156 4.84375 0.078125 C 4.65625 -0.00390625 4.429688 -0.175781 4.171875 -0.4375 C 3.941406 -0.65625 3.757812 -0.832031 3.625 -0.96875 C 3.488281 -1.113281 3.375 -1.226562 3.28125 -1.3125 C 3.1875 -1.394531 3.085938 -1.453125 2.984375 -1.484375 C 2.890625 -1.523438 2.765625 -1.550781 2.609375 -1.5625 C 2.453125 -1.570312 2.25 -1.578125 2 -1.578125 L 1.625 -1.578125 C 1.632812 -1.535156 1.640625 -1.453125 1.640625 -1.328125 C 1.648438 -1.210938 1.664062 -1.0625 1.6875 -0.875 C 1.71875 -0.707031 1.734375 -0.570312 1.734375 -0.46875 C 1.742188 -0.363281 1.75 -0.269531 1.75 -0.1875 C 1.75 -0.0703125 1.664062 0.0078125 1.5 0.0625 Z M 1.46875 -4.671875 C 1.445312 -4.347656 1.4375 -3.988281 1.4375 -3.59375 C 1.4375 -3.195312 1.453125 -2.832031 1.484375 -2.5 C 1.773438 -2.445312 2.082031 -2.410156 2.40625 -2.390625 C 2.738281 -2.378906 3.054688 -2.390625 3.359375 -2.421875 C 3.660156 -2.460938 3.929688 -2.535156 4.171875 -2.640625 C 4.421875 -2.742188 4.613281 -2.882812 4.75 -3.0625 C 4.894531 -3.25 4.96875 -3.476562 4.96875 -3.75 C 4.96875 -3.957031 4.910156 -4.140625 4.796875 -4.296875 C 4.691406 -4.460938 4.550781 -4.601562 4.375 -4.71875 C 4.195312 -4.84375 4.007812 -4.945312 3.8125 -5.03125 C 3.613281 -5.113281 3.425781 -5.171875 3.25 -5.203125 C 2.664062 -5.328125 2.070312 -5.148438 1.46875 -4.671875 Z M 1.46875 -4.671875 "/></g></g></g><g fill="#ffffff" fill-opacity="1"><g transform="translate(113.386637, 159.464446)"><g><path d="M 1.609375 -0.125 C 1.316406 -0.144531 1.097656 -0.226562 0.953125 -0.375 C 0.816406 -0.519531 0.722656 -0.707031 0.671875 -0.9375 C 0.628906 -1.164062 0.609375 -1.421875 0.609375 -1.703125 C 0.617188 -1.992188 0.625 -2.300781 0.625 -2.625 C 0.539062 -2.65625 0.484375 -2.691406 0.453125 -2.734375 C 0.410156 -2.785156 0.378906 -2.847656 0.359375 -2.921875 C 0.347656 -2.992188 0.347656 -3.066406 0.359375 -3.140625 C 0.367188 -3.210938 0.394531 -3.28125 0.4375 -3.34375 C 0.476562 -3.414062 0.535156 -3.484375 0.609375 -3.546875 C 0.609375 -3.898438 0.601562 -4.21875 0.59375 -4.5 C 0.59375 -4.78125 0.597656 -5.015625 0.609375 -5.203125 C 0.609375 -5.390625 0.617188 -5.550781 0.640625 -5.6875 C 0.660156 -5.832031 0.71875 -5.945312 0.8125 -6.03125 C 0.914062 -6.113281 1.085938 -6.148438 1.328125 -6.140625 L 1.40625 -6.125 C 2.226562 -6.238281 3.039062 -6.242188 3.84375 -6.140625 L 4.671875 -5.984375 C 4.765625 -5.929688 4.863281 -5.863281 4.96875 -5.78125 C 5.070312 -5.707031 5.125 -5.609375 5.125 -5.484375 C 5.125 -5.390625 5.085938 -5.296875 5.015625 -5.203125 C 4.953125 -5.117188 4.820312 -5.09375 4.625 -5.125 L 3.859375 -5.1875 C 3.472656 -5.207031 3.097656 -5.207031 2.734375 -5.1875 C 2.367188 -5.175781 2.019531 -5.140625 1.6875 -5.078125 C 1.675781 -4.921875 1.671875 -4.726562 1.671875 -4.5 C 1.671875 -4.269531 1.671875 -4.03125 1.671875 -3.78125 C 2.265625 -3.820312 2.859375 -3.804688 3.453125 -3.734375 L 4.21875 -3.5625 C 4.3125 -3.519531 4.40625 -3.457031 4.5 -3.375 C 4.601562 -3.289062 4.65625 -3.1875 4.65625 -3.0625 C 4.65625 -2.96875 4.625 -2.875 4.5625 -2.78125 C 4.5 -2.695312 4.375 -2.675781 4.1875 -2.71875 L 3.4375 -2.765625 C 3.125 -2.785156 2.820312 -2.789062 2.53125 -2.78125 C 2.25 -2.769531 1.972656 -2.75 1.703125 -2.71875 C 1.710938 -2.476562 1.71875 -2.253906 1.71875 -2.046875 C 1.726562 -1.835938 1.734375 -1.648438 1.734375 -1.484375 C 1.722656 -1.328125 1.765625 -1.210938 1.859375 -1.140625 C 1.953125 -1.066406 2.070312 -1.019531 2.21875 -1 C 2.375 -0.976562 2.535156 -0.972656 2.703125 -0.984375 C 2.878906 -1.003906 3.050781 -1.03125 3.21875 -1.0625 C 3.257812 -1.070312 3.34375 -1.082031 3.46875 -1.09375 C 3.601562 -1.113281 3.753906 -1.128906 3.921875 -1.140625 C 4.085938 -1.160156 4.234375 -1.171875 4.359375 -1.171875 C 4.492188 -1.179688 4.578125 -1.1875 4.609375 -1.1875 C 4.773438 -1.164062 4.875 -1.097656 4.90625 -0.984375 C 4.9375 -0.867188 4.914062 -0.75 4.84375 -0.625 C 4.78125 -0.5 4.675781 -0.398438 4.53125 -0.328125 C 4.382812 -0.265625 4.179688 -0.210938 3.921875 -0.171875 C 3.671875 -0.140625 3.394531 -0.113281 3.09375 -0.09375 C 2.800781 -0.0820312 2.519531 -0.078125 2.25 -0.078125 C 1.988281 -0.0859375 1.773438 -0.101562 1.609375 -0.125 Z M 1.609375 -0.125 "/></g></g></g><g fill="#ffffff" fill-opacity="1"><g transform="translate(118.855416, 159.464446)"><g/></g></g><g fill="#ffffff" fill-opacity="1"><g transform="translate(122.122926, 159.464446)"><g><path d="M 0.796875 0.09375 C 0.566406 0.0625 0.453125 -0.117188 0.453125 -0.453125 C 0.453125 -0.878906 0.445312 -1.21875 0.4375 -1.46875 C 0.4375 -1.726562 0.429688 -1.9375 0.421875 -2.09375 C 0.410156 -2.257812 0.398438 -2.398438 0.390625 -2.515625 C 0.390625 -2.640625 0.382812 -2.769531 0.375 -2.90625 C 0.363281 -3.050781 0.351562 -3.238281 0.34375 -3.46875 C 0.34375 -3.695312 0.34375 -4 0.34375 -4.375 C 0.34375 -4.820312 0.59375 -5.015625 1.09375 -4.953125 C 1.300781 -4.921875 1.40625 -4.835938 1.40625 -4.703125 C 1.40625 -4.234375 1.410156 -3.800781 1.421875 -3.40625 C 1.429688 -3.019531 1.4375 -2.59375 1.4375 -2.125 C 1.4375 -1.8125 1.4375 -1.566406 1.4375 -1.390625 C 1.4375 -1.210938 1.429688 -1.082031 1.421875 -1 C 1.421875 -0.925781 1.421875 -0.863281 1.421875 -0.8125 C 1.421875 -0.769531 1.414062 -0.71875 1.40625 -0.65625 C 1.40625 -0.59375 1.40625 -0.488281 1.40625 -0.34375 C 1.40625 -0.1875 1.367188 -0.078125 1.296875 -0.015625 C 1.222656 0.046875 1.140625 0.0820312 1.046875 0.09375 C 0.953125 0.101562 0.867188 0.101562 0.796875 0.09375 Z M 0.40625 -5.734375 C 0.40625 -5.847656 0.445312 -5.953125 0.53125 -6.046875 C 0.601562 -6.128906 0.703125 -6.179688 0.828125 -6.203125 C 0.984375 -6.222656 1.113281 -6.191406 1.21875 -6.109375 C 1.332031 -6.023438 1.398438 -5.90625 1.421875 -5.75 C 1.429688 -5.664062 1.4375 -5.585938 1.4375 -5.515625 C 1.4375 -5.453125 1.410156 -5.398438 1.359375 -5.359375 C 1.335938 -5.328125 1.296875 -5.296875 1.234375 -5.265625 C 1.179688 -5.234375 1.109375 -5.210938 1.015625 -5.203125 C 0.972656 -5.191406 0.921875 -5.1875 0.859375 -5.1875 C 0.804688 -5.1875 0.742188 -5.195312 0.671875 -5.21875 C 0.566406 -5.25 0.492188 -5.316406 0.453125 -5.421875 C 0.410156 -5.535156 0.394531 -5.640625 0.40625 -5.734375 Z M 0.40625 -5.734375 "/></g></g></g><g fill="#ffffff" fill-opacity="1"><g transform="translate(123.911456, 159.464446)"><g><path d="M 1.25 0 C 1.175781 0.03125 1.082031 0.0507812 0.96875 0.0625 C 0.863281 0.0820312 0.765625 0.078125 0.671875 0.046875 C 0.578125 0.015625 0.515625 -0.0390625 0.484375 -0.125 C 0.453125 -0.207031 0.425781 -1.003906 0.40625 -2.515625 C 0.40625 -3.203125 0.394531 -3.753906 0.375 -4.171875 C 0.351562 -4.585938 0.34375 -4.863281 0.34375 -5 C 0.34375 -5.3125 0.375 -5.550781 0.4375 -5.71875 C 0.5 -5.894531 0.578125 -6.007812 0.671875 -6.0625 C 0.765625 -6.125 0.863281 -6.148438 0.96875 -6.140625 C 1.070312 -6.140625 1.160156 -6.117188 1.234375 -6.078125 C 1.304688 -6.035156 1.359375 -6 1.390625 -5.96875 L 4.609375 -1.84375 L 4.609375 -3.875 C 4.609375 -4.03125 4.613281 -4.21875 4.625 -4.4375 C 4.644531 -4.664062 4.660156 -4.894531 4.671875 -5.125 C 4.691406 -5.351562 4.71875 -5.554688 4.75 -5.734375 C 4.769531 -5.890625 4.816406 -6 4.890625 -6.0625 C 4.960938 -6.125 5.117188 -6.148438 5.359375 -6.140625 C 5.546875 -6.140625 5.65625 -6.0625 5.6875 -5.90625 C 5.71875 -5.75 5.71875 -5.578125 5.6875 -5.390625 C 5.582031 -4.867188 5.515625 -4.359375 5.484375 -3.859375 C 5.460938 -3.359375 5.457031 -2.847656 5.46875 -2.328125 C 5.488281 -1.816406 5.515625 -1.285156 5.546875 -0.734375 C 5.554688 -0.597656 5.554688 -0.46875 5.546875 -0.34375 C 5.546875 -0.21875 5.503906 -0.125 5.421875 -0.0625 C 5.347656 0 5.207031 0.0195312 5 0 C 4.90625 -0.0078125 4.835938 -0.0234375 4.796875 -0.046875 C 4.765625 -0.078125 4.71875 -0.125 4.65625 -0.1875 L 1.34375 -4.3125 C 1.34375 -4.195312 1.34375 -4.003906 1.34375 -3.734375 C 1.34375 -3.460938 1.347656 -3.148438 1.359375 -2.796875 C 1.378906 -2.441406 1.398438 -2.070312 1.421875 -1.6875 C 1.453125 -1.3125 1.476562 -0.945312 1.5 -0.59375 C 1.507812 -0.519531 1.503906 -0.421875 1.484375 -0.296875 C 1.460938 -0.171875 1.382812 -0.0703125 1.25 0 Z M 1.25 0 "/></g></g></g><g fill="#ffffff" fill-opacity="1"><g transform="translate(129.973547, 159.464446)"><g><path d="M 1.09375 0.0625 C 0.96875 0.0195312 0.890625 -0.0390625 0.859375 -0.125 C 0.828125 -0.207031 0.8125 -0.304688 0.8125 -0.421875 C 0.820312 -0.535156 0.828125 -0.660156 0.828125 -0.796875 C 0.816406 -0.984375 0.804688 -1.203125 0.796875 -1.453125 C 0.796875 -1.710938 0.789062 -1.992188 0.78125 -2.296875 L 0.78125 -2.640625 C 0.601562 -2.640625 0.492188 -2.671875 0.453125 -2.734375 C 0.410156 -2.785156 0.378906 -2.847656 0.359375 -2.921875 C 0.347656 -2.992188 0.347656 -3.066406 0.359375 -3.140625 C 0.378906 -3.234375 0.421875 -3.320312 0.484375 -3.40625 C 0.546875 -3.5 0.640625 -3.578125 0.765625 -3.640625 L 0.765625 -5.015625 C 0.628906 -5.035156 0.535156 -5.082031 0.484375 -5.15625 C 0.390625 -5.25 0.359375 -5.378906 0.390625 -5.546875 C 0.410156 -5.660156 0.472656 -5.769531 0.578125 -5.875 C 0.679688 -5.988281 0.832031 -6.066406 1.03125 -6.109375 C 1.957031 -6.242188 2.875 -6.253906 3.78125 -6.140625 L 4.640625 -5.984375 C 4.742188 -5.929688 4.847656 -5.863281 4.953125 -5.78125 C 5.066406 -5.707031 5.125 -5.609375 5.125 -5.484375 C 5.125 -5.390625 5.085938 -5.296875 5.015625 -5.203125 C 4.941406 -5.117188 4.804688 -5.09375 4.609375 -5.125 L 3.796875 -5.1875 C 3.453125 -5.207031 3.117188 -5.210938 2.796875 -5.203125 C 2.472656 -5.191406 2.160156 -5.164062 1.859375 -5.125 L 1.859375 -3.796875 C 2.117188 -3.804688 2.378906 -3.804688 2.640625 -3.796875 C 2.910156 -3.785156 3.179688 -3.765625 3.453125 -3.734375 C 3.679688 -3.679688 3.851562 -3.632812 3.96875 -3.59375 C 4.082031 -3.550781 4.140625 -3.46875 4.140625 -3.34375 C 4.140625 -3.28125 4.128906 -3.203125 4.109375 -3.109375 C 4.085938 -3.023438 4.046875 -2.953125 3.984375 -2.890625 C 3.929688 -2.828125 3.835938 -2.785156 3.703125 -2.765625 L 1.84375 -2.765625 L 1.84375 -2.421875 C 1.84375 -2.046875 1.84375 -1.765625 1.84375 -1.578125 C 1.84375 -1.390625 1.84375 -1.25 1.84375 -1.15625 C 1.851562 -1.0625 1.863281 -0.972656 1.875 -0.890625 C 1.894531 -0.796875 1.898438 -0.703125 1.890625 -0.609375 C 1.890625 -0.523438 1.875 -0.398438 1.84375 -0.234375 C 1.820312 -0.160156 1.785156 -0.09375 1.734375 -0.03125 C 1.691406 0.0195312 1.632812 0.0507812 1.5625 0.0625 C 1.5 0.09375 1.425781 0.109375 1.34375 0.109375 C 1.257812 0.109375 1.175781 0.09375 1.09375 0.0625 Z M 1.09375 0.0625 "/></g></g></g><g fill="#ffffff" fill-opacity="1"><g transform="translate(135.442327, 159.464446)"><g><path d="M 3.3125 0.125 C 2.894531 0.101562 2.503906 0.015625 2.140625 -0.140625 C 1.785156 -0.304688 1.472656 -0.523438 1.203125 -0.796875 C 0.929688 -1.078125 0.71875 -1.394531 0.5625 -1.75 C 0.414062 -2.113281 0.34375 -2.507812 0.34375 -2.9375 C 0.34375 -3.3125 0.414062 -3.664062 0.5625 -4 C 0.71875 -4.332031 0.921875 -4.632812 1.171875 -4.90625 C 1.421875 -5.175781 1.703125 -5.40625 2.015625 -5.59375 C 2.335938 -5.789062 2.664062 -5.941406 3 -6.046875 C 3.34375 -6.160156 3.671875 -6.21875 3.984375 -6.21875 C 4.398438 -6.21875 4.785156 -6.132812 5.140625 -5.96875 C 5.503906 -5.800781 5.820312 -5.578125 6.09375 -5.296875 C 6.363281 -5.015625 6.578125 -4.6875 6.734375 -4.3125 C 6.890625 -3.945312 6.96875 -3.5625 6.96875 -3.15625 C 6.96875 -2.675781 6.867188 -2.234375 6.671875 -1.828125 C 6.472656 -1.421875 6.203125 -1.066406 5.859375 -0.765625 C 5.515625 -0.460938 5.125 -0.234375 4.6875 -0.078125 C 4.25 0.078125 3.789062 0.144531 3.3125 0.125 Z M 1.65625 -3.109375 C 1.65625 -2.796875 1.703125 -2.488281 1.796875 -2.1875 C 1.898438 -1.894531 2.046875 -1.625 2.234375 -1.375 C 2.421875 -1.132812 2.640625 -0.953125 2.890625 -0.828125 C 3.148438 -0.703125 3.425781 -0.65625 3.71875 -0.6875 C 4.007812 -0.726562 4.289062 -0.804688 4.5625 -0.921875 C 4.832031 -1.035156 5.070312 -1.1875 5.28125 -1.375 C 5.488281 -1.5625 5.640625 -1.785156 5.734375 -2.046875 C 5.835938 -2.304688 5.863281 -2.601562 5.8125 -2.9375 C 5.757812 -3.351562 5.65625 -3.738281 5.5 -4.09375 C 5.34375 -4.445312 5.113281 -4.734375 4.8125 -4.953125 C 4.519531 -5.179688 4.140625 -5.296875 3.671875 -5.296875 C 3.296875 -5.296875 2.953125 -5.195312 2.640625 -5 C 2.335938 -4.800781 2.097656 -4.535156 1.921875 -4.203125 C 1.742188 -3.878906 1.65625 -3.515625 1.65625 -3.109375 Z M 1.65625 -3.109375 "/></g></g></g><g fill="#ffffff" fill-opacity="1"><g transform="translate(142.759831, 159.464446)"><g><path d="M 1.921875 0.078125 C 1.859375 0.0664062 1.800781 0.0546875 1.75 0.046875 C 1.695312 0.046875 1.648438 0.046875 1.609375 0.046875 C 1.585938 0.046875 1.5625 0.0390625 1.53125 0.03125 C 1.507812 0.03125 1.488281 0.03125 1.46875 0.03125 C 1.457031 0.03125 1.441406 0.03125 1.421875 0.03125 C 1.304688 0 1.207031 -0.0351562 1.125 -0.078125 C 1.039062 -0.128906 0.972656 -0.179688 0.921875 -0.234375 C 0.890625 -0.316406 0.859375 -0.664062 0.828125 -1.28125 C 0.796875 -1.90625 0.769531 -2.75 0.75 -3.8125 C 0.65625 -3.8125 0.554688 -3.867188 0.453125 -3.984375 C 0.347656 -4.109375 0.316406 -4.265625 0.359375 -4.453125 C 0.390625 -4.585938 0.445312 -4.734375 0.53125 -4.890625 C 0.613281 -5.054688 0.753906 -5.238281 0.953125 -5.4375 C 1.097656 -5.570312 1.289062 -5.695312 1.53125 -5.8125 C 1.78125 -5.925781 2.050781 -6.015625 2.34375 -6.078125 C 2.632812 -6.140625 2.929688 -6.171875 3.234375 -6.171875 C 3.546875 -6.179688 3.835938 -6.144531 4.109375 -6.0625 C 4.390625 -5.988281 4.632812 -5.863281 4.84375 -5.6875 C 5.257812 -5.3125 5.46875 -4.820312 5.46875 -4.21875 C 5.46875 -3.625 5.097656 -3.117188 4.359375 -2.703125 C 4.492188 -2.648438 4.632812 -2.566406 4.78125 -2.453125 C 4.925781 -2.347656 5.066406 -2.222656 5.203125 -2.078125 C 5.335938 -1.941406 5.445312 -1.796875 5.53125 -1.640625 C 5.613281 -1.492188 5.65625 -1.34375 5.65625 -1.1875 C 5.65625 -0.925781 5.5625 -0.695312 5.375 -0.5 C 5.195312 -0.300781 4.878906 -0.144531 4.421875 -0.03125 C 3.867188 0.113281 3.035156 0.148438 1.921875 0.078125 Z M 1.59375 -3.078125 C 2.289062 -3.046875 2.863281 -3.066406 3.3125 -3.140625 C 3.757812 -3.222656 4.082031 -3.351562 4.28125 -3.53125 C 4.539062 -3.78125 4.671875 -4.019531 4.671875 -4.25 C 4.671875 -4.457031 4.59375 -4.632812 4.4375 -4.78125 C 4.289062 -4.925781 4.101562 -5.039062 3.875 -5.125 C 3.644531 -5.207031 3.421875 -5.253906 3.203125 -5.265625 C 2.929688 -5.285156 2.664062 -5.265625 2.40625 -5.203125 C 2.144531 -5.140625 1.878906 -4.992188 1.609375 -4.765625 C 1.597656 -4.585938 1.585938 -4.390625 1.578125 -4.171875 C 1.578125 -3.953125 1.578125 -3.742188 1.578125 -3.546875 C 1.578125 -3.359375 1.582031 -3.203125 1.59375 -3.078125 Z M 1.6875 -2.109375 C 1.6875 -2.023438 1.691406 -1.898438 1.703125 -1.734375 C 1.710938 -1.566406 1.722656 -1.398438 1.734375 -1.234375 C 1.753906 -1.078125 1.769531 -0.945312 1.78125 -0.84375 C 1.78125 -0.832031 1.847656 -0.820312 1.984375 -0.8125 C 2.128906 -0.800781 2.304688 -0.789062 2.515625 -0.78125 C 2.734375 -0.78125 2.960938 -0.785156 3.203125 -0.796875 C 3.453125 -0.816406 3.679688 -0.84375 3.890625 -0.875 C 4.109375 -0.90625 4.285156 -0.945312 4.421875 -1 C 4.554688 -1.0625 4.625 -1.132812 4.625 -1.21875 C 4.625 -1.332031 4.554688 -1.445312 4.421875 -1.5625 C 4.296875 -1.6875 4.148438 -1.789062 3.984375 -1.875 C 3.796875 -1.976562 3.570312 -2.050781 3.3125 -2.09375 C 3.050781 -2.132812 2.78125 -2.15625 2.5 -2.15625 C 2.21875 -2.15625 1.945312 -2.140625 1.6875 -2.109375 Z M 1.6875 -2.109375 "/></g></g></g><g fill="#ffffff" fill-opacity="1"><g transform="translate(148.761728, 159.464446)"><g><path d="M 5.71875 0.015625 C 5.582031 0.078125 5.460938 0.09375 5.359375 0.0625 C 5.265625 0.03125 5.179688 -0.0234375 5.109375 -0.109375 C 5.046875 -0.191406 4.992188 -0.28125 4.953125 -0.375 L 4.625 -0.96875 C 4.34375 -0.957031 4.09375 -0.957031 3.875 -0.96875 C 3.65625 -0.976562 3.441406 -0.984375 3.234375 -0.984375 C 3.035156 -0.992188 2.8125 -1 2.5625 -1 C 2.3125 -1 2.019531 -0.984375 1.6875 -0.953125 C 1.625 -0.804688 1.539062 -0.65625 1.4375 -0.5 C 1.34375 -0.351562 1.238281 -0.226562 1.125 -0.125 C 1.007812 -0.0195312 0.894531 0.0351562 0.78125 0.046875 C 0.664062 0.0664062 0.5625 0.015625 0.46875 -0.109375 C 0.34375 -0.285156 0.304688 -0.457031 0.359375 -0.625 C 0.421875 -0.800781 0.503906 -0.972656 0.609375 -1.140625 C 0.734375 -1.347656 0.851562 -1.550781 0.96875 -1.75 C 1.082031 -1.957031 1.195312 -2.179688 1.3125 -2.421875 C 1.425781 -2.660156 1.550781 -2.929688 1.6875 -3.234375 C 1.820312 -3.546875 1.972656 -3.90625 2.140625 -4.3125 C 2.304688 -4.726562 2.5 -5.21875 2.71875 -5.78125 C 2.75 -5.882812 2.8125 -5.960938 2.90625 -6.015625 C 3 -6.066406 3.101562 -6.097656 3.21875 -6.109375 C 3.332031 -6.117188 3.4375 -6.109375 3.53125 -6.078125 C 3.632812 -6.046875 3.707031 -5.984375 3.75 -5.890625 C 3.789062 -5.828125 3.847656 -5.710938 3.921875 -5.546875 C 3.992188 -5.378906 4.09375 -5.117188 4.21875 -4.765625 C 4.351562 -4.398438 4.476562 -4.066406 4.59375 -3.765625 C 4.71875 -3.460938 4.84375 -3.164062 4.96875 -2.875 C 5.101562 -2.582031 5.25 -2.273438 5.40625 -1.953125 C 5.570312 -1.628906 5.765625 -1.253906 5.984375 -0.828125 C 6.035156 -0.742188 6.066406 -0.648438 6.078125 -0.546875 C 6.097656 -0.441406 6.082031 -0.335938 6.03125 -0.234375 C 5.976562 -0.140625 5.875 -0.0546875 5.71875 0.015625 Z M 2.109375 -1.875 C 2.347656 -1.894531 2.550781 -1.90625 2.71875 -1.90625 C 2.882812 -1.914062 3.035156 -1.921875 3.171875 -1.921875 C 3.316406 -1.921875 3.472656 -1.921875 3.640625 -1.921875 C 3.804688 -1.921875 4.003906 -1.921875 4.234375 -1.921875 C 4.109375 -2.234375 3.960938 -2.601562 3.796875 -3.03125 C 3.628906 -3.457031 3.410156 -3.992188 3.140625 -4.640625 C 3.085938 -4.484375 3.035156 -4.332031 2.984375 -4.1875 C 2.929688 -4.039062 2.867188 -3.875 2.796875 -3.6875 C 2.734375 -3.5 2.644531 -3.257812 2.53125 -2.96875 C 2.425781 -2.6875 2.285156 -2.320312 2.109375 -1.875 Z M 2.109375 -1.875 "/></g></g></g><g fill="#ffffff" fill-opacity="1"><g transform="translate(155.202158, 159.464446)"><g><path d="M 5.53125 -1.0625 C 5.382812 -0.78125 5.171875 -0.554688 4.890625 -0.390625 C 4.617188 -0.234375 4.3125 -0.125 3.96875 -0.0625 C 3.625 -0.0078125 3.265625 0.00390625 2.890625 -0.015625 C 2.523438 -0.0351562 2.175781 -0.0820312 1.84375 -0.15625 C 1.507812 -0.238281 1.21875 -0.34375 0.96875 -0.46875 C 0.726562 -0.59375 0.550781 -0.722656 0.4375 -0.859375 C 0.320312 -1.003906 0.304688 -1.148438 0.390625 -1.296875 L 0.453125 -1.40625 C 0.515625 -1.507812 0.601562 -1.570312 0.71875 -1.59375 C 0.832031 -1.625 0.945312 -1.601562 1.0625 -1.53125 C 1.132812 -1.5 1.257812 -1.453125 1.4375 -1.390625 C 1.613281 -1.328125 1.820312 -1.265625 2.0625 -1.203125 C 2.300781 -1.148438 2.550781 -1.109375 2.8125 -1.078125 C 3.070312 -1.046875 3.320312 -1.035156 3.5625 -1.046875 C 3.800781 -1.066406 4.007812 -1.117188 4.1875 -1.203125 C 4.363281 -1.296875 4.492188 -1.425781 4.578125 -1.59375 C 4.609375 -1.757812 4.550781 -1.894531 4.40625 -2 C 4.269531 -2.101562 4.070312 -2.191406 3.8125 -2.265625 C 3.5625 -2.335938 3.28125 -2.40625 2.96875 -2.46875 C 2.664062 -2.53125 2.359375 -2.601562 2.046875 -2.6875 C 1.742188 -2.769531 1.472656 -2.878906 1.234375 -3.015625 C 1.003906 -3.148438 0.832031 -3.320312 0.71875 -3.53125 C 0.644531 -3.664062 0.597656 -3.835938 0.578125 -4.046875 C 0.566406 -4.265625 0.585938 -4.488281 0.640625 -4.71875 C 0.703125 -4.957031 0.816406 -5.179688 0.984375 -5.390625 C 1.148438 -5.597656 1.378906 -5.769531 1.671875 -5.90625 C 1.972656 -6.050781 2.351562 -6.132812 2.8125 -6.15625 C 3.007812 -6.164062 3.222656 -6.15625 3.453125 -6.125 C 3.691406 -6.09375 3.925781 -6.050781 4.15625 -6 C 4.394531 -5.945312 4.609375 -5.878906 4.796875 -5.796875 C 4.992188 -5.710938 5.148438 -5.625 5.265625 -5.53125 C 5.378906 -5.4375 5.429688 -5.332031 5.421875 -5.21875 L 5.421875 -5.109375 C 5.410156 -4.992188 5.347656 -4.910156 5.234375 -4.859375 C 5.128906 -4.804688 5.023438 -4.800781 4.921875 -4.84375 C 4.835938 -4.875 4.707031 -4.910156 4.53125 -4.953125 C 4.351562 -5.003906 4.144531 -5.046875 3.90625 -5.078125 C 3.664062 -5.117188 3.421875 -5.144531 3.171875 -5.15625 C 2.921875 -5.175781 2.679688 -5.171875 2.453125 -5.140625 C 2.234375 -5.109375 2.046875 -5.039062 1.890625 -4.9375 C 1.742188 -4.832031 1.648438 -4.679688 1.609375 -4.484375 C 1.585938 -4.304688 1.640625 -4.148438 1.765625 -4.015625 C 1.890625 -3.890625 2.0625 -3.78125 2.28125 -3.6875 C 2.507812 -3.601562 2.75 -3.53125 3 -3.46875 C 3.257812 -3.40625 3.5 -3.351562 3.71875 -3.3125 C 3.945312 -3.28125 4.125 -3.253906 4.25 -3.234375 C 4.601562 -3.148438 4.878906 -3.03125 5.078125 -2.875 C 5.285156 -2.71875 5.429688 -2.546875 5.515625 -2.359375 C 5.597656 -2.171875 5.644531 -1.988281 5.65625 -1.8125 C 5.664062 -1.644531 5.648438 -1.488281 5.609375 -1.34375 C 5.578125 -1.207031 5.550781 -1.113281 5.53125 -1.0625 Z M 5.53125 -1.0625 "/></g></g></g><g fill="#ffffff" fill-opacity="1"><g transform="translate(161.212655, 159.464446)"><g><path d="M 1.609375 -0.125 C 1.316406 -0.144531 1.097656 -0.226562 0.953125 -0.375 C 0.816406 -0.519531 0.722656 -0.707031 0.671875 -0.9375 C 0.628906 -1.164062 0.609375 -1.421875 0.609375 -1.703125 C 0.617188 -1.992188 0.625 -2.300781 0.625 -2.625 C 0.539062 -2.65625 0.484375 -2.691406 0.453125 -2.734375 C 0.410156 -2.785156 0.378906 -2.847656 0.359375 -2.921875 C 0.347656 -2.992188 0.347656 -3.066406 0.359375 -3.140625 C 0.367188 -3.210938 0.394531 -3.28125 0.4375 -3.34375 C 0.476562 -3.414062 0.535156 -3.484375 0.609375 -3.546875 C 0.609375 -3.898438 0.601562 -4.21875 0.59375 -4.5 C 0.59375 -4.78125 0.597656 -5.015625 0.609375 -5.203125 C 0.609375 -5.390625 0.617188 -5.550781 0.640625 -5.6875 C 0.660156 -5.832031 0.71875 -5.945312 0.8125 -6.03125 C 0.914062 -6.113281 1.085938 -6.148438 1.328125 -6.140625 L 1.40625 -6.125 C 2.226562 -6.238281 3.039062 -6.242188 3.84375 -6.140625 L 4.671875 -5.984375 C 4.765625 -5.929688 4.863281 -5.863281 4.96875 -5.78125 C 5.070312 -5.707031 5.125 -5.609375 5.125 -5.484375 C 5.125 -5.390625 5.085938 -5.296875 5.015625 -5.203125 C 4.953125 -5.117188 4.820312 -5.09375 4.625 -5.125 L 3.859375 -5.1875 C 3.472656 -5.207031 3.097656 -5.207031 2.734375 -5.1875 C 2.367188 -5.175781 2.019531 -5.140625 1.6875 -5.078125 C 1.675781 -4.921875 1.671875 -4.726562 1.671875 -4.5 C 1.671875 -4.269531 1.671875 -4.03125 1.671875 -3.78125 C 2.265625 -3.820312 2.859375 -3.804688 3.453125 -3.734375 L 4.21875 -3.5625 C 4.3125 -3.519531 4.40625 -3.457031 4.5 -3.375 C 4.601562 -3.289062 4.65625 -3.1875 4.65625 -3.0625 C 4.65625 -2.96875 4.625 -2.875 4.5625 -2.78125 C 4.5 -2.695312 4.375 -2.675781 4.1875 -2.71875 L 3.4375 -2.765625 C 3.125 -2.785156 2.820312 -2.789062 2.53125 -2.78125 C 2.25 -2.769531 1.972656 -2.75 1.703125 -2.71875 C 1.710938 -2.476562 1.71875 -2.253906 1.71875 -2.046875 C 1.726562 -1.835938 1.734375 -1.648438 1.734375 -1.484375 C 1.722656 -1.328125 1.765625 -1.210938 1.859375 -1.140625 C 1.953125 -1.066406 2.070312 -1.019531 2.21875 -1 C 2.375 -0.976562 2.535156 -0.972656 2.703125 -0.984375 C 2.878906 -1.003906 3.050781 -1.03125 3.21875 -1.0625 C 3.257812 -1.070312 3.34375 -1.082031 3.46875 -1.09375 C 3.601562 -1.113281 3.753906 -1.128906 3.921875 -1.140625 C 4.085938 -1.160156 4.234375 -1.171875 4.359375 -1.171875 C 4.492188 -1.179688 4.578125 -1.1875 4.609375 -1.1875 C 4.773438 -1.164062 4.875 -1.097656 4.90625 -0.984375 C 4.9375 -0.867188 4.914062 -0.75 4.84375 -0.625 C 4.78125 -0.5 4.675781 -0.398438 4.53125 -0.328125 C 4.382812 -0.265625 4.179688 -0.210938 3.921875 -0.171875 C 3.671875 -0.140625 3.394531 -0.113281 3.09375 -0.09375 C 2.800781 -0.0820312 2.519531 -0.078125 2.25 -0.078125 C 1.988281 -0.0859375 1.773438 -0.101562 1.609375 -0.125 Z M 1.609375 -0.125 "/></g></g></g></svg>